<?xml version="1.0" encoding="UTF-8" standalone="no"?>
<!-- Created with Inkscape (http://www.inkscape.org/) -->

<svg
   xmlns:dc="http://purl.org/dc/elements/1.1/"
   xmlns:cc="http://creativecommons.org/ns#"
   xmlns:rdf="http://www.w3.org/1999/02/22-rdf-syntax-ns#"
   xmlns:svg="http://www.w3.org/2000/svg"
   xmlns="http://www.w3.org/2000/svg"
   xmlns:xlink="http://www.w3.org/1999/xlink"
   xmlns:sodipodi="http://sodipodi.sourceforge.net/DTD/sodipodi-0.dtd"
   xmlns:inkscape="http://www.inkscape.org/namespaces/inkscape"
   width="90"
   height="380"
   viewBox="0 0 23.8125 100.54167"
   version="1.1"
   id="svg4532"
   inkscape:version="0.92.2 (5c3e80d, 2017-08-06)"
   sodipodi:docname="BarkGain.svg">
  <title
     id="title5077">90x380</title>
  <defs
     id="defs4526">
    <clipPath
       clipPathUnits="userSpaceOnUse"
       id="clipPath3966">
      <use
         x="0"
         y="0"
         xlink:href="#g3962"
         id="use3968"
         width="100%"
         height="100%" />
    </clipPath>
    <filter
       inkscape:collect="always"
       style="color-interpolation-filters:sRGB"
       id="filter6336-6"
       x="-0.1848"
       width="1.3696001"
       y="-0.1848"
       height="1.3696001">
      <feGaussianBlur
         inkscape:collect="always"
         stdDeviation="0.041866936"
         id="feGaussianBlur6338-1" />
    </filter>
    <clipPath
       id="clip12">
      <path
         inkscape:connector-curvature="0"
         id="path28860"
         d="m 143,129.75 h 3 V 158 h -3 z m 0,0" />
    </clipPath>
    <clipPath
       id="clip11">
      <path
         inkscape:connector-curvature="0"
         id="path28857"
         d="m 117.39453,129.75 h 54 v 54.00391 h -54 z m 0,0" />
    </clipPath>
    <clipPath
       id="clip150">
      <path
         inkscape:connector-curvature="0"
         id="path29465"
         d="m 176,208.92578 h 2 V 228 h -2 z m 0,0" />
    </clipPath>
    <clipPath
       id="clip149">
      <path
         inkscape:connector-curvature="0"
         id="path29462"
         d="m 159.27734,208.92578 h 36 v 36 h -36 z m 0,0" />
    </clipPath>
    <clipPath
       id="clip142">
      <path
         inkscape:connector-curvature="0"
         id="path29320"
         d="m 110,208.92578 h 3 V 228 h -3 z m 0,0" />
    </clipPath>
    <clipPath
       id="clip141">
      <path
         inkscape:connector-curvature="0"
         id="path29317"
         d="m 93.511719,208.92578 h 36.000001 v 36 H 93.511719 Z m 0,0" />
    </clipPath>
  </defs>
  <sodipodi:namedview
     id="base"
     pagecolor="#ffffff"
     bordercolor="#666666"
     borderopacity="1.0"
     inkscape:pageopacity="0.0"
     inkscape:pageshadow="2"
     inkscape:zoom="45.254834"
     inkscape:cx="51.773632"
     inkscape:cy="67.437574"
     inkscape:document-units="px"
     inkscape:current-layer="layer1"
     showgrid="true"
     inkscape:snap-global="false"
     units="px"
     inkscape:showpageshadow="false"
     guidecolor="#0000e4"
     guideopacity="0.49803922"
     guidehicolor="#eae565"
     guidehiopacity="0.40784314"
     inkscape:measure-start="37.586,65.1009"
     inkscape:measure-end="0,0">
    <inkscape:grid
       type="xygrid"
       id="grid5976" />
  </sodipodi:namedview>
  <metadata
     id="metadata4529">
    <rdf:RDF>
      <cc:Work
         rdf:about="">
        <dc:format>image/svg+xml</dc:format>
        <dc:type
           rdf:resource="http://purl.org/dc/dcmitype/StillImage" />
        <dc:title>90x380</dc:title>
      </cc:Work>
    </rdf:RDF>
  </metadata>
  <g
     inkscape:label="Layer 1"
     inkscape:groupmode="layer"
     id="layer1"
     transform="translate(0,-196.45833)">
    <g
       id="g3964"
       clip-path="url(#clipPath3966)"
       transform="matrix(0.5990493,0,0,-0.99992553,28.936575,493.83679)"
       style="fill:#383838;fill-opacity:1">
      <g
         inkscape:label="Clip"
         id="g3962"
         style="fill:#383838;fill-opacity:1">
        <g
           style="fill:#383838;fill-opacity:1"
           inkscape:label="Layer 1"
           id="layer1-1"
           transform="translate(-48.286459,0.39687124)">
          <rect
             ry="0"
             y="196.45459"
             x="-0.031491905"
             height="100.54916"
             width="39.750484"
             id="rect1342-0"
             style="opacity:1;fill:#383838;fill-opacity:1;stroke-width:0.26458335" />
        </g>
      </g>
    </g>
    <g
       aria-label="-"
       style="font-style:normal;font-variant:normal;font-weight:normal;font-stretch:normal;font-size:2.46944451px;line-height:125%;font-family:'Segoe Script';-inkscape-font-specification:'Segoe Script, Normal';font-variant-ligatures:normal;font-variant-caps:normal;font-variant-numeric:normal;font-feature-settings:normal;text-align:start;letter-spacing:0px;word-spacing:0px;writing-mode:lr-tb;text-anchor:start;fill:#ffffff;fill-opacity:1;stroke:none;stroke-width:0.26458335px;stroke-linecap:butt;stroke-linejoin:miter;stroke-opacity:1"
       id="text8525"
       transform="translate(3.0180752e-6,-5.5777352e-6)">
      <path
         inkscape:connector-curvature="0"
         d="m 10.82728,259.28446 q 0,0.0181 -0.0072,0.0386 -0.006,0.0205 -0.01929,0.0325 -0.01326,0.01 -0.06994,0.01 -0.02412,0 -0.07476,-0.0157 -0.05064,-0.0157 -0.08079,-0.0157 -0.0096,0 -0.02532,10e-4 -0.01447,0.001 -0.03135,0.002 -0.01688,0.001 -0.03256,0.002 -0.01447,0.001 -0.02412,0.001 -0.03859,0 -0.119373,-0.007 -0.08199,-0.007 -0.120578,-0.007 -0.05547,0 -0.167604,0.007 -0.1121377,0.007 -0.1700153,0.007 -0.057878,0 -0.094051,-0.0121 -0.034968,-0.0133 -0.034968,-0.0579 0,-0.0265 0.020498,-0.0482 0.020498,-0.0217 0.049437,-0.0277 0.127813,-0.0253 0.1917193,-0.0253 0.01688,0 0.04944,0.007 0.01688,0.002 0.02653,0.005 0.01085,10e-4 0.01567,10e-4 h 0.08802 q 0.109726,0 0.191719,-0.004 0.0832,-0.004 0.142283,-0.0121 0.05185,-0.007 0.106109,-0.007 0.02291,0 0.08079,0.0229 0.05908,0.0241 0.0832,0.0362 0.01085,0.007 0.01809,0.0277 0.0084,0.0205 0.0084,0.0374 z"
         style="font-style:normal;font-variant:normal;font-weight:normal;font-stretch:normal;font-size:2.46944451px;font-family:'Segoe Script';-inkscape-font-specification:'Segoe Script, Normal';font-variant-ligatures:normal;font-variant-caps:normal;font-variant-numeric:normal;font-feature-settings:normal;text-align:start;writing-mode:lr-tb;text-anchor:start;fill:#ffffff;stroke-width:0.26458335px"
         id="path12094" />
    </g>
    <g
       aria-label="Gain"
       transform="matrix(1.0415023,0,0,0.96015151,3.0180752e-6,-5.5777352e-6)"
       style="font-style:normal;font-variant:normal;font-weight:bold;font-stretch:normal;font-size:3.0484941px;line-height:125%;font-family:'Segoe Print';-inkscape-font-specification:'Segoe Print, Bold';font-variant-ligatures:normal;font-variant-caps:normal;font-variant-numeric:normal;font-feature-settings:normal;text-align:start;letter-spacing:0px;word-spacing:0px;writing-mode:lr-tb;text-anchor:start;fill:#ffffff;fill-opacity:1;stroke:none;stroke-width:0.25404012px;stroke-linecap:butt;stroke-linejoin:miter;stroke-opacity:1"
       id="text5950">
      <path
         inkscape:connector-curvature="0"
         d="m 9.8666376,207.92126 h 0.00149 q -0.035724,0.12205 -0.071449,0.32896 -0.035725,0.20542 -0.035725,0.2977 0,0.17118 -0.00298,0.23668 -0.00149,0.0655 -0.026793,0.10717 -0.025305,0.0417 -0.065495,0.064 -0.04019,0.0238 -0.0908,0.0238 -0.08038,0 -0.1488523,-0.0566 -0.066983,-0.0566 -0.066983,-0.13248 0,-0.0253 0.041679,-0.21732 0.037213,-0.17118 0.059541,-0.29324 -0.498655,0.36915 -0.8931135,0.36915 -0.2664455,0 -0.4242289,-0.1548 -0.1562948,-0.15481 -0.1562948,-0.42423 0,-0.42572 0.2560258,-0.8172 v 0.001 q 0.2723996,-0.40786 0.6430418,-0.64304 0.3721306,-0.23519 0.7427727,-0.23519 0.1920194,0 0.3036586,0.0714 0.111639,0.07 0.111639,0.17862 0,0.0908 -0.077403,0.20095 -0.075915,0.11015 -0.1533178,0.11015 -0.049121,0 -0.072938,-0.0194 -0.023816,-0.0208 -0.049121,-0.0804 -0.028282,-0.067 -0.065495,-0.0938 -0.035725,-0.0283 -0.1056851,-0.0283 -0.2262554,0 -0.5180058,0.22328 -0.2902619,0.22179 -0.4718616,0.52694 -0.1801113,0.30366 -0.1801113,0.58052 0,0.29175 0.2500718,0.29175 0.1295015,0 0.3096127,-0.067 0.1801112,-0.067 0.3840388,-0.20988 0.2039276,-0.1429 0.2441177,-0.26049 0.041679,-0.1176 0.062518,-0.25901 0.011908,-0.0834 0.061029,-0.11015 0.05061,-0.0283 0.1354555,-0.0283 0.1949965,0 0.1949965,0.13248 0,0.0521 -0.05061,0.16969 -0.04019,0.0893 -0.074426,0.21584 z"
         style="font-style:normal;font-variant:normal;font-weight:bold;font-stretch:normal;font-size:3.0484941px;font-family:'Segoe Print';-inkscape-font-specification:'Segoe Print, Bold';font-variant-ligatures:normal;font-variant-caps:normal;font-variant-numeric:normal;font-feature-settings:normal;text-align:start;writing-mode:lr-tb;text-anchor:start;fill:#ffffff;stroke-width:0.25404012px"
         id="path12038" />
      <path
         inkscape:connector-curvature="0"
         d="m 11.374511,208.15793 q -0.391482,0.51652 -0.75617,0.51652 -0.133967,0 -0.230721,-0.10569 -0.09675,-0.10568 -0.09675,-0.26942 0,-0.39446 0.351292,-0.83953 0.351291,-0.44655 0.708536,-0.44655 0.1816,0 0.238164,0.18309 0.17118,0 0.17118,0.13099 0,0.0625 -0.03275,0.22625 -0.05954,0.30664 -0.05954,0.48972 0,0.19054 0.0253,0.26794 0.02679,0.0774 0.0387,0.10122 0.01191,0.0238 0.07145,0.0506 0.05954,0.0283 0.05954,0.0789 0,0.0759 -0.0774,0.12652 -0.07591,0.0506 -0.159272,0.0506 -0.279842,0 -0.25156,-0.56117 z m -0.08931,-0.82613 q -0.15034,0 -0.391481,0.33343 -0.239652,0.33194 -0.239652,0.56415 0,0.12206 0.05061,0.12206 0.175645,0 0.431671,-0.3111 0.257515,-0.31259 0.257515,-0.54629 0,-0.0744 -0.03424,-0.11759 -0.03275,-0.0447 -0.07443,-0.0447 z"
         style="font-style:normal;font-variant:normal;font-weight:bold;font-stretch:normal;font-size:3.0484941px;font-family:'Segoe Print';-inkscape-font-specification:'Segoe Print, Bold';font-variant-ligatures:normal;font-variant-caps:normal;font-variant-numeric:normal;font-feature-settings:normal;text-align:start;writing-mode:lr-tb;text-anchor:start;fill:#ffffff;stroke-width:0.25404012px"
         id="path12040" />
      <path
         inkscape:connector-curvature="0"
         d="m 12.965742,206.44464 q 0,0.10569 -0.09527,0.18607 -0.09526,0.0789 -0.165226,0.0789 -0.08931,0 -0.159272,-0.0744 -0.06847,-0.0744 -0.06847,-0.14885 0,-0.10717 0.06847,-0.17267 0.06847,-0.067 0.196485,-0.067 0.09973,0 0.160761,0.0595 0.06252,0.0581 0.06252,0.13843 z m -0.718957,1.22357 v 0.001 q 0.04763,-0.27092 0.04763,-0.30962 0,-0.11015 0.04763,-0.18457 0.04912,-0.0744 0.135455,-0.0744 0.10122,0 0.157784,0.0476 0.05656,0.0476 0.05656,0.10718 0,0.0595 -0.05508,0.2456 l -0.0089,0.0328 q -0.08187,0.28728 -0.09824,0.46888 -0.01637,0.1816 -0.01637,0.29324 0,0.0908 0.03126,0.24263 0.0045,0.0268 0.0045,0.0447 0,0.0342 -0.0655,0.0923 -0.06401,0.0581 -0.138432,0.0581 -0.196485,0 -0.196485,-0.29771 0,-0.25304 0.07145,-0.61624 0.01488,-0.0804 0.02679,-0.15183 z"
         style="font-style:normal;font-variant:normal;font-weight:bold;font-stretch:normal;font-size:3.0484941px;font-family:'Segoe Print';-inkscape-font-specification:'Segoe Print, Bold';font-variant-ligatures:normal;font-variant-caps:normal;font-variant-numeric:normal;font-feature-settings:normal;text-align:start;writing-mode:lr-tb;text-anchor:start;fill:#ffffff;stroke-width:0.25404012px"
         id="path12042" />
      <path
         inkscape:connector-curvature="0"
         d="m 14.26671,208.43926 q -0.07145,-0.13397 -0.104197,-0.50014 -0.03275,-0.38106 -0.145875,-0.38106 -0.107174,0 -0.370642,0.39743 -0.263469,0.39595 -0.324498,0.58499 -0.0134,0.0566 -0.05061,0.0938 -0.03572,0.0372 -0.07145,0.0372 -0.226255,0 -0.226255,-0.2069 0,-0.07 0.04466,-0.31855 0.05805,-0.32152 0.05805,-0.78594 0,-0.07 0.06103,-0.14885 0.06103,-0.0804 0.129502,-0.0804 0.08633,0 0.132478,0.0432 0.04614,0.0432 0.04614,0.22923 0,0.14141 -0.08484,0.54778 0.323009,-0.75617 0.720445,-0.75617 0.345337,0 0.404878,0.54331 0.05954,0.55373 0.136944,0.55373 0.03424,0 0.07889,-0.0149 0.05359,-0.0179 0.08485,-0.0179 0.07145,0 0.07145,0.0834 0,0.0759 -0.09824,0.16225 -0.09824,0.0848 -0.247095,0.0848 -0.172669,0 -0.247095,-0.15034 z"
         style="font-style:normal;font-variant:normal;font-weight:bold;font-stretch:normal;font-size:3.0484941px;font-family:'Segoe Print';-inkscape-font-specification:'Segoe Print, Bold';font-variant-ligatures:normal;font-variant-caps:normal;font-variant-numeric:normal;font-feature-settings:normal;text-align:start;writing-mode:lr-tb;text-anchor:start;fill:#ffffff;stroke-width:0.25404012px"
         id="path12044" />
    </g>
    <g
       aria-label="-"
       transform="matrix(-1,0,0,1,3.0180752e-6,-5.5777352e-6)"
       style="font-style:normal;font-variant:normal;font-weight:normal;font-stretch:normal;font-size:2.46944451px;line-height:125%;font-family:'Segoe Script';-inkscape-font-specification:'Segoe Script, Normal';font-variant-ligatures:normal;font-variant-caps:normal;font-variant-numeric:normal;font-feature-settings:normal;text-align:start;letter-spacing:0px;word-spacing:0px;writing-mode:lr-tb;text-anchor:start;fill:#ffffff;fill-opacity:1;stroke:none;stroke-width:0.26458335px;stroke-linecap:butt;stroke-linejoin:miter;stroke-opacity:1"
       id="text8529">
      <path
         inkscape:connector-curvature="0"
         d="m -12.979948,259.28446 q 0,0.0181 -0.0072,0.0386 -0.006,0.0205 -0.01929,0.0325 -0.01326,0.01 -0.06993,0.01 -0.02412,0 -0.07476,-0.0157 -0.05064,-0.0157 -0.08079,-0.0157 -0.0096,0 -0.02532,10e-4 -0.01447,0.001 -0.03135,0.002 -0.01688,0.001 -0.03256,0.002 -0.01447,0.001 -0.02412,0.001 -0.03858,0 -0.119373,-0.007 -0.08199,-0.007 -0.120578,-0.007 -0.05547,0 -0.167604,0.007 -0.112138,0.007 -0.170015,0.007 -0.05788,0 -0.09405,-0.0121 -0.03497,-0.0133 -0.03497,-0.0579 0,-0.0265 0.0205,-0.0482 0.0205,-0.0217 0.04944,-0.0277 0.127813,-0.0253 0.19172,-0.0253 0.01688,0 0.04944,0.007 0.01688,0.002 0.02653,0.005 0.01085,10e-4 0.01568,10e-4 h 0.08802 q 0.109727,0 0.19172,-0.004 0.0832,-0.004 0.142283,-0.0121 0.05185,-0.007 0.106108,-0.007 0.02291,0 0.08079,0.0229 0.05908,0.0241 0.0832,0.0362 0.01085,0.007 0.01809,0.0277 0.0084,0.0205 0.0084,0.0374 z"
         style="font-style:normal;font-variant:normal;font-weight:normal;font-stretch:normal;font-size:2.46944451px;font-family:'Segoe Script';-inkscape-font-specification:'Segoe Script, Normal';font-variant-ligatures:normal;font-variant-caps:normal;font-variant-numeric:normal;font-feature-settings:normal;text-align:start;writing-mode:lr-tb;text-anchor:start;fill:#ffffff;stroke-width:0.26458335px"
         id="path12091" />
    </g>
    <rect
       rx="0.026458334"
       y="213.40425"
       x="13.820606"
       height="46.698959"
       width="3.5718751"
       id="rect5972"
       style="opacity:1;fill:#cccccc;fill-opacity:1;fill-rule:evenodd;stroke:none;stroke-width:0.25003126;stroke-linecap:butt;stroke-linejoin:round;stroke-miterlimit:4;stroke-dasharray:none;stroke-dashoffset:0;stroke-opacity:1;paint-order:fill markers stroke" />
    <rect
       style="opacity:1;fill:#cccccc;fill-opacity:1;fill-rule:evenodd;stroke:none;stroke-width:0.25003126;stroke-linecap:butt;stroke-linejoin:round;stroke-miterlimit:4;stroke-dasharray:none;stroke-dashoffset:0;stroke-opacity:1;paint-order:fill markers stroke"
       id="rect5974"
       width="3.5718751"
       height="46.698959"
       x="6.4200239"
       y="213.40425"
       rx="0.026458334" />
    <path
       id="circle7814"
       d="m 9.00193,266.43611 a 0.55600115,0.55600115 0 0 1 -0.5560004,0.556 0.55600115,0.55600115 0 0 1 -0.5560004,-0.556 0.55600115,0.55600115 0 0 1 0.5560004,-0.556 0.55600115,0.55600115 0 0 1 0.5560004,0.556 z"
       style="opacity:0.93269228;fill:#ffffff;fill-opacity:1;stroke-width:0.40901232"
       inkscape:connector-curvature="0" />
    <path
       id="rect7824"
       d="m 9.7712073,265.28031 0.3702857,-0.0993 0.31569,1.17817 -0.370284,0.0992 z"
       style="opacity:0.93269228;fill:#ffffff;fill-opacity:1;stroke-width:0.39427948"
       inkscape:connector-curvature="0" />
    <path
       id="rect7844"
       d="m 11.206699,264.07594 h 1.399099 c 0.08925,0 0.161143,0.0719 0.161143,0.16115 v 4.4e-4 c 0,0.0892 -0.07188,0.16115 -0.161143,0.16115 h -1.399099 c -0.08925,0 -0.161128,-0.0719 -0.161128,-0.16115 v -4.4e-4 c 0,-0.0893 0.07188,-0.16115 0.161128,-0.16115 z"
       style="opacity:1;fill:#ffffff;fill-opacity:1;fill-rule:evenodd;stroke:none;stroke-width:0.24908909;stroke-linecap:butt;stroke-linejoin:round;stroke-miterlimit:4;stroke-dasharray:none;stroke-dashoffset:0;stroke-opacity:1;paint-order:fill markers stroke"
       inkscape:connector-curvature="0" />
    <g
       id="g7852"
       transform="matrix(1.368039,0,0,1.368039,-218.00381,105.55796)">
      <path
         id="circle7848"
         d="m 168.32998,116.94739 a 0.27186322,0.27186322 0 0 1 -0.27186,0.27186 0.27186322,0.27186322 0 0 1 -0.27186,-0.27186 0.27186322,0.27186322 0 0 1 0.27186,-0.27187 0.27186322,0.27186322 0 0 1 0.27186,0.27187 z"
         style="opacity:0.33599997;fill:#ff0000;fill-opacity:1;fill-rule:evenodd;stroke:none;stroke-width:0.27356359;stroke-linecap:butt;stroke-linejoin:round;stroke-miterlimit:4;stroke-dasharray:none;stroke-dashoffset:0;stroke-opacity:1;paint-order:fill markers stroke;filter:url(#filter6336-6)"
         transform="matrix(0.79587479,0,0,0.79587479,34.304898,23.87191)"
         inkscape:connector-curvature="0" />
      <path
         inkscape:connector-curvature="0"
         id="path7850"
         transform="matrix(0.26458333,0,0,0.26458333,141.36311,119.40357)"
         d="m 100.89453,-10.896484 a 1.6130873,1.6130873 0 0 0 -1.61328,1.6132809 1.6130873,1.6130873 0 0 0 1.61328,1.6132812 1.6130873,1.6130873 0 0 0 1.61328,-1.6132812 1.6130873,1.6130873 0 0 0 -1.61328,-1.6132809 z m 0,0.585937 a 1.0275145,1.0275145 0 0 1 1.02735,1.0273439 1.0275145,1.0275145 0 0 1 -1.02735,1.0273437 1.0275145,1.0275145 0 0 1 -1.027342,-1.0273437 1.0275145,1.0275145 0 0 1 1.027342,-1.0273439 z"
         style="opacity:1;fill:#ffffff;fill-opacity:1;fill-rule:evenodd;stroke:none;stroke-width:2.22532225;stroke-linecap:butt;stroke-linejoin:round;stroke-miterlimit:4;stroke-dasharray:none;stroke-dashoffset:0;stroke-opacity:1;paint-order:fill markers stroke" />
    </g>
    <g
       aria-label="8"
       transform="matrix(0,1,1,0,3.0180752e-6,-5.5777352e-6)"
       style="font-style:normal;font-variant:normal;font-weight:normal;font-stretch:normal;font-size:2.82222223px;line-height:125%;font-family:'Segoe Print';-inkscape-font-specification:'Segoe Print, Normal';font-variant-ligatures:normal;font-variant-caps:normal;font-variant-numeric:normal;font-feature-settings:normal;text-align:start;letter-spacing:0px;word-spacing:0px;writing-mode:lr-tb;text-anchor:start;fill:#ffffff;fill-opacity:1;stroke:none;stroke-width:0.26458335px;stroke-linecap:butt;stroke-linejoin:miter;stroke-opacity:1"
       id="text8521">
      <path
         inkscape:connector-curvature="0"
         d="m 259.38426,11.921409 q 0.14607,0.05926 0.28526,0.202571 0.14056,0.141938 0.14056,0.26045 0,0.124023 -0.0441,0.220486 -0.0427,0.09508 -0.28388,0.159852 -0.24115,0.06339 -0.38309,0.06339 -0.10749,0 -0.26596,-0.03721 -0.15848,-0.03858 -0.21222,-0.104731 -0.0524,-0.06752 -0.0524,-0.183279 0,-0.09646 0.0854,-0.209462 0.0854,-0.114377 0.20946,-0.195681 0.15434,-0.106109 0.19293,-0.136426 l -0.073,-0.04134 q -0.20808,-0.110243 -0.2949,-0.214974 -0.0854,-0.106109 -0.0854,-0.19706 0,-0.09784 0.0689,-0.181901 0.0703,-0.08544 0.29076,-0.205327 0.0551,-0.02894 0.10749,-0.06063 0.12127,-0.07579 0.30041,-0.07579 0.0579,0 0.17088,0.04823 0.113,0.04685 0.14745,0.08544 0.0358,0.03721 0.0524,0.148829 0.0152,0.108865 0.0179,0.110243 0.0165,-0.02067 0.0358,-0.05099 0.0234,-0.03858 0.0317,-0.04823 0.0289,0.0069 0.0579,0.04272 0.0303,0.03583 0.0303,0.06752 0,0.03445 -0.0841,0.151584 -0.0841,0.117133 -0.21911,0.21084 -0.18742,0.132292 -0.22738,0.170877 z m -0.14194,-0.08682 q 0.33073,-0.267339 0.33073,-0.395497 0,-0.110243 -0.0689,-0.179145 -0.0689,-0.0689 -0.17914,-0.0689 -0.12403,0 -0.30317,0.114377 -0.17915,0.114377 -0.17915,0.184657 0,0.121267 0.29904,0.286632 0.0648,0.03583 0.10059,0.05788 z m 0.35003,0.560862 q 0,-0.08268 -0.11576,-0.191547 -0.11575,-0.110243 -0.24805,-0.163987 -0.4203,0.2949 -0.4203,0.465777 0,0.05788 0.0772,0.09095 0.0786,0.03307 0.14332,0.03307 0.30868,0 0.43546,-0.06339 0.12816,-0.06339 0.12816,-0.141938 z"
         style="font-style:normal;font-variant:normal;font-weight:normal;font-stretch:normal;font-size:2.82222223px;font-family:'Segoe Print';-inkscape-font-specification:'Segoe Print, Normal';font-variant-ligatures:normal;font-variant-caps:normal;font-variant-numeric:normal;font-feature-settings:normal;text-align:start;writing-mode:lr-tb;text-anchor:start;fill:#ffffff;stroke-width:0.26458335px"
         id="path12088" />
    </g>
    <g
       aria-label="Out"
       style="font-style:normal;font-variant:normal;font-weight:normal;font-stretch:normal;font-size:2.46944451px;line-height:125%;font-family:'Segoe Script';-inkscape-font-specification:'Segoe Script, Normal';font-variant-ligatures:normal;font-variant-caps:normal;font-variant-numeric:normal;font-feature-settings:normal;text-align:start;letter-spacing:0px;word-spacing:0px;writing-mode:lr-tb;text-anchor:start;fill:#ffffff;fill-opacity:1;stroke:none;stroke-width:0.26458335px;stroke-linecap:butt;stroke-linejoin:miter;stroke-opacity:1"
       id="text10017"
       transform="translate(3.0180752e-6,-5.5777352e-6)">
      <path
         inkscape:connector-curvature="0"
         d="m 10.389762,209.78735 q -0.08923,0 -0.167604,0.0338 -0.07717,0.0338 -0.1459,0.0892 -0.06873,0.0555 -0.1302242,0.1254 -0.060289,0.0699 -0.1157552,0.14228 -0.049437,0.0639 -0.095257,0.1447 -0.044614,0.0796 -0.079582,0.16881 -0.034968,0.088 -0.056672,0.18328 -0.020498,0.094 -0.020498,0.1881 0,0.0892 0.030144,0.16278 0.030145,0.0724 0.078376,0.12419 0.049437,0.0519 0.1121378,0.0808 0.063907,0.0289 0.1314304,0.0289 0.1000802,0 0.1941312,-0.0265 0.09526,-0.0277 0.182073,-0.0748 0.08682,-0.0482 0.163987,-0.11093 0.07717,-0.0639 0.142282,-0.13746 0.06632,-0.0736 0.116961,-0.15313 0.05185,-0.0796 0.08802,-0.15796 0.01688,-0.0374 0.03015,-0.0868 0.01447,-0.0494 0.02291,-0.10369 0.0096,-0.0543 0.01447,-0.10973 0.006,-0.0555 0.0072,-0.1049 0.0012,-0.0494 -0.0024,-0.088 -0.0024,-0.0386 -0.0096,-0.0603 -0.01326,-0.0374 -0.05064,-0.082 -0.03738,-0.0458 -0.09887,-0.0844 -0.0615,-0.0386 -0.147106,-0.0651 -0.08441,-0.0265 -0.194131,-0.0265 z m 0.740351,0.47146 q 0,0.0784 -0.02412,0.17363 -0.02291,0.094 -0.06752,0.19413 -0.04461,0.0989 -0.109727,0.19775 -0.06511,0.0989 -0.147105,0.18449 -0.131431,0.13746 -0.242363,0.22548 -0.109726,0.088 -0.218247,0.13866 -0.107314,0.0506 -0.220658,0.0699 -0.1133435,0.0205 -0.2495971,0.0205 -0.06873,0 -0.1326362,-0.0265 -0.062701,-0.0253 -0.1181667,-0.0687 -0.05426,-0.0446 -0.098874,-0.1037 -0.044614,-0.0591 -0.07717,-0.12419 -0.03135,-0.0651 -0.049437,-0.13384 -0.016881,-0.0687 -0.016881,-0.13264 0,-0.11576 0.033762,-0.25321 0.033762,-0.13746 0.096463,-0.27613 0.063906,-0.13866 0.1543403,-0.26768 0.090434,-0.13023 0.2025716,-0.2291 0.1121379,-0.10008 0.2435681,-0.16037 0.132636,-0.0603 0.279742,-0.0603 0.02653,0 0.06511,0.001 0.03858,0 0.08441,0.004 0.04582,0.004 0.09646,0.0109 0.05064,0.006 0.09887,0.0193 0.04944,0.0121 0.09405,0.0314 0.04582,0.0181 0.08079,0.0446 0.08441,0.0639 0.132636,0.12299 0.04823,0.0579 0.07235,0.11937 0.02532,0.0615 0.03135,0.13023 0.006,0.0675 0.006,0.14831 z"
         style="font-style:normal;font-variant:normal;font-weight:normal;font-stretch:normal;font-size:2.46944451px;font-family:'Segoe Script';-inkscape-font-specification:'Segoe Script, Normal';font-variant-ligatures:normal;font-variant-caps:normal;font-variant-numeric:normal;font-feature-settings:normal;text-align:start;writing-mode:lr-tb;text-anchor:start;fill:#ffffff;stroke-width:0.26458335px"
         id="path12109" />
      <path
         inkscape:connector-curvature="0"
         d="m 13.54168,210.40109 q 0,0.0458 -0.02291,0.10491 -0.02291,0.0579 -0.0627,0.10852 -0.05064,0.0651 -0.114549,0.12902 -0.0627,0.0639 -0.13143,0.12299 -0.06873,0.0579 -0.139871,0.10852 -0.07114,0.0494 -0.138665,0.0868 -0.06632,0.0362 -0.125402,0.0579 -0.05908,0.0205 -0.103697,0.0205 -0.05667,0 -0.09887,-0.0193 -0.0422,-0.0193 -0.07355,-0.0519 -0.03014,-0.0338 -0.05064,-0.0784 -0.0205,-0.0446 -0.03617,-0.0941 -0.01447,-0.0494 -0.02412,-0.10129 -0.0096,-0.053 -0.01809,-0.10249 -0.03015,0.0458 -0.06873,0.1037 -0.03738,0.0567 -0.07958,0.11576 -0.041,0.0591 -0.08441,0.11454 -0.0422,0.0543 -0.07958,0.0953 -0.0422,0.0446 -0.09285,0.0856 -0.04944,0.041 -0.106109,0.0724 -0.05547,0.0301 -0.116961,0.0494 -0.06149,0.0181 -0.126608,0.0181 -0.09526,0 -0.149517,-0.0784 -0.05305,-0.0784 -0.05305,-0.18087 0,-0.0482 0.0072,-0.10008 0.0084,-0.0531 0.01809,-0.1049 0.01085,-0.0519 0.0205,-0.10129 0.0096,-0.0506 0.01326,-0.0953 0.0012,-0.0181 0.0012,-0.0446 0.0012,-0.0277 0.0012,-0.0639 0,-0.0325 0,-0.0591 0,-0.0277 0.0012,-0.0519 0.0012,-0.0253 0.0036,-0.0494 0.0024,-0.0241 0.0072,-0.0506 0.0072,-0.041 0.03256,-0.0711 0.02532,-0.0301 0.07958,-0.0301 0.110932,0 0.110932,0.15313 0,0.0265 -0.006,0.0591 -0.0048,0.0314 -0.01206,0.0663 -0.0072,0.0338 -0.01567,0.0699 -0.0072,0.035 -0.01326,0.0687 -0.01206,0.047 -0.02412,0.0941 -0.01206,0.047 -0.02291,0.0916 -0.0096,0.0446 -0.01567,0.0868 -0.006,0.041 -0.006,0.076 0,0.0181 0.0048,0.041 0.0048,0.0217 0.01447,0.0422 0.0096,0.0193 0.02532,0.0325 0.01688,0.0133 0.03858,0.0133 0.06391,0 0.129019,-0.035 0.06511,-0.0362 0.124196,-0.088 0.06029,-0.0531 0.112138,-0.11214 0.05305,-0.0603 0.09285,-0.10973 0.03858,-0.0494 0.07596,-0.11696 0.03859,-0.0675 0.07235,-0.13987 0.03497,-0.0736 0.06632,-0.1459 0.03135,-0.0724 0.05667,-0.13022 0.05667,-0.13264 0.101286,-0.13264 0.03256,0 0.04341,0.0108 0.01085,0.01 0.01085,0.041 0,0.0241 -0.006,0.0651 -0.0048,0.041 -0.01206,0.0856 -0.0072,0.0446 -0.01326,0.0856 -0.0048,0.041 -0.0048,0.0639 0,0.0205 0,0.0506 0.0012,0.0289 0.0024,0.0603 0.0012,0.0313 0.0036,0.0627 0.0036,0.0302 0.0084,0.0519 0.0048,0.0253 0.01688,0.0627 0.01206,0.0362 0.03015,0.0711 0.01929,0.035 0.04582,0.0603 0.02653,0.0241 0.0615,0.0241 0.06511,0 0.147105,-0.0386 0.0832,-0.0386 0.170016,-0.0989 0.08682,-0.0615 0.172427,-0.13626 0.08561,-0.076 0.159163,-0.14951 0.02894,-0.0289 0.05788,-0.0579 0.03014,-0.0289 0.05426,-0.0482 0.02532,-0.0193 0.03979,-0.0253 0.01567,-0.006 0.01567,0.01 z"
         style="font-style:normal;font-variant:normal;font-weight:normal;font-stretch:normal;font-size:2.46944451px;font-family:'Segoe Script';-inkscape-font-specification:'Segoe Script, Normal';font-variant-ligatures:normal;font-variant-caps:normal;font-variant-numeric:normal;font-feature-settings:normal;text-align:start;writing-mode:lr-tb;text-anchor:start;fill:#ffffff;stroke-width:0.26458335px"
         id="path12111" />
      <path
         inkscape:connector-curvature="0"
         d="m 14.374876,210.26966 q 0,0.035 -0.01447,0.0543 -0.01326,0.0193 -0.03376,0.0289 -0.01929,0.01 -0.0422,0.0121 -0.02291,0.002 -0.041,0.004 -0.101286,0.007 -0.207395,0.0169 -0.104903,0.008 -0.191719,0.0181 -0.08682,0.008 -0.143489,0.0169 -0.05547,0.008 -0.05667,0.0133 -0.0084,0.035 -0.0217,0.0868 -0.01326,0.0518 -0.02773,0.11213 -0.01447,0.0591 -0.02894,0.12299 -0.01447,0.0627 -0.02653,0.12058 -0.01085,0.0567 -0.01809,0.1037 -0.0072,0.0458 -0.0072,0.0735 0,0.0253 0.0036,0.0615 0.0036,0.0362 0.01688,0.0699 0.01447,0.0326 0.041,0.0555 0.02653,0.0229 0.07235,0.0229 0.02532,0 0.0615,-0.0157 0.03738,-0.0157 0.08079,-0.0434 0.04341,-0.0277 0.09043,-0.0663 0.04703,-0.0386 0.09285,-0.0844 0.02291,-0.0229 0.04944,-0.0434 0.02773,-0.0217 0.05908,-0.0217 0.04461,0 0.04461,0.0422 0,0.0217 -0.0084,0.0422 -0.0072,0.0193 -0.0205,0.0398 -0.01206,0.0193 -0.02894,0.0398 -0.01567,0.0193 -0.03376,0.041 -0.01206,0.0157 -0.03617,0.041 -0.02291,0.0241 -0.05667,0.0531 -0.03256,0.0289 -0.07355,0.0591 -0.03979,0.0289 -0.08561,0.0519 -0.04461,0.0241 -0.09405,0.0386 -0.04823,0.0157 -0.09767,0.0157 -0.07114,0 -0.119373,-0.0205 -0.04702,-0.0205 -0.07717,-0.0543 -0.03014,-0.0338 -0.04702,-0.076 -0.01568,-0.0434 -0.02291,-0.0868 -0.0072,-0.0434 -0.0084,-0.0844 0,-0.0422 0,-0.0724 0,-0.0374 0.0072,-0.088 0.0084,-0.0519 0.01929,-0.10972 0.01085,-0.0579 0.02412,-0.11696 0.01447,-0.0603 0.02532,-0.11455 0.01085,-0.0543 0.01809,-0.0989 0.0084,-0.0458 0.0084,-0.0724 0,-0.0157 -0.01567,-0.0169 -0.01447,-0.002 -0.03979,0.001 -0.02532,0.004 -0.05788,0.007 -0.03135,0.004 -0.06511,-0.002 -0.0217,-0.004 -0.041,-0.0109 -0.01929,-0.007 -0.03497,-0.0193 -0.01447,-0.0133 -0.02412,-0.0326 -0.0084,-0.0205 -0.0084,-0.0506 0,-0.0374 0.01929,-0.0519 0.0205,-0.0145 0.04823,-0.0145 h 0.28336 q 0.0072,-0.004 0.01809,-0.0241 0.01206,-0.0217 0.02532,-0.0543 0.01447,-0.0338 0.03014,-0.0747 0.01568,-0.0422 0.03135,-0.0868 0.01688,-0.0458 0.03135,-0.0916 0.01567,-0.0458 0.02894,-0.0856 0.0205,-0.0651 0.04823,-0.0928 0.02773,-0.0277 0.06994,-0.0277 0.02773,0 0.04582,0.0109 0.01929,0.01 0.03014,0.0253 0.01085,0.0145 0.01567,0.0314 0.0048,0.0169 0.0048,0.0314 0,0.005 -0.0084,0.0289 -0.0072,0.0229 -0.01929,0.0579 -0.01206,0.035 -0.02773,0.0784 -0.01568,0.0434 -0.03256,0.0868 -0.01567,0.0434 -0.03014,0.0844 -0.01447,0.041 -0.02532,0.0711 0.112138,-0.007 0.189308,-0.0145 0.07838,-0.007 0.133842,-0.0121 0.05547,-0.006 0.09405,-0.01 0.03979,-0.004 0.07476,-0.004 0.05305,0 0.08441,0.005 0.03256,0.005 0.04944,0.0145 0.01809,0.008 0.02412,0.0229 0.006,0.0133 0.006,0.0313 z"
         style="font-style:normal;font-variant:normal;font-weight:normal;font-stretch:normal;font-size:2.46944451px;font-family:'Segoe Script';-inkscape-font-specification:'Segoe Script, Normal';font-variant-ligatures:normal;font-variant-caps:normal;font-variant-numeric:normal;font-feature-settings:normal;text-align:start;writing-mode:lr-tb;text-anchor:start;fill:#ffffff;stroke-width:0.26458335px"
         id="path12113" />
    </g>
    <g
       aria-label="L"
       style="font-style:normal;font-variant:normal;font-weight:normal;font-stretch:normal;font-size:2.29305553px;line-height:125%;font-family:'Segoe Print';-inkscape-font-specification:'Segoe Print, Normal';font-variant-ligatures:normal;font-variant-caps:normal;font-variant-numeric:normal;font-feature-settings:normal;text-align:start;letter-spacing:0px;word-spacing:0px;writing-mode:lr-tb;text-anchor:start;fill:#ffffff;fill-opacity:1;stroke:none;stroke-width:0.26458335px;stroke-linecap:butt;stroke-linejoin:miter;stroke-opacity:1"
       id="text9997"
       transform="translate(3.0180752e-6,-5.5777352e-6)">
      <path
         inkscape:connector-curvature="0"
         d="m 6.6392826,290.60354 q 0,-0.0224 0.03359,-0.2732 0.03359,-0.25192 0.06382,-0.58446 0.030231,-0.33366 0.038068,-0.37284 0.00896,-0.0392 0.035829,-0.0638 0.027991,-0.0246 0.086213,-0.0246 0.036949,0 0.06606,0.0313 0.029111,0.0314 0.029111,0.0683 0,0.0482 -0.020154,0.15675 -0.029111,0.14892 -0.085094,0.60462 -0.054863,0.4557 -0.054863,0.51616 0,0.0392 0.011197,0.0537 0.012316,0.0134 0.044786,0.0134 0.052624,0 0.2485636,-0.0325 0.1209229,-0.019 0.4568197,-0.0369 0.060461,-0.002 0.1489142,-0.0257 0.016795,-0.004 0.024633,-0.004 0.042547,0 0.067179,0.028 0.024633,0.028 0.024633,0.0672 0,0.0638 -0.049265,0.10189 -0.049265,0.0369 -0.1097263,0.0369 -0.023513,0 -0.092931,-0.007 -0.070538,-0.006 -0.1052477,-0.006 -0.3650079,0 -0.7042637,0.11421 -0.057102,0.019 -0.1030083,0.019 -0.050384,0 -0.078376,-0.0437 -0.026872,-0.0437 -0.026872,-0.0851 0,-0.0246 0.021274,-0.10749 0.023513,-0.0974 0.029111,-0.14443 z"
         style="font-style:normal;font-variant:normal;font-weight:normal;font-stretch:normal;font-size:2.29305553px;font-family:'Segoe Print';-inkscape-font-specification:'Segoe Print, Normal';font-variant-ligatures:normal;font-variant-caps:normal;font-variant-numeric:normal;font-feature-settings:normal;text-align:start;writing-mode:lr-tb;text-anchor:start;fill:#ffffff;stroke-width:0.26458335px"
         id="path12061" />
    </g>
    <g
       aria-label="R"
       style="font-style:normal;font-variant:normal;font-weight:normal;font-stretch:normal;font-size:2.29305553px;line-height:125%;font-family:'Segoe Print';-inkscape-font-specification:'Segoe Print, Normal';font-variant-ligatures:normal;font-variant-caps:normal;font-variant-numeric:normal;font-feature-settings:normal;text-align:start;letter-spacing:0px;word-spacing:0px;writing-mode:lr-tb;text-anchor:start;fill:#ffffff;fill-opacity:1;stroke:none;stroke-width:0.26458335px;stroke-linecap:butt;stroke-linejoin:miter;stroke-opacity:1"
       id="text10005"
       transform="translate(3.0180752e-6,-5.5777352e-6)">
      <path
         inkscape:connector-curvature="0"
         d="m 16.126032,289.34056 q 0.329179,-0.0537 0.480333,-0.0537 0.236247,0 0.377324,0.11197 0.141077,0.11196 0.141077,0.28103 0,0.16907 -0.150034,0.3191 -0.148915,0.14892 -0.375085,0.23401 -0.02799,0.0112 -0.02799,0.0235 0,0.019 0.23065,0.19818 0.231768,0.17803 0.425469,0.29783 0.05486,0.0336 0.05486,0.0884 0,0.0358 -0.03807,0.0717 -0.03695,0.0347 -0.06942,0.0347 -0.06606,0 -0.211615,-0.10973 -0.144436,-0.10972 -0.300068,-0.24184 -0.337016,-0.28327 -0.376204,-0.28551 -0.07614,-0.002 -0.107487,-0.0213 -0.03135,-0.019 -0.03135,-0.0683 0,-0.0425 0.04031,-0.0739 0.04031,-0.0325 0.09517,-0.0325 0.01903,0 0.06046,0.006 0.04143,0.007 0.06158,0.007 0.08957,0 0.305667,-0.13324 0.217213,-0.13324 0.217213,-0.3135 0,-0.0952 -0.09741,-0.16347 -0.09629,-0.0683 -0.246325,-0.0683 -0.111965,0 -0.223931,0.0157 -0.111965,0.0157 -0.143316,0.0269 -0.03023,0.0112 -0.04926,0.0582 -0.01903,0.0459 -0.06382,0.29559 -0.04479,0.24968 -0.07054,0.47137 -0.02463,0.2217 -0.02463,0.32582 0,0.0806 0.0112,0.13996 0.01008,0.0593 0.01008,0.0952 0,0.0336 -0.03583,0.0694 -0.03471,0.0358 -0.07614,0.0358 -0.117564,0 -0.117564,-0.19034 0,-0.44898 0.157872,-1.19467 0.0078,-0.0392 0.0078,-0.0459 0,-0.007 -0.0078,-0.0202 -0.04479,-0.0705 -0.04479,-0.0941 0,-0.0425 0.04143,-0.0739 0.04143,-0.0313 0.07502,-0.0313 z"
         style="font-style:normal;font-variant:normal;font-weight:normal;font-stretch:normal;font-size:2.29305553px;font-family:'Segoe Print';-inkscape-font-specification:'Segoe Print, Normal';font-variant-ligatures:normal;font-variant-caps:normal;font-variant-numeric:normal;font-feature-settings:normal;text-align:start;writing-mode:lr-tb;text-anchor:start;fill:#ffffff;stroke-width:0.26458335px"
         id="path12058" />
    </g>
    <g
       aria-label="In"
       style="font-style:normal;font-variant:normal;font-weight:normal;font-stretch:normal;font-size:2.82222223px;line-height:125%;font-family:'Segoe Print';-inkscape-font-specification:'Segoe Print, Normal';font-variant-ligatures:normal;font-variant-caps:normal;font-variant-numeric:normal;font-feature-settings:normal;text-align:start;letter-spacing:0px;word-spacing:0px;writing-mode:lr-tb;text-anchor:start;fill:#ffffff;fill-opacity:1;stroke:none;stroke-width:0.26458335px;stroke-linecap:butt;stroke-linejoin:miter;stroke-opacity:1"
       id="text10021"
       transform="translate(3.0180752e-6,-5.5777352e-6)">
      <path
         inkscape:connector-curvature="0"
         d="m 11.197787,289.29174 q -0.0083,0.0537 -0.09233,0.38448 -0.03996,0.15572 -0.05237,0.26182 -0.0083,0.0717 -0.02067,0.15572 -0.05512,0.35278 -0.05512,0.48232 0,0.1943 0.02343,0.38171 0.01378,0.10887 -0.03859,0.1571 -0.05237,0.0482 -0.104731,0.0482 -0.07441,0 -0.103353,-0.0827 -0.02894,-0.0841 -0.02894,-0.2701 0,-0.1943 0.05512,-0.53743 0.01929,-0.12954 0.02205,-0.15572 0.0028,-0.0469 0.01103,-0.0965 0.0069,-0.0482 0.01102,-0.0965 0.0083,-0.12815 0.04961,-0.33486 0.03032,-0.15572 0.0441,-0.27423 0.0096,-0.0827 0.02205,-0.11162 0.0124,-0.0289 0.06339,-0.0634 0.05236,-0.0344 0.07855,-0.0344 0.05788,0 0.08682,0.0565 0.02894,0.0551 0.02894,0.12953 z"
         id="path12053" />
      <path
         inkscape:connector-curvature="0"
         d="m 12.471095,290.05793 q -0.07166,0 -0.157097,0.0937 -0.08406,0.0937 -0.257693,0.4203 -0.228754,0.43822 -0.296278,0.49885 -0.06615,0.0606 -0.110243,0.0606 -0.162609,0 -0.162609,-0.1571 0,-0.0661 0.02205,-0.18741 0.07579,-0.41617 0.07579,-0.87781 0,-0.0524 0.0441,-0.11576 0.04548,-0.0648 0.08544,-0.0648 0.07166,0 0.101975,0.0441 0.03032,0.0441 0.03032,0.17777 0,0.13918 -0.08268,0.57326 -0.02756,0.14332 -0.02756,0.1819 0,0.0221 0.01103,0.0221 0.02067,0 0.191547,-0.32935 0.172255,-0.33486 0.30179,-0.47129 0.129536,-0.13643 0.285254,-0.13643 0.124024,0 0.201194,0.113 0.07855,0.113 0.114377,0.41204 0.03858,0.34037 0.0689,0.42443 0.0317,0.0827 0.09922,0.0827 0.04272,0 0.107487,-0.0303 0.01102,-0.006 0.01654,-0.006 0.05926,0 0.05926,0.0689 0,0.0606 -0.08131,0.12953 -0.0813,0.0675 -0.195681,0.0675 -0.117133,0 -0.181901,-0.0923 -0.06339,-0.0937 -0.100597,-0.49747 -0.03859,-0.40515 -0.162608,-0.40515 z"
         id="path12055" />
    </g>
    <g
       aria-label="-"
       style="font-style:normal;font-variant:normal;font-weight:normal;font-stretch:normal;font-size:1.41111112px;line-height:125%;font-family:'Segoe Print';-inkscape-font-specification:'Segoe Print, Normal';font-variant-ligatures:normal;font-variant-caps:normal;font-variant-numeric:normal;font-feature-settings:normal;text-align:start;letter-spacing:0px;word-spacing:0px;writing-mode:lr-tb;text-anchor:start;fill:#ffffff;fill-opacity:1;stroke:none;stroke-width:0.26458335px;stroke-linecap:butt;stroke-linejoin:miter;stroke-opacity:1"
       id="text10039"
       transform="translate(3.0180752e-6,-5.5777352e-6)">
      <path
         inkscape:connector-curvature="0"
         d="m 13.809565,290.20236 h 0.0503 q 0.128158,0 0.190859,-0.009 0.03032,-0.004 0.06063,-0.004 0.01309,0 0.05306,0.0158 0.04065,0.0159 0.04823,0.0269 0.0076,0.0103 0.0076,0.0283 0,0.0255 -0.01033,0.0358 -0.01033,0.0103 -0.04479,0.0103 -0.01516,0 -0.04272,-0.009 -0.02756,-0.009 -0.04617,-0.009 -0.0076,0 -0.0503,0.003 -0.02274,0.002 -0.08268,-0.003 -0.04617,-0.004 -0.0689,-0.004 -0.03169,0 -0.09577,0.004 -0.06408,0.004 -0.09715,0.004 -0.03307,0 -0.05374,-0.007 -0.01998,-0.008 -0.01998,-0.0331 0,-0.011 0.009,-0.0255 0.0096,-0.0152 0.06339,-0.0234 0.05374,-0.009 0.07717,-0.009 z"
         style="font-style:normal;font-variant:normal;font-weight:normal;font-stretch:normal;font-size:1.41111112px;font-family:'Segoe Print';-inkscape-font-specification:'Segoe Print, Normal';font-variant-ligatures:normal;font-variant-caps:normal;font-variant-numeric:normal;font-feature-settings:normal;text-align:start;writing-mode:lr-tb;text-anchor:start;fill:#ffffff;stroke-width:0.26458335px"
         id="path12050" />
    </g>
    <g
       aria-label="-"
       style="font-style:normal;font-variant:normal;font-weight:normal;font-stretch:normal;font-size:1.41111112px;line-height:125%;font-family:'Segoe Print';-inkscape-font-specification:'Segoe Print, Normal';font-variant-ligatures:normal;font-variant-caps:normal;font-variant-numeric:normal;font-feature-settings:normal;text-align:start;letter-spacing:0px;word-spacing:0px;writing-mode:lr-tb;text-anchor:start;fill:#ffffff;fill-opacity:1;stroke:none;stroke-width:0.26458335px;stroke-linecap:butt;stroke-linejoin:miter;stroke-opacity:1"
       id="text10043"
       transform="translate(3.0180752e-6,-5.5777352e-6)">
      <path
         inkscape:connector-curvature="0"
         d="m 9.7053073,290.20236 h 0.050298 q 0.1281576,0 0.1908583,-0.009 0.030317,-0.004 0.060634,-0.004 0.01309,0 0.05305,0.0158 0.04065,0.0159 0.04823,0.0269 0.0076,0.0103 0.0076,0.0283 0,0.0255 -0.01034,0.0358 -0.01033,0.0103 -0.04479,0.0103 -0.01516,0 -0.04272,-0.009 -0.027561,-0.009 -0.046164,-0.009 -0.00758,0 -0.050298,0.003 -0.022738,0.002 -0.082682,-0.003 -0.046164,-0.004 -0.068902,-0.004 -0.031695,0 -0.095774,0.004 -0.064079,0.004 -0.097152,0.004 -0.033073,0 -0.053744,-0.007 -0.019982,-0.008 -0.019982,-0.0331 0,-0.011 0.00896,-0.0255 0.00965,-0.0152 0.06339,-0.0234 0.053743,-0.009 0.07717,-0.009 z"
         style="font-style:normal;font-variant:normal;font-weight:normal;font-stretch:normal;font-size:1.41111112px;font-family:'Segoe Print';-inkscape-font-specification:'Segoe Print, Normal';font-variant-ligatures:normal;font-variant-caps:normal;font-variant-numeric:normal;font-feature-settings:normal;text-align:start;writing-mode:lr-tb;text-anchor:start;fill:#ffffff;stroke-width:0.26458335px"
         id="path12047" />
    </g>
    <g
       aria-label="L"
       style="font-style:normal;font-variant:normal;font-weight:normal;font-stretch:normal;font-size:2.29305553px;line-height:125%;font-family:'Segoe Print';-inkscape-font-specification:'Segoe Print, Normal';font-variant-ligatures:normal;font-variant-caps:normal;font-variant-numeric:normal;font-feature-settings:normal;text-align:start;letter-spacing:0px;word-spacing:0px;writing-mode:lr-tb;text-anchor:start;fill:#ffffff;fill-opacity:1;stroke:none;stroke-width:0.26458335px;stroke-linecap:butt;stroke-linejoin:miter;stroke-opacity:1"
       id="text10061"
       transform="translate(3.0180752e-6,-5.5777352e-6)">
      <path
         inkscape:connector-curvature="0"
         d="m 6.6392826,210.99467 q 0,-0.0224 0.03359,-0.2732 0.03359,-0.25192 0.06382,-0.58446 0.030231,-0.33366 0.038068,-0.37285 0.00896,-0.0392 0.035829,-0.0638 0.027991,-0.0246 0.086213,-0.0246 0.036949,0 0.06606,0.0314 0.029111,0.0313 0.029111,0.0683 0,0.0481 -0.020154,0.15675 -0.029111,0.14892 -0.085094,0.60462 -0.054863,0.4557 -0.054863,0.51616 0,0.0392 0.011197,0.0537 0.012316,0.0134 0.044786,0.0134 0.052624,0 0.2485636,-0.0325 0.1209229,-0.019 0.4568197,-0.037 0.060461,-0.002 0.1489142,-0.0257 0.016795,-0.004 0.024633,-0.004 0.042547,0 0.067179,0.028 0.024633,0.028 0.024633,0.0672 0,0.0638 -0.049265,0.10189 -0.049265,0.037 -0.1097263,0.037 -0.023513,0 -0.092931,-0.007 -0.070538,-0.006 -0.1052477,-0.006 -0.3650079,0 -0.7042637,0.11421 -0.057102,0.019 -0.1030083,0.019 -0.050384,0 -0.078376,-0.0437 -0.026872,-0.0437 -0.026872,-0.0851 0,-0.0246 0.021274,-0.10749 0.023513,-0.0974 0.029111,-0.14443 z"
         style="font-style:normal;font-variant:normal;font-weight:normal;font-stretch:normal;font-size:2.29305553px;font-family:'Segoe Print';-inkscape-font-specification:'Segoe Print, Normal';font-variant-ligatures:normal;font-variant-caps:normal;font-variant-numeric:normal;font-feature-settings:normal;text-align:start;writing-mode:lr-tb;text-anchor:start;fill:#ffffff;stroke-width:0.26458335px"
         id="path12106" />
    </g>
    <g
       aria-label="R"
       style="font-style:normal;font-variant:normal;font-weight:normal;font-stretch:normal;font-size:2.29305553px;line-height:125%;font-family:'Segoe Print';-inkscape-font-specification:'Segoe Print, Normal';font-variant-ligatures:normal;font-variant-caps:normal;font-variant-numeric:normal;font-feature-settings:normal;text-align:start;letter-spacing:0px;word-spacing:0px;writing-mode:lr-tb;text-anchor:start;fill:#ffffff;fill-opacity:1;stroke:none;stroke-width:0.26458335px;stroke-linecap:butt;stroke-linejoin:miter;stroke-opacity:1"
       id="text10065"
       transform="translate(3.0180752e-6,-5.5777352e-6)">
      <path
         inkscape:connector-curvature="0"
         d="m 16.126032,209.73169 q 0.329179,-0.0537 0.480333,-0.0537 0.236247,0 0.377324,0.11196 0.141077,0.11197 0.141077,0.28104 0,0.16907 -0.150034,0.3191 -0.148915,0.14891 -0.375085,0.23401 -0.02799,0.0112 -0.02799,0.0235 0,0.019 0.23065,0.19818 0.231768,0.17803 0.425469,0.29783 0.05486,0.0336 0.05486,0.0885 0,0.0358 -0.03807,0.0717 -0.03695,0.0347 -0.06942,0.0347 -0.06606,0 -0.211615,-0.10973 -0.144436,-0.10972 -0.300068,-0.24184 -0.337016,-0.28328 -0.376204,-0.28552 -0.07614,-0.002 -0.107487,-0.0213 -0.03135,-0.019 -0.03135,-0.0683 0,-0.0425 0.04031,-0.0739 0.04031,-0.0325 0.09517,-0.0325 0.01903,0 0.06046,0.006 0.04143,0.007 0.06158,0.007 0.08957,0 0.305667,-0.13324 0.217213,-0.13324 0.217213,-0.3135 0,-0.0952 -0.09741,-0.16347 -0.09629,-0.0683 -0.246325,-0.0683 -0.111965,0 -0.223931,0.0157 -0.111965,0.0157 -0.143316,0.0269 -0.03023,0.0112 -0.04926,0.0582 -0.01903,0.0459 -0.06382,0.29559 -0.04479,0.24968 -0.07054,0.47137 -0.02463,0.22169 -0.02463,0.32582 0,0.0806 0.0112,0.13996 0.01008,0.0593 0.01008,0.0952 0,0.0336 -0.03583,0.0694 -0.03471,0.0358 -0.07614,0.0358 -0.117564,0 -0.117564,-0.19034 0,-0.44899 0.157872,-1.19468 0.0078,-0.0392 0.0078,-0.0459 0,-0.007 -0.0078,-0.0202 -0.04479,-0.0705 -0.04479,-0.0941 0,-0.0425 0.04143,-0.0739 0.04143,-0.0314 0.07502,-0.0314 z"
         style="font-style:normal;font-variant:normal;font-weight:normal;font-stretch:normal;font-size:2.29305553px;font-family:'Segoe Print';-inkscape-font-specification:'Segoe Print, Normal';font-variant-ligatures:normal;font-variant-caps:normal;font-variant-numeric:normal;font-feature-settings:normal;text-align:start;writing-mode:lr-tb;text-anchor:start;fill:#ffffff;stroke-width:0.26458335px"
         id="path12103" />
    </g>
    <g
       aria-label="-"
       style="font-style:normal;font-variant:normal;font-weight:normal;font-stretch:normal;font-size:1.41111112px;line-height:125%;font-family:'Segoe Print';-inkscape-font-specification:'Segoe Print, Normal';font-variant-ligatures:normal;font-variant-caps:normal;font-variant-numeric:normal;font-feature-settings:normal;text-align:start;letter-spacing:0px;word-spacing:0px;writing-mode:lr-tb;text-anchor:start;fill:#ffffff;fill-opacity:1;stroke:none;stroke-width:0.26458335px;stroke-linecap:butt;stroke-linejoin:miter;stroke-opacity:1"
       id="text10111"
       transform="translate(3.0180752e-6,-5.5777352e-6)">
      <path
         inkscape:connector-curvature="0"
         d="m 14.900971,210.44032 h 0.0503 q 0.128158,0 0.190858,-0.009 0.03032,-0.004 0.06063,-0.004 0.01309,0 0.05305,0.0158 0.04065,0.0159 0.04823,0.0269 0.0076,0.0103 0.0076,0.0282 0,0.0255 -0.01033,0.0358 -0.01034,0.0103 -0.04479,0.0103 -0.01516,0 -0.04272,-0.009 -0.02756,-0.009 -0.04616,-0.009 -0.0076,0 -0.0503,0.003 -0.02274,0.002 -0.08268,-0.003 -0.04616,-0.004 -0.0689,-0.004 -0.03169,0 -0.09577,0.004 -0.06408,0.004 -0.09715,0.004 -0.03307,0 -0.05374,-0.007 -0.01998,-0.008 -0.01998,-0.0331 0,-0.011 0.009,-0.0255 0.0096,-0.0152 0.06339,-0.0234 0.05374,-0.009 0.07717,-0.009 z"
         style="font-style:normal;font-variant:normal;font-weight:normal;font-stretch:normal;font-size:1.41111112px;font-family:'Segoe Print';-inkscape-font-specification:'Segoe Print, Normal';font-variant-ligatures:normal;font-variant-caps:normal;font-variant-numeric:normal;font-feature-settings:normal;text-align:start;writing-mode:lr-tb;text-anchor:start;fill:#ffffff;stroke-width:0.26458335px"
         id="path12100" />
    </g>
    <g
       aria-label="-"
       style="font-style:normal;font-variant:normal;font-weight:normal;font-stretch:normal;font-size:1.41111112px;line-height:125%;font-family:'Segoe Print';-inkscape-font-specification:'Segoe Print, Normal';font-variant-ligatures:normal;font-variant-caps:normal;font-variant-numeric:normal;font-feature-settings:normal;text-align:start;letter-spacing:0px;word-spacing:0px;writing-mode:lr-tb;text-anchor:start;fill:#ffffff;fill-opacity:1;stroke:none;stroke-width:0.26458335px;stroke-linecap:butt;stroke-linejoin:miter;stroke-opacity:1"
       id="text10115"
       transform="translate(3.0180752e-6,-5.5777352e-6)">
      <path
         inkscape:connector-curvature="0"
         d="m 8.6139015,210.44032 h 0.050298 q 0.1281575,0 0.1908582,-0.009 0.030317,-0.004 0.060634,-0.004 0.013091,0 0.053055,0.0158 0.040652,0.0159 0.048231,0.0269 0.00758,0.0103 0.00758,0.0282 0,0.0255 -0.010335,0.0358 -0.010335,0.0103 -0.044786,0.0103 -0.015158,0 -0.042719,-0.009 -0.027561,-0.009 -0.046164,-0.009 -0.00758,0 -0.050298,0.003 -0.022738,0.002 -0.082682,-0.003 -0.046164,-0.004 -0.068902,-0.004 -0.031695,0 -0.095774,0.004 -0.064079,0.004 -0.097152,0.004 -0.033073,0 -0.053743,-0.007 -0.019982,-0.008 -0.019982,-0.0331 0,-0.011 0.00896,-0.0255 0.00965,-0.0152 0.06339,-0.0234 0.053743,-0.009 0.07717,-0.009 z"
         style="font-style:normal;font-variant:normal;font-weight:normal;font-stretch:normal;font-size:1.41111112px;font-family:'Segoe Print';-inkscape-font-specification:'Segoe Print, Normal';font-variant-ligatures:normal;font-variant-caps:normal;font-variant-numeric:normal;font-feature-settings:normal;text-align:start;writing-mode:lr-tb;text-anchor:start;fill:#ffffff;stroke-width:0.26458335px"
         id="path12097" />
    </g>
    <g
       id="g3808"
       transform="translate(9.9411481,1.2763927)">
      <g
         transform="translate(13.880754,-5.1449385)"
         id="g9945">
        <circle
           id="circle9935"
           style="opacity:0.93269228;fill:#000000;fill-opacity:1;stroke-width:0.18519956"
           cx="15.606541"
           cy="206.32329"
           r="0.77157927" />
        <circle
           r="0.50263929"
           cy="206.32329"
           cx="15.606541"
           style="opacity:0.93269228;fill:#ffffff;fill-opacity:1;stroke-width:0.12064681"
           id="circle9937" />
        <circle
           id="circle9939"
           style="opacity:0.93269228;fill:#4d4d4d;fill-opacity:1;stroke-width:0.08556379"
           cx="15.606541"
           cy="206.32329"
           r="0.35647628" />
        <circle
           r="0.21615978"
           cy="206.32329"
           cx="15.606541"
           style="opacity:0.93269228;fill:#000000;fill-opacity:1;stroke-width:0.05188409"
           id="circle9941" />
        <circle
           id="circle9943"
           style="opacity:0.93269228;fill:#ffffff;fill-opacity:1;stroke-width:0.00450189"
           cx="15.606541"
           cy="206.32329"
           r="0.018755801" />
      </g>
      <g
         transform="translate(13.880754,74.526746)"
         id="g9993">
        <circle
           id="circle9983"
           style="opacity:0.93269228;fill:#000000;fill-opacity:1;stroke-width:0.18519956"
           cx="15.606541"
           cy="206.32329"
           r="0.77157927" />
        <circle
           r="0.50263929"
           cy="206.32329"
           cx="15.606541"
           style="opacity:0.93269228;fill:#ffffff;fill-opacity:1;stroke-width:0.12064681"
           id="circle9985" />
        <circle
           id="circle9987"
           style="opacity:0.93269228;fill:#4d4d4d;fill-opacity:1;stroke-width:0.08556379"
           cx="15.606541"
           cy="206.32329"
           r="0.35647628" />
        <circle
           r="0.21615978"
           cy="206.32329"
           cx="15.606541"
           style="opacity:0.93269228;fill:#000000;fill-opacity:1;stroke-width:0.05188409"
           id="circle9989" />
        <circle
           id="circle9991"
           style="opacity:0.93269228;fill:#ffffff;fill-opacity:1;stroke-width:0.00450189"
           cx="15.606541"
           cy="206.32329"
           r="0.018755801" />
      </g>
    </g>
    <g
       id="g3794"
       transform="translate(-8.6953359,1.2763927)">
      <g
         transform="translate(23.198996,-5.1449385)"
         id="g9933">
        <circle
           r="0.77157927"
           cy="206.32329"
           cx="15.606541"
           style="opacity:0.93269228;fill:#000000;fill-opacity:1;stroke-width:0.18519956"
           id="circle5998" />
        <circle
           id="circle9920"
           style="opacity:0.93269228;fill:#ffffff;fill-opacity:1;stroke-width:0.12064681"
           cx="15.606541"
           cy="206.32329"
           r="0.50263929" />
        <circle
           r="0.35647628"
           cy="206.32329"
           cx="15.606541"
           style="opacity:0.93269228;fill:#4d4d4d;fill-opacity:1;stroke-width:0.08556379"
           id="circle9922" />
        <circle
           id="circle9924"
           style="opacity:0.93269228;fill:#000000;fill-opacity:1;stroke-width:0.05188409"
           cx="15.606541"
           cy="206.32329"
           r="0.21615978" />
        <circle
           r="0.018755801"
           cy="206.32329"
           cx="15.606541"
           style="opacity:0.93269228;fill:#ffffff;fill-opacity:1;stroke-width:0.00450189"
           id="circle9926" />
      </g>
      <g
         id="g9981"
         transform="translate(23.198996,74.526746)">
        <circle
           r="0.77157927"
           cy="206.32329"
           cx="15.606541"
           style="opacity:0.93269228;fill:#000000;fill-opacity:1;stroke-width:0.18519956"
           id="circle9971" />
        <circle
           id="circle9973"
           style="opacity:0.93269228;fill:#ffffff;fill-opacity:1;stroke-width:0.12064681"
           cx="15.606541"
           cy="206.32329"
           r="0.50263929" />
        <circle
           r="0.35647628"
           cy="206.32329"
           cx="15.606541"
           style="opacity:0.93269228;fill:#4d4d4d;fill-opacity:1;stroke-width:0.08556379"
           id="circle9975" />
        <circle
           id="circle9977"
           style="opacity:0.93269228;fill:#000000;fill-opacity:1;stroke-width:0.05188409"
           cx="15.606541"
           cy="206.32329"
           r="0.21615978" />
        <circle
           r="0.018755801"
           cy="206.32329"
           cx="15.606541"
           style="opacity:0.93269228;fill:#ffffff;fill-opacity:1;stroke-width:0.00450189"
           id="circle9979" />
      </g>
    </g>
    <path
       inkscape:connector-curvature="0"
       style="opacity:0.93269228;fill:#ffffff;fill-opacity:1;stroke-width:0.39427948"
       d="m 6.4929638,267.28864 0.2710284,-0.27114 0.8624819,0.86249 -0.2710788,0.27104 z"
       id="path1016" />
    <path
       inkscape:connector-curvature="0"
       style="opacity:0.93269228;fill:#ffffff;fill-opacity:1;stroke-width:0.40901232"
       d="m 6.444077,268.9735 a 0.55600115,0.55600115 0 0 1 -0.5560004,0.556 0.55600115,0.55600115 0 0 1 -0.5560004,-0.556 0.55600115,0.55600115 0 0 1 0.5560004,-0.556 0.55600115,0.55600115 0 0 1 0.5560004,0.556 z"
       id="path1018" />
    <path
       id="path1020"
       d="m 4.6466621,270.68983 0.099147,-0.37033 1.1781775,0.3157 -0.099242,0.37026 z"
       style="opacity:0.93269228;fill:#ffffff;fill-opacity:1;stroke-width:0.39427948"
       inkscape:connector-curvature="0" />
    <path
       id="path1022"
       d="m 5.5444012,272.44352 a 0.55600115,0.55600115 0 0 1 -0.5560004,0.556 0.55600115,0.55600115 0 0 1 -0.5560004,-0.556 0.55600115,0.55600115 0 0 1 0.5560004,-0.556 0.55600115,0.55600115 0 0 1 0.5560004,0.556 z"
       style="opacity:0.93269228;fill:#ffffff;fill-opacity:1;stroke-width:0.40901232"
       inkscape:connector-curvature="0" />
    <path
       inkscape:connector-curvature="0"
       style="opacity:0.93269228;fill:#ffffff;fill-opacity:1;stroke-width:0.39427948"
       d="m 4.7347736,274.56554 -0.099303,-0.37029 1.1781821,-0.31568 0.099184,0.37027 z"
       id="path1024" />
    <path
       inkscape:connector-curvature="0"
       style="opacity:0.93269228;fill:#ffffff;fill-opacity:1;stroke-width:0.40901232"
       d="m 6.4663444,275.92725 a 0.55600115,0.55600115 0 0 1 -0.5560004,0.556 0.55600115,0.55600115 0 0 1 -0.5560004,-0.556 0.55600115,0.55600115 0 0 1 0.5560004,-0.556 0.55600115,0.55600115 0 0 1 0.5560004,0.556 z"
       id="path1028" />
    <path
       id="path1026"
       d="m 6.7437498,277.84099 -0.2711437,-0.27103 0.8624955,-0.86247 0.2710328,0.27107 z"
       style="opacity:0.93269228;fill:#ffffff;fill-opacity:1;stroke-width:0.39427948"
       inkscape:connector-curvature="0" />
    <path
       id="path1030"
       d="m 8.9839846,278.41708 a 0.55600115,0.55600115 0 0 1 -0.5560004,0.556 0.55600115,0.55600115 0 0 1 -0.5560004,-0.556 0.55600115,0.55600115 0 0 1 0.5560004,-0.556 0.55600115,0.55600115 0 0 1 0.5560004,0.556 z"
       style="opacity:0.93269228;fill:#ffffff;fill-opacity:1;stroke-width:0.40901232"
       inkscape:connector-curvature="0" />
    <path
       inkscape:connector-curvature="0"
       style="opacity:0.93269228;fill:#ffffff;fill-opacity:1;stroke-width:0.39427948"
       d="m 17.29709,277.57692 -0.271105,0.27107 -0.862471,-0.86249 0.271047,-0.27104 z"
       id="path1032" />
    <path
       inkscape:connector-curvature="0"
       style="opacity:0.93269228;fill:#ffffff;fill-opacity:1;stroke-width:0.40901232"
       d="m 15.988117,278.40539 a 0.55600115,0.55600115 0 0 1 -0.556,0.556 0.55600115,0.55600115 0 0 1 -0.556001,-0.556 0.55600115,0.55600115 0 0 1 0.556001,-0.556 0.55600115,0.55600115 0 0 1 0.556,0.556 z"
       id="path1044" />
    <path
       id="path1046"
       d="m 18.40717,275.77671 a 0.55600115,0.55600115 0 0 1 -0.393152,0.68095 0.55600115,0.55600115 0 0 1 -0.680959,-0.39315 0.55600115,0.55600115 0 0 1 0.393153,-0.68095 0.55600115,0.55600115 0 0 1 0.680958,0.39315 z"
       style="opacity:0.93269228;fill:#ffffff;fill-opacity:1;stroke-width:0.40901232"
       inkscape:connector-curvature="0" />
    <path
       id="path1040"
       d="m 19.138186,274.17051 -0.09925,0.37031 -1.178166,-0.31571 0.09922,-0.37024 z"
       style="opacity:0.93269228;fill:#ffffff;fill-opacity:1;stroke-width:0.39427948"
       inkscape:connector-curvature="0" />
    <path
       inkscape:connector-curvature="0"
       style="opacity:0.93269228;fill:#ffffff;fill-opacity:1;stroke-width:0.40901232"
       d="m 19.352789,272.43317 a 0.55600115,0.55600115 0 0 1 -0.556,0.556 0.55600115,0.55600115 0 0 1 -0.556001,-0.556 0.55600115,0.55600115 0 0 1 0.556001,-0.556 0.55600115,0.55600115 0 0 1 0.556,0.556 z"
       id="path1048" />
    <path
       inkscape:connector-curvature="0"
       style="opacity:0.93269228;fill:#ffffff;fill-opacity:1;stroke-width:0.39427948"
       d="m 19.06234,270.31181 0.0992,0.37033 -1.178177,0.31567 -0.09919,-0.37025 z"
       id="path1054" />
    <path
       id="path1050"
       d="m 18.464119,268.98664 a 0.55600115,0.55600115 0 0 1 -0.556,0.556 0.55600115,0.55600115 0 0 1 -0.556001,-0.556 0.55600115,0.55600115 0 0 1 0.556001,-0.556 0.55600115,0.55600115 0 0 1 0.556,0.556 z"
       style="opacity:0.93269228;fill:#ffffff;fill-opacity:1;stroke-width:0.40901232"
       inkscape:connector-curvature="0" />
    <path
       id="path1056"
       d="m 17.026604,267.0303 0.271075,0.27111 -0.862498,0.86246 -0.271026,-0.27105 z"
       style="opacity:0.93269228;fill:#ffffff;fill-opacity:1;stroke-width:0.39427948"
       inkscape:connector-curvature="0" />
    <path
       inkscape:connector-curvature="0"
       style="opacity:0.93269228;fill:#ffffff;fill-opacity:1;stroke-width:0.40901232"
       d="m 15.89609,266.2995 a 0.55600115,0.55600115 0 0 1 -0.393152,0.68095 0.55600115,0.55600115 0 0 1 -0.680959,-0.39315 0.55600115,0.55600115 0 0 1 0.393153,-0.68095 0.55600115,0.55600115 0 0 1 0.680958,0.39315 z"
       id="path1052" />
    <path
       inkscape:connector-curvature="0"
       style="opacity:0.93269228;fill:#ffffff;fill-opacity:1;stroke-width:0.39427948"
       d="m 13.631252,265.17228 0.370316,0.0993 -0.315716,1.17817 -0.370243,-0.0992 z"
       id="path1058" />
    <g
       id="g1064"
       transform="rotate(-180,0.30416535,272.42379)">
      <path
         inkscape:connector-curvature="0"
         id="rect8303"
         d="m 11.886077,279.81681 0.0388,-0.14574 0.004,0.001 10e-7,-7.6848 c -2.5e-5,-0.0115 -0.009,-0.0207 -0.02071,-0.0207 l -0.06199,-4e-5 c -0.01151,2e-5 -0.02071,0.009 -0.02072,0.0207 l 1e-6,7.6848 0.005,-7.5e-4 0.0387,0.14575 z"
         style="opacity:1;fill:#373737;fill-opacity:1;fill-rule:evenodd;stroke:none;stroke-width:0.22598952;stroke-linecap:butt;stroke-linejoin:round;stroke-miterlimit:4;stroke-dasharray:none;stroke-dashoffset:0;stroke-opacity:1;paint-order:fill markers stroke" />
      <path
         id="path8301"
         d="m 11.063095,279.94781 0.725659,-7.683 0.188125,-1.2e-4 0.731616,7.67678 a 7.5649897,7.5408364 89.977372 0 0 6.715019,-7.51326 7.5649897,7.5408364 89.977372 0 0 -7.543559,-7.56199 7.5649897,7.5408364 89.977372 0 0 -7.5376889,7.56784 7.5649897,7.5408364 89.977372 0 0 6.7208449,7.51374 z"
         style="opacity:1;fill:#ffffff;fill-opacity:1;fill-rule:evenodd;stroke:none;stroke-width:0.08614217;stroke-linecap:butt;stroke-linejoin:round;stroke-miterlimit:4;stroke-dasharray:none;stroke-dashoffset:0;stroke-opacity:1;paint-order:fill markers stroke"
         inkscape:connector-curvature="0" />
    </g>
    <path
       inkscape:connector-curvature="0"
       style="opacity:1;fill:#ffffff;fill-opacity:1;fill-rule:evenodd;stroke:none;stroke-width:0.24908909;stroke-linecap:butt;stroke-linejoin:round;stroke-miterlimit:4;stroke-dasharray:none;stroke-dashoffset:0;stroke-opacity:1;paint-order:fill markers stroke"
       d="m 7.2718504,278.9702 1.2056554,0.70984 c 0.076915,0.0453 0.1023835,0.14372 0.057103,0.22063 l -2.22e-4,3.8e-4 c -0.045272,0.077 -0.1437087,0.1024 -0.2206267,0.0571 L 7.108107,279.24833 c -0.076915,-0.0453 -0.1023712,-0.1437 -0.05709,-0.22061 l 2.219e-4,-3.8e-4 c 0.045319,-0.0771 0.1437086,-0.1024 0.2206107,-0.0571 z"
       id="path1034" />
    <path
       id="path1036"
       d="m 15.332524,279.66771 1.199938,-0.71947 c 0.07654,-0.0459 0.17519,-0.0212 0.221075,0.0553 l 2.25e-4,3.8e-4 c 0.0459,0.0765 0.02122,0.17515 -0.05533,0.22108 l -1.199942,0.71946 c -0.07654,0.0459 -0.175179,0.0211 -0.221061,-0.0553 l -2.25e-4,-3.8e-4 c -0.04594,-0.0766 -0.02121,-0.17516 0.05532,-0.22106 z"
       style="opacity:1;fill:#ffffff;fill-opacity:1;fill-rule:evenodd;stroke:none;stroke-width:0.24908909;stroke-linecap:butt;stroke-linejoin:round;stroke-miterlimit:4;stroke-dasharray:none;stroke-dashoffset:0;stroke-opacity:1;paint-order:fill markers stroke"
       inkscape:connector-curvature="0" />
  </g>
</svg>
