<?xml version="1.0" encoding="UTF-8" standalone="no"?>
<!-- Created with Inkscape (http://www.inkscape.org/) -->

<svg
   xmlns:dc="http://purl.org/dc/elements/1.1/"
   xmlns:cc="http://creativecommons.org/ns#"
   xmlns:rdf="http://www.w3.org/1999/02/22-rdf-syntax-ns#"
   xmlns:svg="http://www.w3.org/2000/svg"
   xmlns="http://www.w3.org/2000/svg"
   xmlns:sodipodi="http://sodipodi.sourceforge.net/DTD/sodipodi-0.dtd"
   xmlns:inkscape="http://www.inkscape.org/namespaces/inkscape"
   width="60"
   height="60"
   viewBox="0 0 15.874999 15.874999"
   version="1.1"
   id="svg1538"
   inkscape:version="0.92.2 (5c3e80d, 2017-08-06)"
   sodipodi:docname="BarkKnob_60.svg">
  <defs
     id="defs1532" />
  <sodipodi:namedview
     id="base"
     pagecolor="#ffffff"
     bordercolor="#666666"
     borderopacity="1.0"
     inkscape:pageopacity="0.0"
     inkscape:pageshadow="2"
     inkscape:zoom="31.678384"
     inkscape:cx="25.116132"
     inkscape:cy="55.174042"
     inkscape:document-units="px"
     inkscape:current-layer="layer1"
     showgrid="false"
     inkscape:snap-global="false"
     units="px" />
  <metadata
     id="metadata1535">
    <rdf:RDF>
      <cc:Work
         rdf:about="">
        <dc:format>image/svg+xml</dc:format>
        <dc:type
           rdf:resource="http://purl.org/dc/dcmitype/StillImage" />
        <dc:title />
      </cc:Work>
    </rdf:RDF>
  </metadata>
  <g
     inkscape:label="Layer 1"
     inkscape:groupmode="layer"
     id="layer1"
     transform="translate(-89.95813,-160.17275)">
    <circle
       style="opacity:1;fill:#808080;fill-opacity:1;fill-rule:nonzero;stroke:none;stroke-width:0.07301022;stroke-linecap:butt;stroke-linejoin:miter;stroke-miterlimit:4;stroke-dasharray:none;stroke-dashoffset:0;stroke-opacity:1;paint-order:markers stroke fill"
       id="path1075"
       cx="97.89563"
       cy="168.11024"
       r="7.9375" />
    <path
       style="opacity:1;fill:#666666;fill-opacity:0.24338624;fill-rule:nonzero;stroke:none;stroke-width:0.68014479;stroke-linecap:butt;stroke-linejoin:miter;stroke-miterlimit:4;stroke-dasharray:none;stroke-dashoffset:0;stroke-opacity:1;paint-order:markers stroke fill"
       d="m 99.950559,160.44116 a 7.9375006,7.9375006 0 0 0 -0.02416,-0.006 c -0.537417,1.8224 -1.074898,3.6446 -1.471088,5.04991 0.233532,-1.18897 0.511753,-2.68973 0.796488,-4.23639 -0.350316,1.57721 -0.690812,3.11889 -0.941338,4.31876 0.178577,-1.4558 0.390555,-3.39484 0.601905,-5.32214 a 7.9375006,7.9375006 0 0 0 -0.0099,-10e-4 c -0.285603,1.86371 -0.570156,3.72378 -0.772727,5.16002 0.07091,-1.19315 0.143987,-2.68956 0.217529,-4.23504 -0.13289,1.57479 -0.260853,3.10858 -0.347445,4.31257 -0.0161,-1.46091 -0.06147,-3.38743 -0.106641,-5.30736 a 7.9375006,7.9375006 0 0 0 -0.01051,2.9e-4 c -0.03618,1.86334 -0.0716,3.71689 -0.08287,5.16108 -0.103959,-1.43823 -0.258697,-3.28293 -0.41447,-5.13788 a 7.9375006,7.9375006 0 0 0 -0.01164,0.001 c 0.07961,1.94571 0.159798,3.90674 0.238941,5.36768 -0.173088,-1.23305 -0.418375,-2.83692 -0.669575,-4.47033 0.181809,1.56634 0.359923,3.08358 0.514945,4.29568 -0.297521,-1.41574 -0.702064,-3.23536 -1.108615,-5.06304 a 7.9375006,7.9375006 0 0 0 -0.01691,0.003 c 0.335636,1.89801 0.671238,3.80282 0.94462,5.24381 -0.390924,-1.41207 -0.928944,-3.26621 -1.465559,-5.11457 a 7.9375006,7.9375006 0 0 0 -0.01392,0.005 c 0.448555,1.83768 0.897179,3.6713 1.259281,5.08176 -0.404634,-1.1745 -0.930503,-2.64963 -1.473236,-4.16647 0.5062,1.59942 1.004445,3.16785 1.403185,4.374 -0.546752,-1.28384 -1.28741,-2.96474 -2.032687,-4.65422 0.644943,1.63455 1.279389,3.23951 1.795637,4.50564 -0.652834,-1.29897 -1.504873,-2.94678 -2.361992,-4.60524 a 7.9375006,7.9375006 0 0 0 -0.0049,0.003 c 0.82287,1.7718 1.650427,3.55637 2.289558,4.88755 -0.719893,-1.22467 -1.693126,-2.83169 -2.667474,-4.44151 0.862986,1.56434 1.714352,3.10472 2.398697,4.31252 -0.734998,-1.08814 -1.671509,-2.44437 -2.632401,-3.83267 0.934443,1.46873 1.856491,2.91549 2.580693,4.02264 -0.826614,-1.05996 -1.918901,-2.42583 -3.025044,-3.80785 1.055472,1.4299 2.098639,2.84059 2.916906,3.92092 -0.944414,-1.05486 -2.19339,-2.4151 -3.448341,-3.78246 1.196773,1.41479 2.388332,2.82218 3.313248,3.88832 -1.04405,-1.02033 -2.433747,-2.34576 -3.820869,-3.66801 a 7.9375006,7.9375006 0 0 0 -0.0095,0.009 c 1.29935,1.35012 2.592596,2.69479 3.60929,3.72687 -1.09454,-0.94682 -2.517756,-2.15075 -3.948465,-3.35952 a 7.9375006,7.9375006 0 0 0 -0.0057,0.006 c 1.430411,1.31655 2.868991,2.64154 3.960436,3.62034 -0.986898,-0.74567 -2.274427,-1.69448 -3.590342,-2.66252 1.216988,0.96627 2.39614,1.89972 3.348203,2.63775 -1.204441,-0.78814 -2.767857,-1.7862 -4.339765,-2.78866 1.567998,1.09353 3.136224,2.18734 4.347686,3.01068 -1.17806,-0.66845 -2.702991,-1.51065 -4.251193,-2.36451 1.530321,0.92389 3.043471,1.83591 4.215052,2.52336 -1.326257,-0.63774 -3.087159,-1.45665 -4.839945,-2.27271 a 7.9375006,7.9375006 0 0 0 -0.0042,0.009 c 1.679599,0.8721 3.355928,1.74321 4.66029,2.40109 -1.350548,-0.55002 -3.105241,-1.24101 -4.865019,-1.93353 a 7.9375006,7.9375006 0 0 0 -7.76e-4,0.003 c 1.780418,0.78792 3.571157,1.58207 4.925313,2.16074 -1.297052,-0.4303 -3.005497,-0.97419 -4.729047,-1.52154 1.670429,0.60334 3.3183,1.19818 4.600077,1.64348 -1.342057,-0.34718 -3.084838,-0.77503 -4.844713,-1.20668 1.741034,0.50161 3.465633,0.99804 4.802202,1.36533 -1.338255,-0.25267 -3.070447,-0.55932 -4.826149,-0.86864 1.747902,0.3789 3.474654,0.75182 4.810932,1.02426 -1.455321,-0.17466 -3.36822,-0.38062 -5.277469,-0.58593 a 7.9375006,7.9375006 0 0 0 -0.0012,0.005 c 1.866511,0.28031 3.727644,0.55937 5.170957,0.75882 -1.455982,-0.0839 -3.336765,-0.17077 -5.221887,-0.25726 a 7.9375006,7.9375006 0 0 0 -4.16e-4,0.004 c 1.936987,0.17065 3.886486,0.34303 5.356223,0.45373 -1.356179,0.0105 -3.130199,0.048 -4.922112,0.0855 1.736892,0.0315 3.440834,0.0602 4.782068,0.0688 -1.347655,0.0988 -3.060477,0.24381 -4.804491,0.39227 1.75038,-0.0801 3.473493,-0.15975 4.813545,-0.23738 -1.43162,0.20079 -3.292087,0.48465 -5.155861,0.76917 1.905929,-0.21081 3.81813,-0.42171 5.263008,-0.60001 -1.430651,0.29884 -3.318631,0.71838 -5.199639,1.13622 a 7.9375006,7.9375006 0 0 0 0.0011,0.005 c 1.82183,-0.3254 3.629435,-0.6483 5.044791,-0.91769 -1.388541,0.37944 -3.150907,0.88196 -4.927119,1.38899 1.878914,-0.45321 3.766725,-0.9081 5.18647,-1.26974 -1.260712,0.43553 -2.895403,1.02243 -4.551156,1.61813 1.648071,-0.5216 3.264557,-1.03491 4.527289,-1.45119 -1.169604,0.49281 -2.643295,1.13238 -4.154308,1.79028 1.552234,-0.60737 3.071709,-1.20377 4.247795,-1.68096 -1.286937,0.65065 -2.968681,1.5276 -4.649361,2.40393 1.691578,-0.79536 3.375936,-1.58847 4.670459,-2.21612 -1.259196,0.74123 -2.883682,1.72404 -4.510068,2.70768 a 7.9375006,7.9375006 0 0 0 0.0067,0.0105 c 1.712905,-0.93754 3.439096,-1.8814 4.721754,-2.60521 -1.205073,0.82075 -2.796196,1.93506 -4.379402,3.04363 1.578168,-1.01071 3.149391,-2.01615 4.3578,-2.81026 -1.14483,0.89091 -2.610859,2.05894 -4.08248,3.23232 1.523056,-1.11557 3.041869,-2.22837 4.200758,-3.09872 -0.850882,0.75359 -1.900032,1.70214 -2.987279,2.68799 1.128754,-0.95321 2.21682,-1.87559 3.078477,-2.62103 -1.024249,1.04337 -2.346237,2.42384 -3.667137,3.80265 a 7.9375006,7.9375006 0 0 0 0.01561,0.0166 c 1.39207,-1.32873 2.790805,-2.66283 3.834564,-3.68475 -0.912146,1.05639 -2.091724,2.45825 -3.277695,3.86766 1.215217,-1.33227 2.413634,-2.64711 3.342192,-3.68908 -0.778482,1.02732 -1.742835,2.32863 -2.731451,3.66495 1.080314,-1.3497 2.144734,-2.68172 2.945612,-3.70949 -0.804223,1.23401 -1.858099,2.89904 -2.903527,4.54974 a 7.9375006,7.9375006 0 0 0 0.01232,0.007 c 1.075367,-1.54392 2.148699,-3.08457 2.963179,-4.28419 -0.714259,1.26013 -1.620971,2.90413 -2.529593,4.55283 a 7.9375006,7.9375006 0 0 0 0.0033,0.003 c 1.003992,-1.65384 2.012659,-3.31406 2.760211,-4.58093 -0.55129,1.13937 -1.242735,2.61125 -1.948017,4.11644 0.73316,-1.42416 1.442815,-2.8076 1.996911,-3.91556 -0.542464,1.34373 -1.221319,3.08409 -1.902484,4.83 a 7.9375006,7.9375006 0 0 0 0.0043,0.001 c 0.787754,-1.79118 1.582113,-3.5964 2.161334,-4.96047 -0.38565,1.17293 -0.864704,2.68989 -1.35333,4.24208 0.526904,-1.48154 1.036318,-2.91897 1.428764,-4.06538 -0.360829,1.41923 -0.808276,3.27386 -1.256175,5.12837 a 7.9375006,7.9375006 0 0 0 0.02432,0.008 7.9375006,7.9375006 0 0 0 0.0075,0.001 c 0.542072,-1.86405 1.086969,-3.73547 1.481952,-5.15936 -0.227588,1.19396 -0.499976,2.7177 -0.778467,4.28297 0.326296,-1.51208 0.639734,-2.97432 0.879069,-4.14927 -0.17681,1.45215 -0.38357,3.33069 -0.59049,5.21365 a 7.9375006,7.9375006 0 0 0 0.0077,10e-4 c 0.285536,-1.8635 0.570856,-3.72333 0.773475,-5.15981 -0.07216,1.21182 -0.146811,2.73642 -0.221759,4.30773 0.13737,-1.62057 0.270259,-3.20295 0.359526,-4.43853 0.01597,1.47584 0.0619,3.4259 0.107173,5.36528 a 7.9375006,7.9375006 0 0 0 0.0079,5.7e-4 c 0.03649,-1.87062 0.07282,-3.73337 0.08465,-5.18871 0.103127,1.44961 0.256129,3.30412 0.410194,5.16882 a 7.9375006,7.9375006 0 0 0 0.009,-6.9e-4 c -0.07827,-1.96623 -0.156927,-3.9518 -0.235125,-5.42685 0.171089,1.23234 0.414525,2.83647 0.663185,4.47021 -0.182221,-1.5894 -0.361299,-3.13503 -0.516024,-4.35455 0.302866,1.43864 0.720474,3.31175 1.13783,5.18162 a 7.9375006,7.9375006 0 0 0 0.0094,-0.001 c -0.333903,-1.86998 -0.667194,-3.74126 -0.941687,-5.18085 0.387212,1.40376 0.910879,3.21832 1.435848,5.03677 -0.449342,-1.83829 -0.898604,-3.67417 -1.260088,-5.07876 0.397466,1.14816 0.915261,2.59169 1.449727,4.0775 -0.493597,-1.54949 -0.977946,-3.06345 -1.3679,-4.23612 0.547271,1.27842 1.28641,2.94765 2.03053,4.62633 -0.65361,-1.6488 -1.298929,-3.27216 -1.81912,-4.5408 0.660164,1.30273 1.53039,2.97123 2.40234,4.64331 a 7.9375006,7.9375006 0 0 0 0.006,-0.003 c -0.81021,-1.7312 -1.621274,-3.46544 -2.259462,-4.78721 0.71335,1.2138 1.657092,2.7756 2.607912,4.34931 -0.90393,-1.64197 -1.80694,-3.282 -2.504408,-4.51098 0.831728,1.21499 1.963478,2.82164 3.086428,4.41737 a 7.9375006,7.9375006 0 0 0 0.0241,-0.0152 c -1.00604,-1.57727 -2.00748,-3.14538 -2.803433,-4.36239 0.730983,0.94525 1.646133,2.10514 2.596883,3.30633 -0.95174,-1.29711 -1.88004,-2.56041 -2.618869,-3.54174 0.945899,1.06212 2.200009,2.43681 3.459439,3.81592 -1.19296,-1.41736 -2.38018,-2.82714 -3.304254,-3.89793 1.051644,1.03383 2.450074,2.37519 3.843634,3.71184 a 7.9375006,7.9375006 0 0 0 0.005,-0.005 c -1.31308,-1.37125 -2.62465,-2.74105 -3.65076,-3.78774 0.95042,0.82545 2.15886,1.85157 3.40161,2.90565 -1.23922,-1.13388 -2.45692,-2.24622 -3.405432,-3.09205 1.118592,0.8406 2.607152,1.93038 4.101162,3.02328 -1.39577,-1.11009 -2.77437,-2.20517 -3.86156,-3.04896 1.2152,0.79519 2.79857,1.80502 4.38591,2.8171 a 7.9375006,7.9375006 0 0 0 0.006,-0.009 c -1.57308,-1.101 -3.14749,-2.20285 -4.36758,-3.03528 1.21148,0.69078 2.78032,1.56158 4.36704,2.44131 -1.5861,-0.9643 -3.16553,-1.92406 -4.37519,-2.63848 1.33884,0.64663 3.13245,1.48362 4.912,2.31526 a 7.9375006,7.9375006 0 0 0 0.003,-0.007 c -1.68585,-0.87654 -3.36839,-1.75086 -4.6802,-2.41366 1.09363,0.44724 2.4566,0.98827 3.86989,1.54734 -1.45115,-0.6357 -2.86691,-1.25435 -3.97524,-1.72322 1.30119,0.42614 3.01617,0.96399 4.7453,1.50584 -1.65888,-0.59219 -3.29227,-1.1738 -4.57275,-1.61369 1.42711,0.36455 3.28954,0.81683 5.15146,1.26884 a 7.9375006,7.9375006 0 0 0 0.002,-0.006 7.9375006,7.9375006 0 0 0 0.006,-0.0249 c -1.86875,-0.5453 -3.74721,-1.09365 -5.17387,-1.49069 1.33403,0.25512 3.07095,0.56561 4.82898,0.87905 -1.73681,-0.38043 -3.45118,-0.75488 -4.77927,-1.02863 1.44767,0.17661 3.3486,0.38445 5.24765,0.59238 -1.8389,-0.27873 -3.66589,-0.55555 -5.09636,-0.75567 1.19672,0.0718 2.68135,0.14655 4.21955,0.2214 -1.6201,-0.138 -3.20449,-0.27151 -4.4327,-0.36037 1.48943,-0.0171 3.47775,-0.0668 5.44833,-0.1146 a 7.9375006,7.9375006 0 0 0 6.6e-4,-0.0175 c -1.90887,-0.0377 -3.81701,-0.0759 -5.28981,-0.0876 1.24207,-0.0899 2.80283,-0.21932 4.40919,-0.35453 -1.59989,0.075 -3.15523,0.15002 -4.38666,0.22254 1.44471,-0.20371 3.31891,-0.49101 5.19362,-0.7783 a 7.9375006,7.9375006 0 0 0 -0.003,-0.0168 c -1.87165,0.20278 -3.73979,0.40486 -5.18424,0.57859 1.11512,-0.22611 2.493,-0.51895 3.92411,-0.82636 -1.53501,0.27318 -3.03298,0.54151 -4.19043,0.76303 1.42955,-0.40185 3.34644,-0.9688 5.24311,-1.52902 a 7.9375006,7.9375006 0 0 0 -6.8e-4,-0.003 c -1.84555,0.46221 -3.68885,0.92436 -5.10721,1.29741 1.38566,-0.48617 3.1723,-1.13745 4.96035,-1.78856 a 7.9375006,7.9375006 0 0 0 -0.006,-0.0154 c -1.81435,0.57191 -3.62753,1.14464 -5.02114,1.60214 0.99506,-0.41762 2.21475,-0.94292 3.48576,-1.49352 -1.30098,0.51177 -2.55117,1.00564 -3.55343,1.4136 1.30724,-0.66095 3.00799,-1.54752 4.70682,-2.43269 a 7.9375006,7.9375006 0 0 0 -0.007,-0.0157 c -1.75581,0.81921 -3.51969,1.64121 -4.84394,2.27958 1.26722,-0.74649 2.93285,-1.75615 4.59012,-2.76087 a 7.9375006,7.9375006 0 0 0 -0.007,-0.012 c -1.67487,0.91901 -3.35116,1.83885 -4.62393,2.55761 1.17662,-0.79784 2.69251,-1.85291 4.21511,-2.91272 -1.57185,1.00101 -3.13639,1.9982 -4.33209,2.78025 1.15033,-0.89383 2.6381,-2.07942 4.12666,-3.26544 -1.53224,1.12115 -3.06335,2.24204 -4.224896,3.11393 0.872886,-0.774 1.958846,-1.75791 3.079956,-2.77629 -1.15081,0.97251 -2.26204,1.91466 -3.140305,2.67507 1.020015,-1.04028 2.334725,-2.41454 3.649795,-3.78884 a 7.9375006,7.9375006 0 0 0 -0.008,-0.009 c -1.37784,1.32131 -2.7569,2.64522 -3.797047,3.66753 0.951957,-1.10269 2.180657,-2.5623 3.408497,-4.0204 -1.2729,1.39044 -2.54205,2.77612 -3.513963,3.86293 0.776833,-1.02231 1.740023,-2.32015 2.728033,-3.65221 -1.07535,1.33971 -2.13402,2.66097 -2.93179,3.68188 0.80223,-1.22817 1.85254,-2.88378 2.89466,-4.52562 a 7.9375006,7.9375006 0 0 0 -7.5e-4,-2.1e-4 c -1.07867,1.5518 -2.15528,3.10119 -2.975091,4.31067 0.719661,-1.26991 1.630041,-2.92093 2.542001,-4.57518 a 7.9375006,7.9375006 0 0 0 -0.0127,-0.006 c -0.99905,1.63866 -2.001834,3.28221 -2.74788,4.54088 0.520767,-1.07195 1.16657,-2.43978 1.82976,-3.84878 -0.70238,1.36209 -1.380565,2.68074 -1.910068,3.73818 0.543909,-1.34865 1.230848,-3.11151 1.918318,-4.87711 a 7.9375006,7.9375006 0 0 0 -0.0105,-0.006 c -0.78355,1.78203 -1.572382,3.57465 -2.147263,4.92894 0.385788,-1.17305 0.865042,-2.69168 1.354133,-4.24506 -0.513264,1.44294 -1.00604,2.83504 -1.394194,3.96628 0.359216,-1.39618 0.796825,-3.18099 1.237672,-4.97844 a 7.9375006,7.9375006 0 0 0 -0.008,-0.003 z m 0.164561,1.01511 c 0.10412,-0.29274 0.20148,-0.56973 0.30596,-0.86336 a 7.9375006,7.9375006 0 0 0 -0.0303,-0.009 c -0.0935,0.29717 -0.18237,0.57677 -0.27567,0.87309 z m 0.79551,0.46032 c 0.16292,-0.31596 0.31666,-0.61576 0.48031,-0.933 a 7.9375006,7.9375006 0 0 0 -0.0336,-0.0153 c -0.15172,0.3225 -0.29538,0.62655 -0.44652,0.94767 z m 1.40176,0.42297 c 0.14273,-0.17783 0.27665,-0.34527 0.41946,-0.52319 a 7.9375006,7.9375006 0 0 0 -0.0194,-0.015 c -0.13572,0.18297 -0.26426,0.35429 -0.39995,0.53724 z m 0.67312,1.26451 c 0.29415,-0.24858 0.57291,-0.48523 0.86864,-0.73504 a 7.9375006,7.9375006 0 0 0 -0.027,-0.0281 c -0.28601,0.25992 -0.55702,0.5046 -0.84166,0.76315 z m 1.14494,-0.33761 c 0.009,-0.007 0.0184,-0.0135 0.0278,-0.0199 a 7.9375006,7.9375006 0 0 0 -10e-4,-0.002 c -0.009,0.007 -0.0175,0.015 -0.0267,0.0217 z m 0.20543,0.48518 c 0.0452,-0.0288 0.0875,-0.0561 0.13268,-0.0847 a 7.9375006,7.9375006 0 0 0 -0.003,-0.006 c -0.0442,0.0309 -0.0859,0.0594 -0.13013,0.0903 z m -0.47635,1.88261 c 0.46243,-0.18191 0.90625,-0.35754 1.37362,-0.54117 a 7.9375006,7.9375006 0 0 0 -0.0173,-0.0463 c -0.4613,0.20005 -0.89963,0.38965 -1.35635,0.58752 z m 0.63603,1.16631 c 0.40118,-0.0714 0.78247,-0.14025 1.18589,-0.21189 a 7.9375006,7.9375006 0 0 0 -0.007,-0.0411 c -0.40115,0.0862 -0.78051,0.16734 -1.17924,0.253 z m 0.4559,0.82032 c 0.29036,-0.0135 0.56414,-0.0268 0.85507,-0.0405 a 7.9375006,7.9375006 0 0 0 -10e-4,-0.0307 c -0.29041,0.0246 -0.56377,0.0469 -0.85372,0.0714 z m -0.13568,0.93466 c 0.33666,0.0286 0.65503,0.055 0.9927,0.0838 a 7.9375006,7.9375006 0 0 0 10e-4,-0.0349 c -0.33813,-0.0164 -0.65695,-0.0326 -0.99403,-0.0489 z m 0.87681,0.53426 c 0.024,0.003 0.0461,0.007 0.0701,0.0105 a 7.9375006,7.9375006 0 0 0 3e-5,-0.003 c -0.0237,-0.003 -0.0464,-0.004 -0.0701,-0.007 z m -0.46838,0.43626 c 0.15765,0.0345 0.30575,0.0665 0.4633,0.1008 a 7.9375006,7.9375006 0 0 0 0.003,-0.0177 c -0.15859,-0.0285 -0.30765,-0.0549 -0.46642,-0.0832 z m -0.2413,0.9874 c 0.14268,0.0507 0.27654,0.0984 0.41904,0.14925 a 7.9375006,7.9375006 0 0 0 0.005,-0.0156 c -0.1444,-0.0448 -0.27947,-0.0888 -0.42402,-0.13365 z m -0.77005,0.21738 c 0.33795,0.14805 0.65863,0.28721 0.99786,0.4359 a 7.9375006,7.9375006 0 0 0 0.0156,-0.0344 c -0.34479,-0.13635 -0.67,-0.26571 -1.01349,-0.40153 z m 0.27094,1.19609 c 0.0913,0.0555 0.17736,0.1071 0.26859,0.16266 a 7.9375006,7.9375006 0 0 0 0.006,-0.0105 c -0.0934,-0.0517 -0.18114,-0.10035 -0.27461,-0.15215 z m -0.53037,0.83532 c 0.079,0.0628 0.15339,0.12135 0.23233,0.18415 a 7.9375006,7.9375006 0 0 0 0.006,-0.009 c -0.0813,-0.0594 -0.15758,-0.1152 -0.23888,-0.17472 z m -0.69573,0.0688 c 0.1964,0.17965 0.38148,0.34891 0.57812,0.52887 a 7.9375006,7.9375006 0 0 0 0.0186,-0.0215 c -0.2032,-0.17231 -0.39375,-0.33522 -0.59672,-0.50738 z m -0.29471,1.0726 c 0.0519,0.0617 0.10029,0.11955 0.15209,0.18114 a 7.9375006,7.9375006 0 0 0 0.007,-0.008 c -0.0542,-0.0594 -0.10528,-0.11505 -0.15954,-0.17428 z m -0.84058,-0.27414 c 0.19568,0.26669 0.3814,0.5181 0.57757,0.78552 a 7.9375006,7.9375006 0 0 0 0.0265,-0.021 c -0.20574,-0.25986 -0.39899,-0.50542 -0.60406,-0.76452 z m -0.3996,1.16487 c 0.0378,0.0687 0.0735,0.1329 0.1113,0.20156 a 7.9375006,7.9375006 0 0 0 0.008,-0.005 c -0.0405,-0.067 -0.0784,-0.13005 -0.1189,-0.19718 z m -0.93812,0.33846 c 0.0422,0.1065 0.082,0.20621 0.1241,0.31253 a 7.9375006,7.9375006 0 0 0 0.0117,-0.005 c -0.0464,-0.10455 -0.0894,-0.20298 -0.13585,-0.30765 z m -0.66262,-0.39021 c 0.0963,0.30239 0.18801,0.58769 0.28454,0.89078 a 7.9375006,7.9375006 0 0 0 0.0305,-0.012 c -0.10754,-0.29889 -0.20778,-0.58079 -0.31501,-0.87888 z m -0.18965,1.00125 c 0.002,0.009 0.0041,0.0166 0.0064,0.0243 a 7.9375006,7.9375006 0 0 0 7.49e-4,2e-4 c -0.0024,-0.009 -0.0045,-0.0168 -0.0071,-0.0245 z m -1.125193,-0.67947 c 0.0354,0.30882 0.06901,0.60041 0.104465,0.90995 a 7.9375006,7.9375006 0 0 0 0.0327,-0.005 c -0.04688,-0.30783 -0.09034,-0.59795 -0.137077,-0.90503 z m -1.406534,0.0501 c -0.02603,0.30708 -0.05021,0.597 -0.07633,0.90482 a 7.9375006,7.9375006 0 0 0 0.03264,9.7e-4 c 0.01467,-0.30837 0.02916,-0.59878 0.04383,-0.9063 z m -0.848066,-0.21327 c -0.07234,0.33524 -0.140131,0.65235 -0.212741,0.98864 a 7.9375006,7.9375006 0 0 0 0.03389,0.009 c 0.06031,-0.33918 0.118693,-0.65882 0.178851,-0.99693 z m -0.907881,-0.19668 c -0.109071,0.30669 -0.211523,0.59672 -0.320946,0.90429 a 7.9375006,7.9375006 0 0 0 0.03255,0.0105 c 0.09793,-0.31117 0.190701,-0.60424 0.2884,-0.91461 z m -0.906706,-0.19807 c -0.124652,0.24214 -0.241903,0.47046 -0.366803,0.71304 a 7.9375006,7.9375006 0 0 0 0.02654,0.012 c 0.115599,-0.24675 0.224862,-0.47859 0.340303,-0.72495 z m -1.303486,-0.65514 c -0.141162,0.17637 -0.273814,0.34229 -0.415053,0.51875 a 7.9375006,7.9375006 0 0 0 0.01938,0.015 c 0.134242,-0.18147 0.261332,-0.35138 0.395549,-0.53282 z m -0.59466,-1.35664 c -0.320725,0.27084 -0.625438,0.52941 -0.948362,0.80196 a 7.9375006,7.9375006 0 0 0 0.02881,0.0303 c 0.312494,-0.28349 0.609001,-0.5506 0.919538,-0.83216 z m -1.21348,0.41073 c -0.0091,0.008 -0.01776,0.012 -0.02685,0.0194 a 7.9375006,7.9375006 0 0 0 0.0013,0.001 c 0.0087,-0.007 0.01683,-0.0135 0.02555,-0.0206 z m -0.275319,-0.42205 c -0.01688,0.0105 -0.0326,0.0208 -0.04941,0.0316 a 7.9375006,7.9375006 0 0 0 0.0019,0.002 c 0.01625,-0.012 0.0313,-0.0224 0.04759,-0.0339 z m -0.509524,-0.94063 c -0.02506,0.012 -0.04847,0.0231 -0.07353,0.0348 a 7.9375006,7.9375006 0 0 0 0.0015,0.003 c 0.02451,-0.0135 0.04739,-0.0249 0.0719,-0.0377 z m 0.401566,-0.72297 c -0.236131,0.0924 -0.458389,0.17953 -0.694823,0.27204 a 7.9375006,7.9375006 0 0 0 0.01009,0.0252 c 0.232831,-0.1014 0.452105,-0.19595 0.684717,-0.29721 z m -0.372981,-0.33909 c -0.167472,0.053 -0.324636,0.1032 -0.492063,0.15625 a 7.9375006,7.9375006 0 0 0 0.0065,0.0177 c 0.16517,-0.0596 0.320416,-0.1146 0.485595,-0.17404 z m -0.817599,-1.36022 c -0.0077,0.001 -0.01485,0.001 -0.02254,0.003 a 7.9375006,7.9375006 0 0 0 -1.98e-4,7.3e-4 c 0.0077,-0.001 0.01488,-0.001 0.02254,-0.003 z m 0.342316,-0.5318 c -0.139698,0.006 -0.270744,0.0135 -0.410411,0.0192 a 7.9375006,7.9375006 0 0 0 9.98e-4,0.015 c 0.139309,-0.012 0.27016,-0.0221 0.409529,-0.0339 z m 0.02242,-0.46104 c -0.154934,-0.003 -0.300403,-0.005 -0.455274,-0.007 a 7.9375006,7.9375006 0 0 0 -4.94e-4,0.0168 c 0.155025,-0.003 0.300647,-0.006 0.455724,-0.009 z m 0.08482,-1.48757 c -0.132044,-0.0291 -0.256417,-0.0547 -0.38836,-0.084 a 7.9375006,7.9375006 0 0 0 -0.0031,0.015 c 0.133254,0.0232 0.25818,0.046 0.391416,0.0696 z m 0.02396,-0.49674 c -0.10158,-0.0288 -0.196828,-0.0558 -0.29794,-0.0861 a 7.9375006,7.9375006 0 0 0 -0.0024,0.012 c 0.101998,0.0258 0.198221,0.0485 0.300298,0.0743 z m 0.244642,-0.43682 c -0.130928,-0.0476 -0.254068,-0.0912 -0.385022,-0.13845 a 7.9375006,7.9375006 0 0 0 -0.0047,0.015 c 0.132692,0.0417 0.25718,0.0813 0.389769,0.12375 z m 0.638264,-1.36974 c -0.123667,-0.0745 -0.239743,-0.14475 -0.363319,-0.21942 a 7.9375006,7.9375006 0 0 0 -0.0077,0.0135 c 0.126341,0.0697 0.244699,0.1356 0.3711,0.20535 z m 0.89507,-0.49525 c -0.239175,-0.18989 -0.465817,-0.36857 -0.705663,-0.55904 a 7.9375006,7.9375006 0 0 0 -0.01808,0.0256 c 0.246419,0.18125 0.478011,0.35259 0.72377,0.53339 z m 0.491999,-1.56063 c -0.04173,-0.0493 -0.08069,-0.0958 -0.122427,-0.14505 a 7.9375006,7.9375006 0 0 0 -0.0057,0.006 c 0.04354,0.0474 0.08443,0.0918 0.127956,0.13935 z m 0.531435,-0.13845 c -0.08353,-0.1131 -0.162128,-0.21915 -0.245614,-0.33225 a 7.9375006,7.9375006 0 0 0 -0.01209,0.009 c 0.08782,0.10965 0.169978,0.21292 0.257809,0.32268 z m 0.444351,-0.21479 c -0.09139,-0.14355 -0.177536,-0.27829 -0.268926,-0.42195 a 7.9375006,7.9375006 0 0 0 -0.01548,0.0105 c 0.09691,0.13995 0.187605,0.27165 0.28452,0.41166 z m 0.233704,-0.47986 c -0.03578,-0.0648 -0.06972,-0.12555 -0.105476,-0.19037 a 7.9375006,7.9375006 0 0 0 -0.0068,0.004 c 0.03824,0.0632 0.07407,0.12255 0.112325,0.18578 z m 0.94902,-0.34919 c -0.04141,-0.10485 -0.08074,-0.20311 -0.122114,-0.30796 a 7.9375006,7.9375006 0 0 0 -0.01168,0.004 c 0.04556,0.10335 0.08805,0.20044 0.133652,0.30384 z m 0.629513,0.28019 c -0.08351,-0.26457 -0.162677,-0.51348 -0.246436,-0.77817 a 7.9375006,7.9375006 0 0 0 -0.02764,0.0105 c 0.09345,0.26113 0.180943,0.50698 0.274205,0.76762 z m 1.359129,-0.28344 c -0.03336,-0.28743 -0.06554,-0.55857 -0.09895,-0.84666 a 7.9375006,7.9375006 0 0 0 -0.03006,0.005 c 0.04408,0.28642 0.08517,0.55617 0.129115,0.84189 z m 1.403889,0.0736 c 0.02784,-0.32996 0.05382,-0.64206 0.0818,-0.97316 a 7.9375006,7.9375006 0 0 0 -0.03489,-10e-4 c -0.01574,0.33162 -0.03113,0.64404 -0.04685,0.97451 z m 0.904562,0.0803 c 0.06945,-0.31269 0.134021,-0.60838 0.203726,-0.92204 a 7.9375006,7.9375006 0 0 0 -0.03239,-0.007 c -0.0582,0.31636 -0.113268,0.61454 -0.171332,0.92993 z m -6.430129,12.62878 c -0.05581,0.0612 -0.108016,0.11895 -0.163792,0.18002 a 7.9375006,7.9375006 0 0 0 0.0063,0.006 c 0.05345,-0.0634 0.104013,-0.123 0.15751,-0.18651 z"
       id="path3114"
       inkscape:connector-curvature="0" />
    <path
       sodipodi:type="star"
       style="opacity:1;fill:#ff7f2a;fill-opacity:1;fill-rule:nonzero;stroke:none;stroke-width:0.05291667;stroke-linecap:butt;stroke-linejoin:miter;stroke-miterlimit:4;stroke-dasharray:none;stroke-dashoffset:0;stroke-opacity:1;paint-order:markers stroke fill"
       id="path1073"
       sodipodi:sides="7"
       sodipodi:cx="107.01472"
       sodipodi:cy="162.7171"
       sodipodi:r1="5.5033412"
       sodipodi:r2="6.1148238"
       sodipodi:arg1="1.0471976"
       sodipodi:arg2="1.4959965"
       inkscape:flatsided="false"
       inkscape:rounded="0.52"
       inkscape:randomized="0"
       d="m 109.76639,167.48314 c -1.19479,0.68981 -0.91894,1.22859 -2.29471,1.33169 -1.37577,0.1031 -1.1833,-0.47078 -2.46756,-0.97481 -1.28426,-0.50404 -1.5335,0.0476 -2.47189,-0.96378 -0.93838,-1.01134 -0.3697,-1.21867 -0.77636,-2.537 -0.40665,-1.31833 -0.9933,-1.16929 -0.78768,-2.53351 0.20562,-1.36421 0.72228,-1.04887 1.49945,-2.18877 0.77717,-1.1399 0.29487,-1.50564 1.48967,-2.19545 1.19479,-0.68981 1.27037,-0.0893 2.64614,-0.19236 1.37577,-0.1031 1.361,-0.70821 2.64526,-0.20418 1.28426,0.50404 0.86186,0.93757 1.80024,1.94891 0.93839,1.01134 1.40227,0.62251 1.80893,1.94085 0.40665,1.31833 -0.19567,1.25838 -0.40129,2.6226 -0.20562,1.36422 0.3876,1.48447 -0.38957,2.62437 -0.77717,1.13991 -1.10584,0.63162 -2.30063,1.32144 z"
       inkscape:transform-center-x="-0.046253209"
       inkscape:transform-center-y="0.030604454"
       transform="matrix(-0.86820809,0.93212345,-0.93212345,-0.86820809,342.4816,209.63463)" />
    <path
       sodipodi:type="star"
       style="opacity:1;fill:#808180;fill-opacity:1;fill-rule:nonzero;stroke:none;stroke-width:0.05291667;stroke-linecap:butt;stroke-linejoin:miter;stroke-miterlimit:4;stroke-dasharray:none;stroke-dashoffset:0;stroke-opacity:1;paint-order:markers stroke fill"
       id="path1073-6"
       sodipodi:sides="7"
       sodipodi:cx="107.01472"
       sodipodi:cy="162.7171"
       sodipodi:r1="5.5033412"
       sodipodi:r2="6.1148238"
       sodipodi:arg1="1.0471976"
       sodipodi:arg2="1.4959965"
       inkscape:flatsided="false"
       inkscape:rounded="0.52"
       inkscape:randomized="0"
       d="m 109.76639,167.48314 c -1.19479,0.68981 -0.91894,1.22859 -2.29471,1.33169 -1.37577,0.1031 -1.1833,-0.47078 -2.46756,-0.97481 -1.28426,-0.50404 -1.5335,0.0476 -2.47189,-0.96378 -0.93838,-1.01134 -0.3697,-1.21867 -0.77636,-2.537 -0.40665,-1.31833 -0.9933,-1.16929 -0.78768,-2.53351 0.20562,-1.36421 0.72228,-1.04887 1.49945,-2.18877 0.77717,-1.1399 0.29487,-1.50564 1.48967,-2.19545 1.19479,-0.68981 1.27037,-0.0893 2.64614,-0.19236 1.37577,-0.1031 1.361,-0.70821 2.64526,-0.20418 1.28426,0.50404 0.86186,0.93757 1.80024,1.94891 0.93839,1.01134 1.40227,0.62251 1.80893,1.94085 0.40665,1.31833 -0.19567,1.25838 -0.40129,2.6226 -0.20562,1.36422 0.3876,1.48447 -0.38957,2.62437 -0.77717,1.13991 -1.10584,0.63162 -2.30063,1.32144 z"
       inkscape:transform-center-x="-0.044858979"
       inkscape:transform-center-y="0.029691832"
       transform="matrix(-0.84225527,0.90426006,-0.90426006,-0.84225527,335.16875,208.38597)" />
    <path
       sodipodi:type="star"
       style="opacity:1;fill:#2d2d2d;fill-opacity:1;fill-rule:nonzero;stroke:none;stroke-width:0.05291667;stroke-linecap:butt;stroke-linejoin:miter;stroke-miterlimit:4;stroke-dasharray:none;stroke-dashoffset:0;stroke-opacity:1;paint-order:markers stroke fill"
       id="path1073-6-8"
       sodipodi:sides="7"
       sodipodi:cx="107.01472"
       sodipodi:cy="162.7171"
       sodipodi:r1="5.5033412"
       sodipodi:r2="6.1148238"
       sodipodi:arg1="1.0471976"
       sodipodi:arg2="1.4959965"
       inkscape:flatsided="false"
       inkscape:rounded="0.52"
       inkscape:randomized="0"
       d="m 109.76639,167.48314 c -1.19479,0.68981 -0.91894,1.22859 -2.29471,1.33169 -1.37577,0.1031 -1.1833,-0.47078 -2.46756,-0.97481 -1.28426,-0.50404 -1.5335,0.0476 -2.47189,-0.96378 -0.93838,-1.01134 -0.3697,-1.21867 -0.77636,-2.537 -0.40665,-1.31833 -0.9933,-1.16929 -0.78768,-2.53351 0.20562,-1.36421 0.72228,-1.04887 1.49945,-2.18877 0.77717,-1.1399 0.29487,-1.50564 1.48967,-2.19545 1.19479,-0.68981 1.27037,-0.0893 2.64614,-0.19236 1.37577,-0.1031 1.361,-0.70821 2.64526,-0.20418 1.28426,0.50404 0.86186,0.93757 1.80024,1.94891 0.93839,1.01134 1.40227,0.62251 1.80893,1.94085 0.40665,1.31833 -0.19567,1.25838 -0.40129,2.6226 -0.20562,1.36422 0.3876,1.48447 -0.38957,2.62437 -0.77717,1.13991 -1.10584,0.63162 -2.30063,1.32144 z"
       inkscape:transform-center-x="-0.042304517"
       inkscape:transform-center-y="0.027999007"
       transform="matrix(-0.79430186,0.85277646,-0.85277646,-0.79430186,321.65557,206.07804)" />
    <circle
       style="opacity:1;fill:#a1a0a0;fill-opacity:1;fill-rule:nonzero;stroke:none;stroke-width:0.03062481;stroke-linecap:butt;stroke-linejoin:miter;stroke-miterlimit:4;stroke-dasharray:none;stroke-dashoffset:0;stroke-opacity:1;paint-order:markers stroke fill"
       id="path1119"
       cx="97.89537"
       cy="162.05075"
       r="0.72733891" />
  </g>
</svg>
