<?xml version="1.0" encoding="UTF-8" standalone="no"?>
<svg
   xmlns:dc="http://purl.org/dc/elements/1.1/"
   xmlns:cc="http://creativecommons.org/ns#"
   xmlns:rdf="http://www.w3.org/1999/02/22-rdf-syntax-ns#"
   xmlns:svg="http://www.w3.org/2000/svg"
   xmlns="http://www.w3.org/2000/svg"
   xmlns:xlink="http://www.w3.org/1999/xlink"
   xmlns:sodipodi="http://sodipodi.sourceforge.net/DTD/sodipodi-0.dtd"
   xmlns:inkscape="http://www.inkscape.org/namespaces/inkscape"
   sodipodi:docname="BarkButtonRound1_0sh.svg"
   inkscape:version="1.0beta2 (847b694, 2019-12-17)"
   id="svg1690"
   version="1.1"
   viewBox="0 0 7.8274336 2.7781253"
   height="10.500001"
   width="29.584002">
  <defs
     id="defs1684">
    <filter
       inkscape:collect="always"
       style="color-interpolation-filters:sRGB"
       id="filter5049-9-4-68-1-4-1"
       x="-0.6493355"
       width="2.298671"
       y="-0.91497272"
       height="2.8299453">
      <feGaussianBlur
         inkscape:collect="always"
         stdDeviation="0.049036235"
         id="feGaussianBlur5051-33-7-1-8-9-3" />
    </filter>
    <linearGradient
       inkscape:collect="always"
       id="linearGradient10373">
      <stop
         style="stop-color:#ffffff;stop-opacity:1;"
         offset="0"
         id="stop10369" />
      <stop
         style="stop-color:#ffffff;stop-opacity:0;"
         offset="1"
         id="stop10371" />
    </linearGradient>
    <linearGradient
       inkscape:collect="always"
       xlink:href="#linearGradient10373"
       id="linearGradient1652"
       x1="5.9255004"
       y1="196.41614"
       x2="6.0473661"
       y2="193.49724"
       gradientUnits="userSpaceOnUse"
       gradientTransform="translate(-1.5943055e-6,-192.65182)" />
  </defs>
  <sodipodi:namedview
     showgrid="false"
     inkscape:document-rotation="0"
     inkscape:current-layer="layer1"
     inkscape:document-units="px"
     inkscape:cy="2.8839838"
     inkscape:cx="23.640559"
     inkscape:zoom="11.2"
     inkscape:pageshadow="2"
     inkscape:pageopacity="0.0"
     borderopacity="1.0"
     bordercolor="#666666"
     pagecolor="#ffffff"
     id="base"
     units="px" />
  <metadata
     id="metadata1687">
    <rdf:RDF>
      <cc:Work
         rdf:about="">
        <dc:format>image/svg+xml</dc:format>
        <dc:type
           rdf:resource="http://purl.org/dc/dcmitype/StillImage" />
        <dc:title />
      </cc:Work>
    </rdf:RDF>
  </metadata>
  <g
     transform="translate(-69.413664,-144.78232)"
     id="layer1"
     inkscape:groupmode="layer"
     inkscape:label="Layer 1">
    <g
       style="display:inline"
       transform="translate(-19.155609,7.16543)"
       id="g839-0-9-3">
      <circle
         r="1.3890626"
         cy="139.00595"
         cx="89.958336"
         id="path4804-7-9-0-3-2-5"
         style="opacity:1;fill:#ccccd5;fill-opacity:1;fill-rule:nonzero;stroke:none;stroke-width:0.0463021;stroke-linecap:butt;stroke-linejoin:miter;stroke-miterlimit:4;stroke-dasharray:none;stroke-dashoffset:0;stroke-opacity:1;paint-order:markers stroke fill" />
      <circle
         r="1.1906251"
         cy="139.00595"
         cx="89.958336"
         id="path4832-2-4-2-2-0-7"
         style="opacity:0.822;fill:#000000;fill-opacity:1;fill-rule:nonzero;stroke:none;stroke-width:0.0560294;stroke-linecap:butt;stroke-linejoin:miter;stroke-miterlimit:4;stroke-dasharray:none;stroke-dashoffset:0;stroke-opacity:1;paint-order:markers stroke fill" />
      <circle
         r="1.0583334"
         cy="139.00595"
         cx="89.958336"
         id="path4832-8-2-1-1-5-5-6"
         style="opacity:1;fill:#666666;fill-opacity:1;fill-rule:nonzero;stroke:none;stroke-width:0.0498039;stroke-linecap:butt;stroke-linejoin:miter;stroke-miterlimit:4;stroke-dasharray:none;stroke-dashoffset:0;stroke-opacity:1;paint-order:markers stroke fill" />
      <circle
         r="0.96147323"
         cy="139.00595"
         cx="89.958336"
         id="path4832-8-4-2-1-41-0-4-2"
         style="opacity:0.692;fill:#000000;fill-opacity:1;fill-rule:nonzero;stroke:none;stroke-width:0.0452458;stroke-linecap:butt;stroke-linejoin:miter;stroke-miterlimit:4;stroke-dasharray:none;stroke-dashoffset:0;stroke-opacity:1;paint-order:markers stroke fill" />
      <circle
         r="0.71561033"
         cy="139.00224"
         cx="89.963341"
         id="path5330-4-4-7-2"
         style="opacity:0.9;fill:#000000;fill-opacity:1;fill-rule:nonzero;stroke:none;stroke-width:0.0593129;stroke-linecap:butt;stroke-linejoin:miter;stroke-miterlimit:4;stroke-dasharray:none;stroke-dashoffset:0;stroke-opacity:1;paint-order:markers stroke fill" />
      <ellipse
         ry="0.064311735"
         rx="0.090621077"
         cy="139.29811"
         cx="90.184738"
         id="path4879-0-5-5-5-9-4"
         style="opacity:0.692;fill:#ffffff;fill-opacity:1;fill-rule:nonzero;stroke:none;stroke-width:0.0529167;stroke-linecap:butt;stroke-linejoin:miter;stroke-miterlimit:4;stroke-dasharray:none;stroke-dashoffset:0;stroke-opacity:1;paint-order:markers stroke fill;filter:url(#filter5049-9-4-68-1-4-1)" />
      <circle
         r="0.86475587"
         cy="139.00224"
         cx="89.963341"
         id="path4832-8-4-5-9-4-3-5-6-3"
         style="opacity:0.388;fill:#000000;fill-opacity:1;fill-rule:nonzero;stroke:none;stroke-width:0.0406944;stroke-linecap:butt;stroke-linejoin:miter;stroke-miterlimit:4;stroke-dasharray:none;stroke-dashoffset:0;stroke-opacity:1;paint-order:markers stroke fill" />
    </g>
    <g
       aria-label="S&amp;H"
       transform="scale(0.98062443,1.0197584)"
       id="text13021-45-0-7-3-0-9"
       style="font-style:normal;font-variant:normal;font-weight:bold;font-stretch:normal;font-size:1.73895px;line-height:125%;font-family:'Segoe Print';-inkscape-font-specification:'Segoe Print, Bold';font-variant-ligatures:normal;font-variant-caps:normal;font-variant-numeric:normal;font-feature-settings:normal;text-align:start;letter-spacing:0px;word-spacing:0px;writing-mode:lr-tb;text-anchor:start;display:inline;fill:#ffffff;fill-opacity:1;stroke:none;stroke-width:0.264583px;stroke-linecap:butt;stroke-linejoin:miter;stroke-opacity:1">
      <path
         d="m 75.704568,143.04373 q 0,-0.0841 -0.0433,-0.11632 -0.0433,-0.0331 -0.127365,-0.0331 -0.143497,0 -0.266616,0.0705 -0.12227,0.0696 -0.12227,0.15368 0,0.0535 0.04585,0.0917 0.0467,0.0374 0.239445,0.0934 0.202085,0.0586 0.299731,0.12906 0.0985,0.0696 0.0985,0.16812 0,0.16388 -0.249635,0.30058 -0.249634,0.13586 -0.518798,0.13586 -0.08746,0 -0.140101,-0.0365 -0.05264,-0.0365 -0.05264,-0.09 0,-0.0425 0.02378,-0.079 0.02378,-0.0365 0.05689,-0.0365 0.02038,0 0.03736,0.007 0.08916,0.0382 0.166423,0.0382 0.132459,0 0.297183,-0.0739 0.165574,-0.0747 0.165574,-0.14604 0,-0.0297 -0.04161,-0.0569 -0.04076,-0.028 -0.167272,-0.0696 -0.184254,-0.0603 -0.277655,-0.0993 -0.09255,-0.0391 -0.14095,-0.10189 -0.04755,-0.0637 -0.04755,-0.15284 0,-0.15878 0.185103,-0.29548 0.185104,-0.13671 0.434738,-0.13671 0.143497,0 0.22586,0.0569 0.08321,0.0569 0.08321,0.12991 0,0.14944 -0.163875,0.14944 z"
         style="fill:#ffffff;fill-opacity:1"
         id="path3725"
         inkscape:connector-curvature="0" />
      <path
         d="m 76.955287,143.74254 q 0.08916,0.0628 0.181707,0.0628 0.03311,0 0.08066,-0.0178 0.0076,-0.003 0.01783,-0.003 0.05095,0 0.05095,0.0679 0,0.0382 -0.05095,0.0909 -0.0501,0.0518 -0.125666,0.0518 -0.163027,0 -0.314166,-0.11378 -0.1885,0.13501 -0.400774,0.13501 -0.151988,0 -0.246238,-0.0875 -0.0934,-0.0883 -0.0934,-0.2301 0,-0.22586 0.277655,-0.40163 0.01953,-0.0119 0.01953,-0.0297 0,-0.011 -0.0076,-0.0323 -0.04161,-0.11293 -0.04161,-0.21312 0,-0.14775 0.08746,-0.24454 0.08831,-0.0968 0.223312,-0.0968 0.110383,0 0.174914,0.0815 0.06538,0.0815 0.06538,0.1868 0,0.17662 -0.223312,0.34813 -0.02717,0.0204 -0.02717,0.0416 0,0.0442 0.09,0.16048 0.09,0.11632 0.135856,0.15029 0.101891,-0.10869 0.129911,-0.21143 l -0.03142,-0.003 q -0.07727,-0.006 -0.104439,-0.0331 -0.02632,-0.028 -0.02632,-0.0747 0,-0.0323 0.02717,-0.0577 0.02717,-0.0263 0.05349,-0.0263 0.02123,0 0.08151,0.0178 0.06029,0.0187 0.13161,0.0187 0.06623,0 0.135856,-0.008 0.06878,-0.008 0.09255,-0.008 0.06623,0 0.06623,0.0535 0,0.0993 -0.135006,0.10954 -0.04925,0.004 -0.06708,0.0127 -0.01783,0.008 -0.02972,0.0306 -0.09085,0.17322 -0.198689,0.27341 z m -0.424548,-0.55871 q 0.138402,-0.11038 0.138402,-0.22925 0,-0.0442 -0.02208,-0.0764 -0.02123,-0.0331 -0.05179,-0.0331 -0.03906,0 -0.06963,0.0467 -0.02972,0.0467 -0.02972,0.11038 0,0.096 0.03481,0.1817 z m 0.138402,0.58164 q -0.135006,-0.13756 -0.239445,-0.32691 -0.160479,0.11039 -0.160479,0.25303 0,0.0696 0.04925,0.10869 0.04925,0.0391 0.135007,0.0391 0.108684,0 0.21567,-0.0739 z"
         style="fill:#ffffff;fill-opacity:1"
         id="path3727"
         inkscape:connector-curvature="0" />
      <path
         d="m 77.827309,143.47932 q -0.02208,0.0459 -0.03226,0.25303 -0.0042,0.12142 -0.03396,0.20294 -0.02887,0.0815 -0.07642,0.0815 -0.05349,0 -0.09,-0.034 -0.03566,-0.0331 -0.03566,-0.0968 0,-0.056 0.02462,-0.15454 0.05519,-0.22246 0.122269,-0.93146 0.0042,-0.0289 0.03396,-0.0552 0.03057,-0.0272 0.06368,-0.0272 0.11208,0 0.11208,0.13925 0,0.0628 -0.02547,0.19954 -0.02972,0.15708 -0.02972,0.22926 0.0068,0.008 0.06114,0.008 0.118874,0 0.337091,-0.0187 0.218218,-0.0187 0.234351,-0.0484 0.01698,-0.0297 0.03481,-0.17152 0.01868,-0.14265 0.01868,-0.30313 0,-0.0238 0.03566,-0.0569 0.03566,-0.034 0.07642,-0.034 0.0467,0 0.07727,0.0297 0.03142,0.0297 0.03142,0.0739 0,0.0637 -0.03142,0.23095 -0.03566,0.18765 -0.06029,0.48144 -0.02378,0.29379 -0.02378,0.39059 0,0.0459 -0.04415,0.0908 -0.04415,0.045 -0.07897,0.045 -0.03736,0 -0.07217,-0.028 -0.03481,-0.028 -0.03481,-0.0722 0,-0.0289 0.02293,-0.19784 0.02293,-0.16812 0.02293,-0.23096 0,-0.0407 -0.01613,-0.0407 -0.03991,0 -0.157932,0.009 -0.118873,0.0102 -0.162177,0.0102 -0.03142,0 -0.164725,0.009 -0.132459,0.009 -0.139252,0.0161 z"
         style="fill:#ffffff;fill-opacity:1"
         id="path3729"
         inkscape:connector-curvature="0" />
    </g>
  </g>
</svg>
