<?xml version="1.0" encoding="UTF-8" standalone="no"?>
<!-- Created with Inkscape (http://www.inkscape.org/) -->

<svg
   xmlns:dc="http://purl.org/dc/elements/1.1/"
   xmlns:cc="http://creativecommons.org/ns#"
   xmlns:rdf="http://www.w3.org/1999/02/22-rdf-syntax-ns#"
   xmlns:svg="http://www.w3.org/2000/svg"
   xmlns="http://www.w3.org/2000/svg"
   xmlns:sodipodi="http://sodipodi.sourceforge.net/DTD/sodipodi-0.dtd"
   xmlns:inkscape="http://www.inkscape.org/namespaces/inkscape"
   width="29.010567"
   height="29.010567"
   viewBox="0 0 7.6757122 7.6757122"
   version="1.1"
   id="svg1538"
   inkscape:version="0.92.2 (5c3e80d, 2017-08-06)"
   sodipodi:docname="BarkKnob_30.svg">
  <defs
     id="defs1532" />
  <sodipodi:namedview
     id="base"
     pagecolor="#ffffff"
     bordercolor="#666666"
     borderopacity="1.0"
     inkscape:pageopacity="0.0"
     inkscape:pageshadow="2"
     inkscape:zoom="31.678384"
     inkscape:cx="2.8408999"
     inkscape:cy="21.361551"
     inkscape:document-units="px"
     inkscape:current-layer="layer1"
     showgrid="false"
     inkscape:snap-global="false"
     units="px" />
  <metadata
     id="metadata1535">
    <rdf:RDF>
      <cc:Work
         rdf:about="">
        <dc:format>image/svg+xml</dc:format>
        <dc:type
           rdf:resource="http://purl.org/dc/dcmitype/StillImage" />
        <dc:title />
      </cc:Work>
    </rdf:RDF>
  </metadata>
  <g
     inkscape:label="Layer 1"
     inkscape:groupmode="layer"
     id="layer1"
     transform="translate(-91.365359,-166.9313)">
    <circle
       style="opacity:1;fill:#808080;fill-opacity:1;fill-rule:nonzero;stroke:none;stroke-width:0.03530166;stroke-linecap:butt;stroke-linejoin:miter;stroke-miterlimit:4;stroke-dasharray:none;stroke-dashoffset:0;stroke-opacity:1;paint-order:markers stroke fill"
       id="path1075"
       cx="95.203217"
       cy="170.76915"
       r="3.8379135" />
    <path
       style="opacity:1;fill:#666666;fill-opacity:0.24338624;fill-rule:nonzero;stroke:none;stroke-width:0.32886133;stroke-linecap:butt;stroke-linejoin:miter;stroke-miterlimit:4;stroke-dasharray:none;stroke-dashoffset:0;stroke-opacity:1;paint-order:markers stroke fill"
       d="m 96.196807,167.06103 a 3.8379137,3.8379137 0 0 0 -0.01168,-0.003 c -0.25985,0.88116 -0.519731,1.76222 -0.711296,2.44171 0.112917,-0.57489 0.247441,-1.30053 0.385115,-2.04836 -0.169383,0.7626 -0.334019,1.50803 -0.455152,2.08819 0.08635,-0.70391 0.18884,-1.64146 0.291031,-2.57335 a 3.8379137,3.8379137 0 0 0 -0.0048,-4.8e-4 c -0.138094,0.90114 -0.27568,1.80051 -0.373626,2.49496 0.03429,-0.57691 0.06962,-1.30045 0.105179,-2.04772 -0.06425,0.76144 -0.126127,1.50305 -0.167996,2.0852 -0.0078,-0.70637 -0.02972,-1.63788 -0.05156,-2.56619 a 3.8379137,3.8379137 0 0 0 -0.0051,1.4e-4 c -0.01749,0.90095 -0.03462,1.79718 -0.04007,2.49547 -0.05027,-0.69541 -0.125085,-1.58736 -0.200404,-2.48426 a 3.8379137,3.8379137 0 0 0 -0.0056,4.9e-4 c 0.03849,0.94078 0.07726,1.88897 0.115532,2.59536 -0.08369,-0.5962 -0.202291,-1.3717 -0.32375,-2.16148 0.08791,0.75735 0.174028,1.49096 0.248984,2.07703 -0.143856,-0.68453 -0.33946,-1.56435 -0.536034,-2.44806 a 3.8379137,3.8379137 0 0 0 -0.0082,0.001 c 0.162286,0.91772 0.324555,1.83873 0.45674,2.53547 -0.189019,-0.68276 -0.44916,-1.57927 -0.708623,-2.47298 a 3.8379137,3.8379137 0 0 0 -0.0067,0.002 c 0.216884,0.88855 0.433801,1.77513 0.608883,2.45711 -0.195647,-0.56789 -0.449914,-1.28114 -0.712334,-2.01455 0.244756,0.77334 0.485666,1.5317 0.678463,2.1149 -0.264363,-0.62076 -0.622484,-1.4335 -0.982838,-2.25039 0.311841,0.79033 0.618606,1.56635 0.868221,2.17855 -0.315656,-0.62808 -0.727631,-1.42482 -1.142063,-2.22671 a 3.8379137,3.8379137 0 0 0 -0.0024,0.001 c 0.397871,0.85669 0.798009,1.71956 1.107039,2.36321 -0.34808,-0.59215 -0.818654,-1.36917 -1.289768,-2.14754 0.417268,0.75638 0.828918,1.50118 1.15981,2.08517 -0.355384,-0.52613 -0.808202,-1.18189 -1.272809,-1.85316 0.451818,0.71016 0.897644,1.40969 1.247808,1.94501 -0.399682,-0.5125 -0.927821,-1.17293 -1.46266,-1.84115 0.510339,0.69138 1.014727,1.37347 1.410373,1.89583 -0.45664,-0.51005 -1.060541,-1.16775 -1.66733,-1.82889 0.578659,0.68408 1.154798,1.36457 1.60201,1.88007 -0.504815,-0.49335 -1.176757,-1.13421 -1.847453,-1.77354 a 3.8379137,3.8379137 0 0 0 -0.0046,0.004 c 0.628258,0.6528 1.253563,1.30297 1.745152,1.802 -0.529228,-0.4578 -1.217377,-1.03992 -1.909149,-1.62438 a 3.8379137,3.8379137 0 0 0 -0.0028,0.003 c 0.691628,0.63657 1.387205,1.27723 1.914937,1.75049 -0.477182,-0.36054 -1.099723,-0.81931 -1.73599,-1.28737 0.588434,0.46721 1.158574,0.91855 1.618912,1.2754 -0.582367,-0.38108 -1.338305,-0.86366 -2.098349,-1.34837 0.758153,0.52874 1.516417,1.05762 2.102179,1.45572 -0.569612,-0.32321 -1.306941,-0.73043 -2.055523,-1.14328 0.739936,0.44671 1.471569,0.88769 2.038048,1.22008 -0.641267,-0.30835 -1.492693,-0.70431 -2.340194,-1.09889 a 3.8379137,3.8379137 0 0 0 -0.002,0.004 c 0.812114,0.42168 1.622647,0.84287 2.253328,1.16097 -0.653012,-0.26594 -1.501436,-0.60005 -2.352318,-0.93489 a 3.8379137,3.8379137 0 0 0 -3.75e-4,0.001 c 0.860862,0.38097 1.726714,0.76495 2.381471,1.04475 -0.627146,-0.20806 -1.453208,-0.47104 -2.286573,-0.73569 0.80768,0.29172 1.604453,0.57934 2.224214,0.79465 -0.648907,-0.16787 -1.491571,-0.37474 -2.3425,-0.58345 0.841819,0.24254 1.675692,0.48257 2.321945,0.66016 -0.647068,-0.12217 -1.484612,-0.27044 -2.333523,-0.42 0.845139,0.1832 1.680053,0.36352 2.326165,0.49524 -0.703672,-0.0845 -1.62859,-0.18403 -2.551744,-0.2833 a 3.8379137,3.8379137 0 0 0 -5.8e-4,0.002 c 0.902489,0.13553 1.802378,0.27046 2.500244,0.3669 -0.703992,-0.0406 -1.613382,-0.0826 -2.524869,-0.12439 a 3.8379137,3.8379137 0 0 0 -2.02e-4,0.002 c 0.936566,0.0825 1.879181,0.16586 2.589823,0.21939 -0.655735,0.005 -1.513503,0.0232 -2.379923,0.0413 0.839817,0.0152 1.663701,0.0291 2.31221,0.0333 -0.651614,0.0478 -1.479792,0.11789 -2.323052,0.18967 0.846338,-0.0387 1.679492,-0.0772 2.32743,-0.11477 -0.692213,0.0971 -1.591779,0.23433 -2.492945,0.3719 0.921548,-0.10193 1.846129,-0.2039 2.544752,-0.29011 -0.691744,0.14449 -1.604613,0.34735 -2.514112,0.54938 a 3.8379137,3.8379137 0 0 0 5.32e-4,0.002 c 0.880885,-0.15734 1.754892,-0.31347 2.43924,-0.44372 -0.671382,0.18346 -1.523516,0.42644 -2.382344,0.6716 0.908486,-0.21914 1.821274,-0.43908 2.507745,-0.61394 -0.609575,0.21058 -1.399976,0.49436 -2.20056,0.78239 0.79687,-0.2522 1.578468,-0.5004 2.18902,-0.70167 -0.565523,0.23828 -1.278077,0.54752 -2.008677,0.86563 0.750531,-0.29368 1.485222,-0.58205 2.053879,-0.81278 -0.622255,0.3146 -1.435407,0.73862 -2.248043,1.16234 0.817906,-0.38457 1.632321,-0.76805 2.258244,-1.07153 -0.608842,0.3584 -1.394308,0.83361 -2.180693,1.30921 a 3.8379137,3.8379137 0 0 0 0.0032,0.005 c 0.828218,-0.45332 1.66286,-0.90969 2.283047,-1.25966 -0.582673,0.39684 -1.352008,0.93563 -2.117514,1.47164 0.76307,-0.48869 1.522783,-0.97484 2.107069,-1.35881 -0.553545,0.43077 -1.262394,0.99554 -1.973947,1.56289 0.736423,-0.5394 1.470794,-1.07746 2.031136,-1.49829 -0.411415,0.36438 -0.918697,0.82302 -1.444399,1.29969 0.545771,-0.46089 1.071869,-0.90688 1.488495,-1.26731 -0.495242,0.50449 -1.134445,1.17197 -1.773122,1.83864 a 3.8379137,3.8379137 0 0 0 0.0075,0.008 c 0.673089,-0.64246 1.3494,-1.28752 1.854075,-1.78164 -0.441037,0.51078 -1.011383,1.18861 -1.58482,1.87008 0.587578,-0.64417 1.167032,-1.27992 1.616006,-1.78373 -0.376409,0.49672 -0.84269,1.12593 -1.320702,1.77206 0.522349,-0.6526 1.037014,-1.29665 1.424252,-1.7936 -0.388855,0.59667 -0.898422,1.40174 -1.403904,2.19988 a 3.8379137,3.8379137 0 0 0 0.006,0.003 c 0.519958,-0.74651 1.038932,-1.49144 1.432747,-2.07147 -0.345356,0.60929 -0.783767,1.40419 -1.223101,2.20136 a 3.8379137,3.8379137 0 0 0 0.0016,0.001 c 0.485447,-0.79965 0.973154,-1.6024 1.334608,-2.21495 -0.266558,0.5509 -0.600883,1.26258 -0.941899,1.99037 0.354495,-0.68861 0.697625,-1.35753 0.96554,-1.89324 -0.26229,0.64971 -0.590528,1.49121 -0.919883,2.33538 a 3.8379137,3.8379137 0 0 0 0.0021,4.9e-4 c 0.380892,-0.86607 0.764977,-1.73892 1.04504,-2.39847 -0.186468,0.56713 -0.418098,1.3006 -0.654357,2.05111 0.254767,-0.71635 0.501077,-1.41137 0.690831,-1.96568 -0.174467,0.68623 -0.390815,1.58297 -0.607381,2.47966 a 3.8379137,3.8379137 0 0 0 0.01176,0.004 3.8379137,3.8379137 0 0 0 0.0036,4.9e-4 c 0.262101,-0.9013 0.525568,-1.80616 0.716549,-2.49464 -0.110043,0.5773 -0.241747,1.31405 -0.376402,2.07089 0.157769,-0.73112 0.309322,-1.43813 0.425044,-2.00624 -0.08549,0.70214 -0.185462,1.61044 -0.285511,2.52088 a 3.8379137,3.8379137 0 0 0 0.0037,4.9e-4 c 0.138061,-0.90104 0.276018,-1.80029 0.373988,-2.49486 -0.03489,0.58594 -0.07099,1.32311 -0.107225,2.08286 0.06642,-0.78357 0.130675,-1.54868 0.173837,-2.1461 0.0077,0.71359 0.02993,1.65648 0.05182,2.5942 a 3.8379137,3.8379137 0 0 0 0.0038,2.8e-4 c 0.01764,-0.90448 0.03521,-1.80515 0.04093,-2.50883 0.04986,0.70091 0.123842,1.5976 0.198335,2.49921 a 3.8379137,3.8379137 0 0 0 0.0044,-3.3e-4 c -0.03785,-0.95071 -0.07588,-1.91076 -0.113687,-2.62398 0.08272,0.59586 0.20043,1.37148 0.320661,2.16143 -0.08811,-0.76851 -0.174694,-1.51584 -0.249506,-2.1055 0.146441,0.6956 0.348361,1.60128 0.55016,2.5054 a 3.8379137,3.8379137 0 0 0 0.0045,-4.9e-4 c -0.161448,-0.90416 -0.3226,-1.80896 -0.455322,-2.50502 0.187224,0.67874 0.440426,1.55611 0.694257,2.43536 -0.217265,-0.88884 -0.43449,-1.77652 -0.609274,-2.45567 0.192182,0.55516 0.442544,1.25313 0.700967,1.97154 -0.238662,-0.7492 -0.472853,-1.48123 -0.661402,-2.04823 0.264615,0.61814 0.622001,1.42524 0.981795,2.23691 -0.316031,-0.79723 -0.628054,-1.58215 -0.879575,-2.19556 0.3192,0.6299 0.739969,1.43664 1.161572,2.24512 a 3.8379137,3.8379137 0 0 0 0.0029,-0.001 c -0.39175,-0.83706 -0.783913,-1.6756 -1.092488,-2.31469 0.344917,0.58689 0.801232,1.34204 1.260969,2.10296 -0.437065,-0.79392 -0.873685,-1.5869 -1.210923,-2.18114 0.402154,0.58747 0.949374,1.36431 1.492339,2.13588 a 3.8379137,3.8379137 0 0 0 0.01165,-0.007 c -0.486437,-0.76264 -0.97065,-1.52085 -1.355506,-2.10929 0.353442,0.45704 0.795932,1.01787 1.255636,1.59866 -0.460182,-0.62717 -0.909031,-1.238 -1.266267,-1.71249 0.457358,0.51356 1.063741,1.17824 1.672696,1.84507 -0.576816,-0.68532 -1.150856,-1.36697 -1.597661,-1.88472 0.508487,0.49988 1.184651,1.14845 1.858461,1.79474 a 3.8379137,3.8379137 0 0 0 0.0024,-0.002 c -0.634896,-0.66302 -1.269062,-1.32534 -1.765203,-1.83144 0.459544,0.39912 1.043845,0.89527 1.644735,1.40494 -0.599183,-0.54825 -1.187962,-1.08609 -1.646583,-1.49506 0.540858,0.40644 1.260601,0.93337 1.98298,1.4618 -0.674878,-0.53674 -1.341454,-1.06623 -1.867128,-1.47422 0.587569,0.38449 1.353155,0.87276 2.12066,1.36212 a 3.8379137,3.8379137 0 0 0 0.0029,-0.004 c -0.76061,-0.53235 -1.521864,-1.06511 -2.111798,-1.4676 0.585771,0.334 1.344331,0.75505 2.111537,1.18041 -0.766906,-0.46626 -1.530586,-0.93032 -2.115477,-1.27575 0.647351,0.31266 1.514592,0.71736 2.375034,1.11947 a 3.8379137,3.8379137 0 0 0 0.0014,-0.003 c -0.815136,-0.42382 -1.628672,-0.84657 -2.262954,-1.16704 0.528788,0.21625 1.187807,0.47784 1.871156,0.74816 -0.701655,-0.30737 -1.386199,-0.6065 -1.922095,-0.8332 0.629147,0.20604 1.458368,0.4661 2.294432,0.7281 -0.802096,-0.28634 -1.591868,-0.56756 -2.211001,-0.78025 0.690031,0.17627 1.590547,0.39495 2.490817,0.6135 a 3.8379137,3.8379137 0 0 0 9.67e-4,-0.003 3.8379137,3.8379137 0 0 0 0.0029,-0.012 c -0.903572,-0.26366 -1.811839,-0.52879 -2.501653,-0.72077 0.645026,0.12336 1.484856,0.27348 2.334893,0.42504 -0.839777,-0.18395 -1.668703,-0.365 -2.310857,-0.49736 0.699973,0.0854 1.619104,0.18588 2.537326,0.28642 -0.889139,-0.13477 -1.772519,-0.26862 -2.464175,-0.36538 0.578634,0.0347 1.296478,0.0709 2.040223,0.10705 -0.783345,-0.0667 -1.549424,-0.13128 -2.143284,-0.17424 0.720164,-0.008 1.68155,-0.0323 2.634358,-0.0554 a 3.8379137,3.8379137 0 0 0 3.19e-4,-0.008 c -0.92297,-0.0182 -1.845588,-0.0367 -2.557711,-0.0424 0.600561,-0.0435 1.355215,-0.10604 2.131917,-0.17142 -0.773574,0.0363 -1.525607,0.0725 -2.121024,0.1076 0.698542,-0.0985 1.604749,-0.23741 2.511202,-0.37632 a 3.8379137,3.8379137 0 0 0 -0.0014,-0.008 c -0.904974,0.098 -1.808251,0.19575 -2.506667,0.27975 0.539179,-0.10932 1.205407,-0.25092 1.897373,-0.39955 -0.742203,0.13208 -1.466497,0.26182 -2.026143,0.36893 0.691211,-0.1943 1.61806,-0.46843 2.535131,-0.7393 a 3.8379137,3.8379137 0 0 0 -3.29e-4,-0.001 c -0.892354,0.22348 -1.78362,0.44694 -2.469421,0.62732 0.66999,-0.23508 1.53386,-0.54998 2.398412,-0.8648 a 3.8379137,3.8379137 0 0 0 -0.0029,-0.007 c -0.877268,0.27653 -1.753971,0.55345 -2.427805,0.77466 0.481128,-0.20192 1.070869,-0.45592 1.685423,-0.72214 -0.629045,0.24745 -1.233533,0.48624 -1.718142,0.6835 0.632072,-0.31958 1.454413,-0.74825 2.275825,-1.17625 a 3.8379137,3.8379137 0 0 0 -0.0034,-0.008 c -0.848964,0.3961 -1.701829,0.79355 -2.342126,1.10222 0.612722,-0.36094 1.418082,-0.84913 2.2194,-1.33493 a 3.8379137,3.8379137 0 0 0 -0.0034,-0.006 c -0.809828,0.44435 -1.620342,0.88911 -2.235747,1.23665 0.568915,-0.38577 1.301873,-0.89592 2.038076,-1.40835 -0.760016,0.484 -1.516497,0.96616 -2.094638,1.34429 0.556204,-0.43218 1.275565,-1.00543 1.995309,-1.57889 -0.740864,0.54209 -1.481181,1.08406 -2.042808,1.50564 0.422055,-0.37425 0.947135,-0.84998 1.48921,-1.34239 -0.556435,0.47023 -1.093734,0.92577 -1.518389,1.29344 0.493194,-0.50299 1.128878,-1.16747 1.764736,-1.83196 a 3.8379137,3.8379137 0 0 0 -0.0039,-0.004 c -0.666208,0.63887 -1.333007,1.279 -1.835935,1.77331 0.460287,-0.53317 1.054384,-1.23892 1.648065,-1.94393 -0.615469,0.6723 -1.229124,1.3423 -1.69906,1.86779 0.375612,-0.49431 0.84133,-1.12183 1.319049,-1.76591 -0.519949,0.64778 -1.031834,1.28663 -1.417569,1.78025 0.387892,-0.59384 0.895734,-1.39435 1.399617,-2.18821 a 3.8379137,3.8379137 0 0 0 -3.63e-4,-1e-4 c -0.521555,0.75032 -1.042114,1.49948 -1.438506,2.08428 0.347968,-0.61402 0.788152,-1.41232 1.2291,-2.21217 a 3.8379137,3.8379137 0 0 0 -0.0061,-0.003 c -0.483057,0.79232 -0.96792,1.58701 -1.328646,2.1956 0.2518,-0.51831 0.564056,-1.17968 0.88472,-1.86095 -0.339613,0.65859 -0.667526,1.29618 -0.92355,1.80747 0.262989,-0.6521 0.595136,-1.50447 0.927539,-2.35817 a 3.8379137,3.8379137 0 0 0 -0.0051,-0.003 c -0.37886,0.86164 -0.760273,1.72841 -1.038238,2.38323 0.186535,-0.56719 0.418263,-1.30147 0.654746,-2.05256 -0.248171,0.69769 -0.486437,1.37079 -0.674116,1.91776 0.173687,-0.67507 0.385278,-1.53806 0.598435,-2.40716 a 3.8379137,3.8379137 0 0 0 -0.0039,-0.001 z m 0.07957,0.49082 c 0.05034,-0.14155 0.09742,-0.27548 0.147937,-0.41745 a 3.8379137,3.8379137 0 0 0 -0.01465,-0.004 c -0.04521,0.14368 -0.08818,0.27888 -0.133291,0.42215 z m 0.384643,0.22257 c 0.07877,-0.15277 0.15311,-0.29773 0.232238,-0.45112 a 3.8379137,3.8379137 0 0 0 -0.01625,-0.007 c -0.07336,0.15594 -0.142821,0.30295 -0.215899,0.45822 z m 0.677774,0.20451 c 0.06901,-0.086 0.133765,-0.16694 0.202816,-0.25297 a 3.8379137,3.8379137 0 0 0 -0.0094,-0.007 c -0.06562,0.0885 -0.127774,0.17131 -0.193383,0.25976 z m 0.325465,0.61142 c 0.142226,-0.1202 0.277011,-0.23462 0.420002,-0.35541 a 3.8379137,3.8379137 0 0 0 -0.01306,-0.0136 c -0.138291,0.12568 -0.269329,0.24399 -0.406957,0.369 z m 0.553597,-0.16324 c 0.0044,-0.003 0.0089,-0.007 0.01344,-0.01 a 3.8379137,3.8379137 0 0 0 -4.83e-4,-9.6e-4 c -0.0044,0.003 -0.0085,0.007 -0.01291,0.0105 z m 0.09933,0.23459 c 0.02186,-0.0139 0.04231,-0.0271 0.06415,-0.041 a 3.8379137,3.8379137 0 0 0 -0.0015,-0.003 c -0.02137,0.0149 -0.04153,0.0287 -0.06292,0.0437 z m -0.230323,0.91027 c 0.223593,-0.088 0.438187,-0.17287 0.664168,-0.26166 a 3.8379137,3.8379137 0 0 0 -0.0084,-0.0224 c -0.223046,0.0967 -0.434986,0.1884 -0.655817,0.28408 z m 0.307531,0.56393 c 0.193977,-0.0345 0.378337,-0.0678 0.573398,-0.10245 a 3.8379137,3.8379137 0 0 0 -0.0034,-0.0199 c -0.193963,0.0417 -0.37739,0.0809 -0.570182,0.12233 z m 0.220435,0.39664 c 0.140394,-0.007 0.272771,-0.013 0.413441,-0.0196 a 3.8379137,3.8379137 0 0 0 -4.84e-4,-0.0148 c -0.140418,0.0119 -0.272592,0.0227 -0.412787,0.0345 z m -0.0656,0.45192 c 0.162781,0.0138 0.316718,0.0266 0.479987,0.0405 a 3.8379137,3.8379137 0 0 0 4.83e-4,-0.0169 c -0.163491,-0.008 -0.317646,-0.0158 -0.48063,-0.0236 z m 0.423952,0.25833 c 0.0116,10e-4 0.02229,0.003 0.0339,0.005 a 3.8379137,3.8379137 0 0 0 1.4e-5,-0.001 c -0.01146,-0.001 -0.02244,-0.002 -0.03389,-0.003 z m -0.226469,0.21094 c 0.07623,0.0167 0.147835,0.0322 0.224013,0.0487 a 3.8379137,3.8379137 0 0 0 0.0014,-0.009 c -0.07668,-0.0138 -0.148754,-0.0265 -0.225522,-0.0402 z m -0.116673,0.47742 c 0.06899,0.0245 0.133712,0.0476 0.202613,0.0722 a 3.8379137,3.8379137 0 0 0 0.0024,-0.008 c -0.06982,-0.0217 -0.135128,-0.0429 -0.20502,-0.0646 z m -0.372332,0.10511 c 0.163404,0.0716 0.318459,0.13887 0.482482,0.21076 a 3.8379137,3.8379137 0 0 0 0.0075,-0.0166 c -0.166712,-0.0659 -0.323956,-0.12848 -0.49004,-0.19415 z m 0.131004,0.57833 c 0.04415,0.0268 0.08576,0.0518 0.129868,0.0787 a 3.8379137,3.8379137 0 0 0 0.0029,-0.005 c -0.04516,-0.025 -0.08758,-0.0485 -0.132779,-0.0736 z m -0.256443,0.40389 c 0.0382,0.0304 0.07417,0.0587 0.112336,0.089 a 3.8379137,3.8379137 0 0 0 0.0029,-0.004 c -0.03931,-0.0287 -0.07619,-0.0557 -0.115503,-0.0845 z m -0.336397,0.0333 c 0.09496,0.0869 0.184452,0.16871 0.279531,0.25572 a 3.8379137,3.8379137 0 0 0 0.009,-0.0104 c -0.09825,-0.0833 -0.190384,-0.16209 -0.288524,-0.24533 z m -0.142497,0.51862 c 0.02509,0.0298 0.04849,0.0578 0.07354,0.0876 a 3.8379137,3.8379137 0 0 0 0.0034,-0.004 c -0.02621,-0.0287 -0.05091,-0.0556 -0.07714,-0.0843 z m -0.406434,-0.13255 c 0.09461,0.12895 0.184413,0.25051 0.279264,0.37982 a 3.8379137,3.8379137 0 0 0 0.01281,-0.0102 c -0.09948,-0.12565 -0.192918,-0.24438 -0.292073,-0.36966 z m -0.193214,0.56324 c 0.01828,0.0332 0.03554,0.0643 0.05382,0.0975 a 3.8379137,3.8379137 0 0 0 0.0039,-0.002 c -0.01958,-0.0324 -0.03791,-0.0629 -0.05749,-0.0953 z m -0.453596,0.16365 c 0.0204,0.0515 0.03965,0.0997 0.06,0.15111 a 3.8379137,3.8379137 0 0 0 0.0057,-0.002 c -0.02244,-0.0505 -0.04323,-0.0981 -0.06569,-0.14875 z m -0.320388,-0.18867 c 0.04656,0.14621 0.09091,0.28415 0.13758,0.4307 a 3.8379137,3.8379137 0 0 0 0.01475,-0.006 c -0.052,-0.14452 -0.100465,-0.28082 -0.152313,-0.42495 z m -0.0917,0.48412 c 9.67e-4,0.004 0.002,0.008 0.0031,0.0118 a 3.8379137,3.8379137 0 0 0 3.63e-4,9e-5 c -0.0012,-0.004 -0.0022,-0.008 -0.0034,-0.0118 z m -0.54405,-0.32854 c 0.01712,0.14932 0.03337,0.29031 0.05051,0.43998 a 3.8379137,3.8379137 0 0 0 0.01581,-0.002 c -0.02267,-0.14884 -0.04368,-0.28912 -0.06628,-0.4376 z m -0.680082,0.0242 c -0.01259,0.14847 -0.02428,0.28865 -0.03691,0.43749 a 3.8379137,3.8379137 0 0 0 0.01578,4.7e-4 c 0.0071,-0.1491 0.0141,-0.28952 0.02119,-0.43821 z m -0.410054,-0.10312 c -0.03498,0.16209 -0.06776,0.31542 -0.102864,0.47802 a 3.8379137,3.8379137 0 0 0 0.01639,0.004 c 0.02916,-0.164 0.05739,-0.31855 0.08648,-0.48203 z m -0.438976,-0.0951 c -0.05274,0.14829 -0.102275,0.28852 -0.155183,0.43724 a 3.8379137,3.8379137 0 0 0 0.01574,0.005 c 0.04735,-0.15045 0.09221,-0.29216 0.139446,-0.44223 z m -0.438407,-0.0958 c -0.06027,0.11708 -0.116964,0.22747 -0.177356,0.34476 a 3.8379137,3.8379137 0 0 0 0.01283,0.006 c 0.05589,-0.11931 0.108724,-0.23141 0.164542,-0.35053 z m -0.630257,-0.31677 c -0.06825,0.0853 -0.132394,0.1655 -0.200685,0.25082 a 3.8379137,3.8379137 0 0 0 0.0094,0.007 c 0.06491,-0.0877 0.126358,-0.16989 0.191255,-0.25762 z m -0.287528,-0.65596 c -0.155076,0.13095 -0.30241,0.25598 -0.458549,0.38776 a 3.8379137,3.8379137 0 0 0 0.01393,0.0146 c 0.151096,-0.13707 0.294462,-0.26622 0.444612,-0.40236 z m -0.586738,0.19859 c -0.0044,0.004 -0.0086,0.006 -0.01298,0.009 a 3.8379137,3.8379137 0 0 0 6.29e-4,4.9e-4 c 0.0042,-0.003 0.0081,-0.007 0.01235,-0.01 z m -0.133122,-0.20407 c -0.0082,0.005 -0.01576,0.0101 -0.02389,0.0153 a 3.8379137,3.8379137 0 0 0 9.19e-4,9.7e-4 c 0.0079,-0.006 0.01513,-0.0108 0.02301,-0.0164 z m -0.246363,-0.45481 c -0.01212,0.006 -0.02344,0.0112 -0.03555,0.0168 a 3.8379137,3.8379137 0 0 0 7.25e-4,0.001 c 0.01185,-0.007 0.02291,-0.012 0.03476,-0.0182 z m 0.194164,-0.34956 c -0.114173,0.0447 -0.221639,0.0868 -0.335959,0.13153 a 3.8379137,3.8379137 0 0 0 0.0049,0.0122 c 0.112578,-0.049 0.2186,-0.0948 0.331072,-0.14371 z m -0.180343,-0.16396 c -0.08097,0.0256 -0.156966,0.0499 -0.23792,0.0755 a 3.8379137,3.8379137 0 0 0 0.0031,0.009 c 0.07986,-0.0288 0.154926,-0.0554 0.234793,-0.0841 z m -0.395322,-0.65769 c -0.0037,4.9e-4 -0.0072,4.9e-4 -0.0109,0.001 a 3.8379137,3.8379137 0 0 0 -9.6e-5,3.6e-4 c 0.0037,-4.9e-4 0.0072,-4.9e-4 0.0109,-0.001 z m 0.165515,-0.25713 c -0.06755,0.003 -0.130909,0.007 -0.19844,0.009 a 3.8379137,3.8379137 0 0 0 4.82e-4,0.007 c 0.06736,-0.006 0.130627,-0.0107 0.198014,-0.0164 z m 0.01084,-0.22292 c -0.07491,-0.001 -0.14525,-0.002 -0.220133,-0.003 a 3.8379137,3.8379137 0 0 0 -2.39e-4,0.008 c 0.07496,-10e-4 0.145368,-0.003 0.22035,-0.004 z m 0.04101,-0.71927 c -0.06385,-0.0141 -0.123981,-0.0265 -0.187778,-0.0406 a 3.8379137,3.8379137 0 0 0 -0.0015,0.007 c 0.06443,0.0112 0.124834,0.0222 0.189256,0.0337 z m 0.01159,-0.24018 c -0.04912,-0.0139 -0.09517,-0.027 -0.144059,-0.0416 a 3.8379137,3.8379137 0 0 0 -0.0012,0.006 c 0.04932,0.0125 0.09584,0.0234 0.145199,0.0359 z m 0.118288,-0.21121 c -0.06331,-0.023 -0.122846,-0.0441 -0.186165,-0.0669 a 3.8379137,3.8379137 0 0 0 -0.0023,0.007 c 0.06416,0.0202 0.124351,0.0393 0.18846,0.0598 z m 0.308611,-0.66229 c -0.0598,-0.036 -0.115919,-0.07 -0.17567,-0.10609 a 3.8379137,3.8379137 0 0 0 -0.0037,0.007 c 0.06109,0.0337 0.118316,0.0656 0.179433,0.0993 z m 0.432782,-0.23946 c -0.115646,-0.0918 -0.225231,-0.17821 -0.3412,-0.27031 a 3.8379137,3.8379137 0 0 0 -0.0087,0.0124 c 0.119147,0.0876 0.231126,0.17048 0.349955,0.2579 z m 0.237889,-0.75459 c -0.02018,-0.0238 -0.03902,-0.0463 -0.0592,-0.0701 a 3.8379137,3.8379137 0 0 0 -0.0028,0.003 c 0.02105,0.0229 0.04082,0.0444 0.06187,0.0674 z m 0.256958,-0.0669 c -0.04039,-0.0547 -0.07839,-0.10596 -0.118759,-0.16064 a 3.8379137,3.8379137 0 0 0 -0.0058,0.004 c 0.04246,0.053 0.08219,0.10295 0.124655,0.15602 z m 0.214851,-0.10385 c -0.04419,-0.0694 -0.08584,-0.13456 -0.13003,-0.20402 a 3.8379137,3.8379137 0 0 0 -0.0075,0.005 c 0.04686,0.0677 0.09071,0.13134 0.13757,0.19904 z m 0.113,-0.23202 c -0.0173,-0.0313 -0.03371,-0.0607 -0.051,-0.0921 a 3.8379137,3.8379137 0 0 0 -0.0033,0.002 c 0.01849,0.0306 0.03582,0.0592 0.05431,0.0898 z m 0.458867,-0.16884 c -0.02002,-0.0507 -0.03904,-0.0982 -0.05904,-0.1489 a 3.8379137,3.8379137 0 0 0 -0.0056,0.002 c 0.02203,0.05 0.04257,0.0969 0.06462,0.14691 z m 0.30438,0.13548 c -0.04038,-0.12793 -0.07866,-0.24828 -0.119156,-0.37626 a 3.8379137,3.8379137 0 0 0 -0.01336,0.005 c 0.04519,0.12627 0.08749,0.24514 0.132583,0.37116 z m 0.657161,-0.13705 c -0.01613,-0.13898 -0.03169,-0.27008 -0.04784,-0.40938 a 3.8379137,3.8379137 0 0 0 -0.01453,0.002 c 0.02131,0.13849 0.04118,0.26892 0.06243,0.40707 z m 0.678804,0.0356 c 0.01346,-0.15954 0.02602,-0.31044 0.03955,-0.47053 a 3.8379137,3.8379137 0 0 0 -0.01687,-4.9e-4 c -0.0076,0.16035 -0.01505,0.31141 -0.02265,0.47119 z m 0.437371,0.0388 c 0.03358,-0.15119 0.0648,-0.29416 0.09851,-0.44582 a 3.8379137,3.8379137 0 0 0 -0.01566,-0.003 c -0.02814,0.15297 -0.05477,0.29715 -0.08284,0.44964 z m -3.109075,6.10623 c -0.02698,0.0296 -0.05223,0.0575 -0.0792,0.087 a 3.8379137,3.8379137 0 0 0 0.003,0.003 c 0.02584,-0.0307 0.05029,-0.0595 0.07616,-0.0902 z"
       id="path3114"
       inkscape:connector-curvature="0" />
    <path
       sodipodi:type="star"
       style="opacity:1;fill:#ff7f2a;fill-opacity:1;fill-rule:nonzero;stroke:none;stroke-width:0.05291667;stroke-linecap:butt;stroke-linejoin:miter;stroke-miterlimit:4;stroke-dasharray:none;stroke-dashoffset:0;stroke-opacity:1;paint-order:markers stroke fill"
       id="path1073"
       sodipodi:sides="7"
       sodipodi:cx="107.01472"
       sodipodi:cy="162.7171"
       sodipodi:r1="5.5033412"
       sodipodi:r2="6.1148238"
       sodipodi:arg1="1.0471976"
       sodipodi:arg2="1.4959965"
       inkscape:flatsided="false"
       inkscape:rounded="0.52"
       inkscape:randomized="0"
       d="m 109.76639,167.48314 c -1.19479,0.68981 -0.91894,1.22859 -2.29471,1.33169 -1.37577,0.1031 -1.1833,-0.47078 -2.46756,-0.97481 -1.28426,-0.50404 -1.5335,0.0476 -2.47189,-0.96378 -0.93838,-1.01134 -0.3697,-1.21867 -0.77636,-2.537 -0.40665,-1.31833 -0.9933,-1.16929 -0.78768,-2.53351 0.20562,-1.36421 0.72228,-1.04887 1.49945,-2.18877 0.77717,-1.1399 0.29487,-1.50564 1.48967,-2.19545 1.19479,-0.68981 1.27037,-0.0893 2.64614,-0.19236 1.37577,-0.1031 1.361,-0.70821 2.64526,-0.20418 1.28426,0.50404 0.86186,0.93757 1.80024,1.94891 0.93839,1.01134 1.40227,0.62251 1.80893,1.94085 0.40665,1.31833 -0.19567,1.25838 -0.40129,2.6226 -0.20562,1.36422 0.3876,1.48447 -0.38957,2.62437 -0.77717,1.13991 -1.10584,0.63162 -2.30063,1.32144 z"
       inkscape:transform-center-x="-0.046253209"
       inkscape:transform-center-y="0.030604454"
       transform="matrix(-0.41979307,0.45069721,-0.45069721,-0.41979307,213.4646,190.84689)" />
    <path
       sodipodi:type="star"
       style="opacity:1;fill:#808180;fill-opacity:1;fill-rule:nonzero;stroke:none;stroke-width:0.05291667;stroke-linecap:butt;stroke-linejoin:miter;stroke-miterlimit:4;stroke-dasharray:none;stroke-dashoffset:0;stroke-opacity:1;paint-order:markers stroke fill"
       id="path1073-6"
       sodipodi:sides="7"
       sodipodi:cx="107.01472"
       sodipodi:cy="162.7171"
       sodipodi:r1="5.5033412"
       sodipodi:r2="6.1148238"
       sodipodi:arg1="1.0471976"
       sodipodi:arg2="1.4959965"
       inkscape:flatsided="false"
       inkscape:rounded="0.52"
       inkscape:randomized="0"
       d="m 109.76639,167.48314 c -1.19479,0.68981 -0.91894,1.22859 -2.29471,1.33169 -1.37577,0.1031 -1.1833,-0.47078 -2.46756,-0.97481 -1.28426,-0.50404 -1.5335,0.0476 -2.47189,-0.96378 -0.93838,-1.01134 -0.3697,-1.21867 -0.77636,-2.537 -0.40665,-1.31833 -0.9933,-1.16929 -0.78768,-2.53351 0.20562,-1.36421 0.72228,-1.04887 1.49945,-2.18877 0.77717,-1.1399 0.29487,-1.50564 1.48967,-2.19545 1.19479,-0.68981 1.27037,-0.0893 2.64614,-0.19236 1.37577,-0.1031 1.361,-0.70821 2.64526,-0.20418 1.28426,0.50404 0.86186,0.93757 1.80024,1.94891 0.93839,1.01134 1.40227,0.62251 1.80893,1.94085 0.40665,1.31833 -0.19567,1.25838 -0.40129,2.6226 -0.20562,1.36422 0.3876,1.48447 -0.38957,2.62437 -0.77717,1.13991 -1.10584,0.63162 -2.30063,1.32144 z"
       inkscape:transform-center-x="-0.044858979"
       inkscape:transform-center-y="0.029691832"
       transform="matrix(-0.40724445,0.43722479,-0.43722479,-0.40724445,209.92872,190.24314)" />
    <path
       sodipodi:type="star"
       style="opacity:1;fill:#2d2d2d;fill-opacity:1;fill-rule:nonzero;stroke:none;stroke-width:0.05291667;stroke-linecap:butt;stroke-linejoin:miter;stroke-miterlimit:4;stroke-dasharray:none;stroke-dashoffset:0;stroke-opacity:1;paint-order:markers stroke fill"
       id="path1073-6-8"
       sodipodi:sides="7"
       sodipodi:cx="107.01472"
       sodipodi:cy="162.7171"
       sodipodi:r1="5.5033412"
       sodipodi:r2="6.1148238"
       sodipodi:arg1="1.0471976"
       sodipodi:arg2="1.4959965"
       inkscape:flatsided="false"
       inkscape:rounded="0.52"
       inkscape:randomized="0"
       d="m 109.76639,167.48314 c -1.19479,0.68981 -0.91894,1.22859 -2.29471,1.33169 -1.37577,0.1031 -1.1833,-0.47078 -2.46756,-0.97481 -1.28426,-0.50404 -1.5335,0.0476 -2.47189,-0.96378 -0.93838,-1.01134 -0.3697,-1.21867 -0.77636,-2.537 -0.40665,-1.31833 -0.9933,-1.16929 -0.78768,-2.53351 0.20562,-1.36421 0.72228,-1.04887 1.49945,-2.18877 0.77717,-1.1399 0.29487,-1.50564 1.48967,-2.19545 1.19479,-0.68981 1.27037,-0.0893 2.64614,-0.19236 1.37577,-0.1031 1.361,-0.70821 2.64526,-0.20418 1.28426,0.50404 0.86186,0.93757 1.80024,1.94891 0.93839,1.01134 1.40227,0.62251 1.80893,1.94085 0.40665,1.31833 -0.19567,1.25838 -0.40129,2.6226 -0.20562,1.36422 0.3876,1.48447 -0.38957,2.62437 -0.77717,1.13991 -1.10584,0.63162 -2.30063,1.32144 z"
       inkscape:transform-center-x="-0.042304517"
       inkscape:transform-center-y="0.027999007"
       transform="matrix(-0.38405817,0.41233162,-0.41233162,-0.38405817,203.39487,189.12722)" />
    <circle
       style="opacity:1;fill:#a1a0a0;fill-opacity:1;fill-rule:nonzero;stroke:none;stroke-width:0.01480761;stroke-linecap:butt;stroke-linejoin:miter;stroke-miterlimit:4;stroke-dasharray:none;stroke-dashoffset:0;stroke-opacity:1;paint-order:markers stroke fill"
       id="path1119"
       cx="95.203087"
       cy="167.83929"
       r="0.35168049" />
  </g>
</svg>
