<?xml version="1.0" encoding="UTF-8" standalone="no"?>
<!-- Created with Inkscape (http://www.inkscape.org/) -->

<svg
   xmlns:dc="http://purl.org/dc/elements/1.1/"
   xmlns:cc="http://creativecommons.org/ns#"
   xmlns:rdf="http://www.w3.org/1999/02/22-rdf-syntax-ns#"
   xmlns:svg="http://www.w3.org/2000/svg"
   xmlns="http://www.w3.org/2000/svg"
   xmlns:sodipodi="http://sodipodi.sourceforge.net/DTD/sodipodi-0.dtd"
   xmlns:inkscape="http://www.inkscape.org/namespaces/inkscape"
   width="26"
   height="26"
   viewBox="0 0 6.8791664 6.8791664"
   version="1.1"
   id="svg1538"
   inkscape:version="0.92.2 (5c3e80d, 2017-08-06)"
   sodipodi:docname="BarkKnob_26.svg">
  <defs
     id="defs1532" />
  <sodipodi:namedview
     id="base"
     pagecolor="#ffffff"
     bordercolor="#666666"
     borderopacity="1.0"
     inkscape:pageopacity="0.0"
     inkscape:pageshadow="2"
     inkscape:zoom="7.9195959"
     inkscape:cx="-15.667638"
     inkscape:cy="17.976178"
     inkscape:document-units="px"
     inkscape:current-layer="layer1"
     showgrid="false"
     inkscape:snap-global="false"
     units="px" />
  <metadata
     id="metadata1535">
    <rdf:RDF>
      <cc:Work
         rdf:about="">
        <dc:format>image/svg+xml</dc:format>
        <dc:type
           rdf:resource="http://purl.org/dc/dcmitype/StillImage" />
        <dc:title></dc:title>
      </cc:Work>
    </rdf:RDF>
  </metadata>
  <g
     inkscape:label="Layer 1"
     inkscape:groupmode="layer"
     id="layer1"
     transform="translate(-91.365359,-167.72785)">
    <g
       style="display:inline"
       id="g3156-7-3-9-9"
       transform="matrix(0.65,0,0,0.65,89.646202,26.904935)">
      <circle
         r="5.2916665"
         cy="221.94231"
         cx="7.9365234"
         id="path1075-9-3-9-2"
         style="opacity:1;fill:#808080;fill-opacity:1;fill-rule:nonzero;stroke:none;stroke-width:0.04867348;stroke-linecap:butt;stroke-linejoin:miter;stroke-miterlimit:4;stroke-dasharray:none;stroke-dashoffset:0;stroke-opacity:1;paint-order:markers stroke fill" />
      <path
         inkscape:connector-curvature="0"
         id="path3114-3-1-7-3"
         d="m 9.3064763,216.82958 a 5.2916671,5.2916671 0 0 0 -0.016107,-0.004 c -0.3582777,1.21493 -0.7165984,2.42973 -0.9807253,3.36661 0.1556879,-0.79265 0.3411687,-1.79316 0.5309917,-2.82426 -0.2335439,1.05147 -0.4605412,2.07926 -0.6275582,2.87917 0.1190511,-0.97053 0.26037,-2.26323 0.4012697,-3.54809 a 5.2916671,5.2916671 0 0 0 -0.00662,-10e-4 c -0.1904022,1.24247 -0.380104,2.48252 -0.5151511,3.44001 0.047271,-0.79543 0.095991,-1.79304 0.145019,-2.82336 -0.088593,1.04986 -0.1739018,2.07239 -0.2316298,2.87505 -0.010735,-0.97394 -0.040977,-2.25829 -0.071094,-3.53824 a 5.2916671,5.2916671 0 0 0 -0.00701,1.9e-4 c -0.024119,1.24223 -0.047732,2.47793 -0.055248,3.44072 -0.069306,-0.95882 -0.1724649,-2.18862 -0.2763135,-3.42525 a 5.2916671,5.2916671 0 0 0 -0.00776,0.001 c 0.053074,1.29714 0.106532,2.60449 0.1592939,3.57845 -0.1153917,-0.82203 -0.2789161,-1.89128 -0.4463829,-2.98022 0.1212059,1.04423 0.2399485,2.05572 0.3432963,2.86379 -0.1983468,-0.94383 -0.4680422,-2.15691 -0.7390761,-3.37536 a 5.2916671,5.2916671 0 0 0 -0.011277,0.002 c 0.2237572,1.26534 0.4474919,2.53521 0.6297465,3.49587 -0.2606155,-0.94138 -0.6192958,-2.17747 -0.9770393,-3.40971 a 5.2916671,5.2916671 0 0 0 -0.00928,0.003 c 0.2990365,1.22512 0.5981196,2.44753 0.8395205,3.38784 -0.2697557,-0.783 -0.6203353,-1.76642 -0.982157,-2.77765 0.3374664,1.06628 0.6696298,2.1119 0.9354569,2.916 -0.3645017,-0.85589 -0.8582737,-1.97649 -1.3551249,-3.10281 0.4299622,1.0897 0.8529262,2.15967 1.1970916,3.00376 -0.4352231,-0.86598 -1.003249,-1.96452 -1.5746616,-3.07016 a 5.2916671,5.2916671 0 0 0 -0.00327,0.002 c 0.5485803,1.1812 1.1002845,2.37091 1.5263722,3.25836 -0.4799292,-0.81644 -1.128751,-1.88779 -1.7783162,-2.961 0.5753243,1.04289 1.142901,2.06981 1.5991313,2.87501 -0.4899984,-0.72543 -1.1143391,-1.62958 -1.7549339,-2.55511 0.6229622,0.97915 1.2376607,1.94366 1.7204622,2.68176 -0.5510765,-0.70664 -1.2792677,-1.61722 -2.0166963,-2.53857 0.703648,0.95327 1.399093,1.89373 1.944604,2.61395 -0.6296095,-0.70324 -1.46226,-1.61007 -2.298894,-2.52164 0.7978487,0.94319 1.5922214,1.88145 2.208832,2.59221 -0.6960331,-0.68022 -1.622498,-1.56384 -2.5472463,-2.44534 a 5.2916671,5.2916671 0 0 0 -0.0063,0.006 c 0.8662336,0.90008 1.7283978,1.79653 2.4061934,2.48458 -0.7296934,-0.63121 -1.6785038,-1.43383 -2.63231,-2.23968 a 5.2916671,5.2916671 0 0 0 -0.00379,0.004 c 0.9536074,0.8777 1.9126606,1.76103 2.6402911,2.41356 -0.6579324,-0.49711 -1.5162847,-1.12965 -2.3935616,-1.77501 0.8113254,0.64418 1.5974269,1.26648 2.2321355,1.7585 -0.8029608,-0.52543 -1.8452382,-1.1908 -2.893177,-1.85911 1.0453321,0.72902 2.0908161,1.45823 2.8984573,2.00712 -0.7853729,-0.44563 -1.8019936,-1.0071 -2.8341287,-1.57634 1.0202141,0.61593 2.0289812,1.22394 2.8100348,1.68224 -0.8841713,-0.42516 -2.0581057,-0.9711 -3.2266301,-1.51514 a 5.2916671,5.2916671 0 0 0 -0.00281,0.006 c 1.1197332,0.5814 2.2372855,1.16214 3.1068603,1.60073 -0.9003656,-0.36668 -2.0701605,-0.82734 -3.2433459,-1.28902 a 5.2916671,5.2916671 0 0 0 -5.177e-4,0.002 c 1.1869453,0.52528 2.3807716,1.05471 3.2835424,1.44049 -0.8647014,-0.28687 -2.0036651,-0.64946 -3.1526979,-1.01436 1.1136194,0.40223 2.2122,0.79879 3.066718,1.09565 -0.8947052,-0.23145 -2.0565589,-0.51668 -3.2298092,-0.80445 1.1606896,0.33441 2.3104222,0.66536 3.2014685,0.91022 -0.8921705,-0.16845 -2.0469652,-0.37288 -3.2174329,-0.57909 1.1652678,0.2526 2.3164361,0.50121 3.2072881,0.68284 -0.9702141,-0.11644 -2.2454804,-0.25375 -3.5183126,-0.39062 a 5.2916671,5.2916671 0 0 0 -7.765e-4,0.003 c 1.2443401,0.18687 2.4850958,0.37291 3.4473046,0.50588 -0.9706549,-0.0559 -2.22451,-0.11385 -3.4812582,-0.17151 a 5.2916671,5.2916671 0 0 0 -2.773e-4,0.003 c 1.2913246,0.11377 2.5909903,0.22869 3.5708151,0.30249 -0.9041191,0.007 -2.0867989,0.032 -3.2814079,0.057 1.157928,0.021 2.2938892,0.0401 3.1880451,0.0459 -0.8984364,0.0659 -2.040318,0.16254 -3.2029938,0.26151 1.1669199,-0.0534 2.3156618,-0.1065 3.2090298,-0.15825 -0.9544129,0.13386 -2.1947243,0.3231 -3.4372406,0.51278 1.2706198,-0.14054 2.5454202,-0.28114 3.5086725,-0.40001 -0.9537674,0.19923 -2.2124211,0.47892 -3.4664265,0.75748 a 5.2916671,5.2916671 0 0 0 7.207e-4,0.003 c 1.2145538,-0.21693 2.4196236,-0.4322 3.3631939,-0.61179 -0.925694,0.25296 -2.1006045,0.58797 -3.2847454,0.92599 1.252609,-0.30214 2.51115,-0.6054 3.4576464,-0.84649 -0.8404748,0.29035 -1.930269,0.68162 -3.0341043,1.07875 1.0987143,-0.34773 2.1763718,-0.68994 3.018193,-0.96746 -0.779736,0.32854 -1.762197,0.75492 -2.769539,1.19352 1.0348226,-0.40491 2.047806,-0.80251 2.8318639,-1.12064 -0.8579585,0.43377 -1.9791213,1.0184 -3.0995746,1.60262 1.1277192,-0.53024 2.2506243,-1.05898 3.1136399,-1.47741 -0.8394645,0.49415 -1.9224549,1.14936 -3.0067123,1.80512 a 5.2916671,5.2916671 0 0 0 0.00444,0.007 c 1.1419367,-0.62503 2.2927308,-1.25427 3.147836,-1.73681 -0.8033818,0.54717 -1.8641306,1.29004 -2.9196011,2.02909 1.0521118,-0.67381 2.099594,-1.3441 2.9051998,-1.87351 -0.7632197,0.59394 -1.7405728,1.37263 -2.7216534,2.15488 1.0153708,-0.74371 2.0279128,-1.48558 2.8005051,-2.06581 -0.5672546,0.50239 -1.266688,1.13476 -1.991519,1.79199 0.7525023,-0.63547 1.4778797,-1.25039 2.0523177,-1.74735 -0.6828324,0.69558 -1.5641579,1.61589 -2.444758,2.5351 a 5.2916671,5.2916671 0 0 0 0.010408,0.0111 c 0.9280466,-0.88582 1.8605369,-1.77522 2.5563764,-2.4565 -0.6080972,0.70426 -1.394483,1.63883 -2.18513,2.57844 0.8101443,-0.88818 1.6090895,-1.76474 2.2281281,-2.45939 -0.5189885,0.68488 -1.1618904,1.55242 -1.8209673,2.4433 0.720209,-0.8998 1.4298224,-1.78781 1.9637411,-2.47299 -0.5361488,0.82267 -1.2387327,1.93269 -1.9356848,3.03316 a 5.2916671,5.2916671 0 0 0 0.00821,0.005 c 0.7169116,-1.02928 1.4324659,-2.05638 1.9754526,-2.85613 -0.4761723,0.84009 -1.0806472,1.93609 -1.6863951,3.03522 a 5.2916671,5.2916671 0 0 0 0.00223,0.002 c 0.6693281,-1.10256 1.3417723,-2.20937 1.8401409,-3.05395 -0.367527,0.75958 -0.8284905,1.74083 -1.298678,2.74429 0.4887728,-0.94944 0.9618761,-1.87173 1.3312736,-2.61037 -0.3616425,0.89582 -0.8142123,2.05606 -1.2683226,3.22 a 5.2916671,5.2916671 0 0 0 0.00286,10e-4 c 0.5251693,-1.19412 1.0547419,-2.3976 1.4408893,-3.30698 -0.2570999,0.78195 -0.5764696,1.79326 -0.9022198,2.82805 0.3512691,-0.98769 0.6908788,-1.94598 0.9525094,-2.71025 -0.2405531,0.94615 -0.538851,2.18257 -0.83745,3.41891 a 5.2916671,5.2916671 0 0 0 0.016213,0.005 5.2916671,5.2916671 0 0 0 0.00499,0.001 c 0.3613816,-1.2427 0.7246461,-2.49031 0.9879682,-3.43957 -0.1517252,0.79597 -0.3333176,1.8118 -0.5189781,2.85531 0.217531,-1.00805 0.4264891,-1.98288 0.5860459,-2.76618 -0.117873,0.9681 -0.2557134,2.22046 -0.3936601,3.47577 a 5.2916671,5.2916671 0 0 0 0.00513,8.3e-4 c 0.1903573,-1.24233 0.3805711,-2.48222 0.5156503,-3.43987 -0.048109,0.80788 -0.097874,1.82428 -0.1478395,2.87182 0.09158,-1.08038 0.1801727,-2.1353 0.2396839,-2.95902 0.010647,0.98389 0.041267,2.28393 0.071449,3.57685 a 5.2916671,5.2916671 0 0 0 0.00525,3.8e-4 c 0.024326,-1.24708 0.048549,-2.48891 0.056436,-3.45914 0.068751,0.96641 0.1707527,2.20275 0.2734622,3.44588 a 5.2916671,5.2916671 0 0 0 0.006,-4.6e-4 c -0.052179,-1.31082 -0.104618,-2.63453 -0.1567495,-3.6179 0.114059,0.82156 0.2763496,1.89098 0.442123,2.98014 -0.1214805,-1.0596 -0.2408661,-2.09002 -0.344016,-2.90303 0.2019108,0.95909 0.4803163,2.20783 0.7585532,3.45441 a 5.2916671,5.2916671 0 0 0 0.00628,-0.001 c -0.2226018,-1.24665 -0.4447956,-2.49417 -0.6277908,-3.4539 0.2581414,0.93584 0.6072524,2.14555 0.9572319,3.35785 -0.2995612,-1.22553 -0.5990692,-2.44945 -0.840059,-3.38584 0.2649772,0.76544 0.6101743,1.72779 0.9664863,2.71833 -0.3290663,-1.03299 -0.6519656,-2.0423 -0.9119348,-2.82408 0.3648474,0.85228 0.8576041,1.9651 1.3536846,3.08422 -0.4357352,-1.0992 -0.8659507,-2.18144 -1.2127449,-3.0272 0.4401099,0.86849 1.020263,1.98082 1.6015633,3.09554 a 5.2916671,5.2916671 0 0 0 0.0043,-0.002 c -0.5401436,-1.15413 -1.0808524,-2.31029 -1.5063109,-3.19147 0.4755665,0.8092 1.1047248,1.8504 1.7386099,2.89954 -0.6026241,-1.09465 -1.2046289,-2.188 -1.6696076,-3.00732 0.554485,0.80999 1.3089856,1.88109 2.0576176,2.94491 a 5.2916671,5.2916671 0 0 0 0.01608,-0.0101 c -0.670693,-1.05151 -1.3383205,-2.09692 -1.8689542,-2.90826 0.4873239,0.63017 1.0974192,1.40343 1.7312542,2.20422 -0.634489,-0.86474 -1.2533559,-1.70694 -1.7459116,-2.36116 0.6306023,0.70808 1.4666716,1.62454 2.3062896,2.54395 -0.795305,-0.94491 -1.5867834,-1.88476 -2.2028328,-2.59862 0.7010931,0.68922 1.6333798,1.58346 2.5624228,2.47456 a 5.2916671,5.2916671 0 0 0 0.0031,-0.003 c -0.875385,-0.91417 -1.7497664,-1.82737 -2.43384,-2.52516 0.6336104,0.5503 1.439238,1.23438 2.267739,1.9371 -0.826143,-0.75592 -1.6379438,-1.49748 -2.2702871,-2.06137 0.7457258,0.5604 1.7381021,1.28692 2.7341051,2.01552 -0.930513,-0.74006 -1.84958,-1.47011 -2.5743694,-2.03264 0.8101304,0.53013 1.8657134,1.20335 2.9239424,1.87807 a 5.2916671,5.2916671 0 0 0 0.0043,-0.006 c -1.048722,-0.734 -2.098331,-1.46857 -2.9117202,-2.02352 0.8076512,0.46052 1.8535422,1.04105 2.9113602,1.62754 -1.057403,-0.64287 -2.110356,-1.28271 -2.9167963,-1.75899 0.8925613,0.43109 2.0882973,0.98908 3.2746643,1.54351 a 5.2916671,5.2916671 0 0 0 0.0018,-0.005 c -1.123897,-0.58436 -2.245592,-1.16724 -3.1201316,-1.60911 0.7290866,0.29816 1.6377336,0.65885 2.5799286,1.03156 -0.967437,-0.4238 -1.911274,-0.83623 -2.6501595,-1.14881 0.8674575,0.28409 2.0107775,0.64266 3.1635295,1.00389 -1.105919,-0.39479 -2.194843,-0.78253 -3.0485006,-1.07579 0.9514086,0.24303 2.1930306,0.54455 3.4343066,0.84589 a 5.2916671,5.2916671 0 0 0 10e-4,-0.004 5.2916671,5.2916671 0 0 0 0.0039,-0.0166 c -1.245834,-0.36353 -2.498136,-0.7291 -3.4492468,-0.99379 0.8893568,0.17008 2.0473028,0.37707 3.2193198,0.58603 -1.157873,-0.25362 -2.300786,-0.50325 -3.1861799,-0.68575 0.9651189,0.11774 2.2324009,0.2563 3.4984359,0.39492 -1.225931,-0.18582 -2.443927,-0.37037 -3.3975764,-0.50378 0.7978134,0.0479 1.7875684,0.0977 2.8130364,0.1476 -1.080067,-0.092 -2.136326,-0.18101 -2.9551307,-0.24025 0.9929497,-0.0114 2.3184957,-0.0445 3.6322157,-0.0764 a 5.2916671,5.2916671 0 0 0 4.39e-4,-0.0117 c -1.27258,-0.0251 -2.544673,-0.0506 -3.5265345,-0.0584 0.8280435,-0.0599 1.8685485,-0.14621 2.9394585,-0.23635 -1.066594,0.05 -2.103488,0.10001 -2.9244412,0.14836 0.9631412,-0.13581 2.2126072,-0.32734 3.4624122,-0.51887 a 5.2916671,5.2916671 0 0 0 -0.0019,-0.0112 c -1.247763,0.13519 -2.49319,0.26991 -3.4561622,0.38573 0.7434152,-0.15074 1.6620032,-0.34597 2.6160772,-0.55091 -1.023341,0.18212 -2.021989,0.36101 -2.7936174,0.50869 0.9530304,-0.2679 2.2309594,-0.64587 3.4954004,-1.01935 a 5.2916671,5.2916671 0 0 0 -4.48e-4,-0.002 c -1.230368,0.30814 -2.459235,0.61624 -3.4048083,0.86494 0.9237733,-0.32411 2.1148633,-0.7583 3.3068993,-1.19237 a 5.2916671,5.2916671 0 0 0 -0.0037,-0.0103 c -1.209566,0.38127 -2.418356,0.76309 -3.3474298,1.06809 0.6633748,-0.27841 1.4765008,-0.62861 2.3238428,-0.99568 -0.867321,0.34118 -1.700782,0.67043 -2.3689508,0.9424 0.8714918,-0.44063 2.0053248,-1.03168 3.1378808,-1.62179 a 5.2916671,5.2916671 0 0 0 -0.0046,-0.0105 c -1.170542,0.54614 -2.346464,1.09414 -3.229299,1.51972 0.844817,-0.49766 1.955234,-1.17077 3.060082,-1.84058 a 5.2916671,5.2916671 0 0 0 -0.0049,-0.008 c -1.116582,0.61267 -2.234108,1.2259 -3.0826208,1.70507 0.7844168,-0.53189 1.7950098,-1.23527 2.8100778,-1.94181 -1.047902,0.66734 -2.090932,1.33213 -2.8880658,1.8535 0.7668918,-0.59589 1.7587358,-1.38628 2.7511088,-2.17696 -1.021493,0.74743 -2.042232,1.49469 -2.8165969,2.07595 0.5819233,-0.516 1.3058949,-1.17194 2.0533039,-1.85086 -0.767208,0.64834 -1.5080249,1.27644 -2.0935365,1.78338 0.6800081,-0.69352 1.5564825,-1.60969 2.4331955,-2.52589 a 5.2916671,5.2916671 0 0 0 -0.0054,-0.006 c -0.918559,0.88087 -1.8379295,1.76348 -2.5313633,2.44502 0.6346375,-0.73513 1.4537713,-1.7082 2.2723323,-2.68027 -0.848599,0.92696 -1.6946991,1.85075 -2.3426433,2.57529 0.5178915,-0.68154 1.1600133,-1.54677 1.8186923,-2.43481 -0.716902,0.89314 -1.4226819,1.77398 -1.95453,2.45459 0.5348182,-0.81878 1.235027,-1.92252 1.929772,-3.01708 a 5.2916671,5.2916671 0 0 0 -4.99e-4,-1.4e-4 c -0.719111,1.03453 -1.4368515,2.06746 -1.9833935,2.87378 0.479776,-0.84661 1.0866946,-1.94729 1.6946665,-3.05012 a 5.2916671,5.2916671 0 0 0 -0.0085,-0.004 c -0.6660313,1.09244 -1.3345556,2.18814 -1.8319192,3.02725 0.3471776,-0.71463 0.7777147,-1.62652 1.2198368,-2.56585 -0.4682527,0.90806 -0.9203735,1.78716 -1.2733753,2.49212 0.3626056,-0.8991 0.8205645,-2.07434 1.2788781,-3.25141 a 5.2916671,5.2916671 0 0 0 -0.00697,-0.004 c -0.5223698,1.18802 -1.0482578,2.3831 -1.431512,3.28596 0.2571921,-0.78203 0.5766948,-1.79445 0.9027553,-2.83004 -0.3421756,0.96196 -0.6706929,1.89003 -0.9294626,2.64419 0.2394774,-0.93079 0.5312172,-2.12066 0.8251147,-3.31896 a 5.2916671,5.2916671 0 0 0 -0.00535,-0.002 z m 0.1097039,0.67674 c 0.069419,-0.19516 0.1343218,-0.37982 0.2039776,-0.57557 a 5.2916671,5.2916671 0 0 0 -0.020206,-0.006 c -0.06235,0.19811 -0.1215843,0.38451 -0.1837816,0.58206 z m 0.53034,0.30688 c 0.1086178,-0.21064 0.2111068,-0.41051 0.3202078,-0.622 a 5.2916671,5.2916671 0 0 0 -0.02243,-0.0102 c -0.101151,0.215 -0.196918,0.4177 -0.2976845,0.63178 z m 0.9345128,0.28198 c 0.09515,-0.11855 0.184429,-0.23018 0.279636,-0.34879 a 5.2916671,5.2916671 0 0 0 -0.01292,-0.01 c -0.09048,0.12198 -0.176175,0.2362 -0.266631,0.35816 z m 0.448742,0.84301 c 0.1961,-0.16572 0.381945,-0.32349 0.579095,-0.49003 a 5.2916671,5.2916671 0 0 0 -0.01799,-0.0187 c -0.190675,0.17328 -0.371352,0.3364 -0.56111,0.50877 z m 0.763292,-0.22508 c 0.0063,-0.005 0.01225,-0.009 0.01853,-0.0133 a 5.2916671,5.2916671 0 0 0 -7.08e-4,-0.001 c -0.006,0.005 -0.01168,0.01 -0.0178,0.0145 z m 0.136958,0.32346 c 0.03012,-0.0192 0.05834,-0.0374 0.08845,-0.0565 a 5.2916671,5.2916671 0 0 0 -0.0017,-0.004 c -0.0295,0.0206 -0.05724,0.0396 -0.08675,0.0602 z m -0.317568,1.25507 c 0.308285,-0.12127 0.604164,-0.23836 0.915747,-0.36078 a 5.2916671,5.2916671 0 0 0 -0.01151,-0.0309 c -0.307529,0.13337 -0.599752,0.25977 -0.904232,0.39168 z m 0.424022,0.77754 c 0.267449,-0.0476 0.521644,-0.0935 0.790588,-0.14126 a 5.2916671,5.2916671 0 0 0 -0.0044,-0.0274 c -0.26743,0.0575 -0.520335,0.11156 -0.78616,0.16867 z m 0.30393,0.54688 c 0.193572,-0.009 0.376096,-0.0179 0.570049,-0.027 a 5.2916671,5.2916671 0 0 0 -9.16e-4,-0.0205 c -0.193605,0.0164 -0.375844,0.0313 -0.569144,0.0476 z m -0.09045,0.62311 c 0.224435,0.0191 0.436682,0.0367 0.661795,0.0559 a 5.2916671,5.2916671 0 0 0 8.52e-4,-0.0233 c -0.225423,-0.0109 -0.43797,-0.0217 -0.662686,-0.0326 z m 0.584541,0.35617 c 0.01597,0.002 0.03075,0.005 0.04671,0.007 a 5.2916671,5.2916671 0 0 0 1.9e-5,-0.002 c -0.0158,-0.002 -0.03093,-0.003 -0.04674,-0.005 z m -0.312256,0.29084 c 0.105101,0.023 0.203835,0.0443 0.308867,0.0672 a 5.2916671,5.2916671 0 0 0 0.0021,-0.0118 c -0.105725,-0.019 -0.205103,-0.0366 -0.310948,-0.0555 z m -0.160865,0.65827 c 0.09512,0.0338 0.184357,0.0656 0.279358,0.0995 a 5.2916671,5.2916671 0 0 0 0.0033,-0.0104 c -0.09627,-0.0299 -0.186313,-0.0592 -0.282677,-0.0891 z m -0.513371,0.14492 c 0.2253,0.0987 0.439088,0.19147 0.665241,0.2906 a 5.2916671,5.2916671 0 0 0 0.01038,-0.0229 c -0.229857,-0.0909 -0.446664,-0.17714 -0.675657,-0.26769 z m 0.18063,0.79739 c 0.06087,0.037 0.118239,0.0714 0.179056,0.10844 a 5.2916671,5.2916671 0 0 0 0.0041,-0.007 c -0.06226,-0.0345 -0.12076,-0.0669 -0.183073,-0.10143 z m -0.353584,0.55688 c 0.05267,0.0419 0.102263,0.0809 0.154887,0.12277 a 5.2916671,5.2916671 0 0 0 0.0043,-0.006 c -0.05417,-0.0396 -0.10505,-0.0768 -0.159248,-0.11648 z m -0.463819,0.0459 c 0.130933,0.11977 0.25432,0.23261 0.385417,0.35258 a 5.2916671,5.2916671 0 0 0 0.01242,-0.0143 c -0.135468,-0.11487 -0.262505,-0.22348 -0.397817,-0.33825 z m -0.196469,0.71507 c 0.03457,0.0411 0.06686,0.0797 0.101391,0.12076 a 5.2916671,5.2916671 0 0 0 0.005,-0.005 c -0.03611,-0.0396 -0.07019,-0.0767 -0.106361,-0.11619 z m -0.560387,-0.18276 c 0.130449,0.17779 0.254266,0.3454 0.385045,0.52368 a 5.2916671,5.2916671 0 0 0 0.01767,-0.014 c -0.137157,-0.17324 -0.265992,-0.33695 -0.402705,-0.50968 z m -0.266401,0.77658 c 0.0252,0.0458 0.04902,0.0886 0.0742,0.13437 a 5.2916671,5.2916671 0 0 0 0.005,-0.003 c -0.02701,-0.0447 -0.05225,-0.0867 -0.07927,-0.13145 z m -0.6254138,0.22564 c 0.028103,0.071 0.054631,0.13747 0.082735,0.20835 a 5.2916671,5.2916671 0 0 0 0.00777,-0.003 c -0.03091,-0.0697 -0.05963,-0.13532 -0.090563,-0.2051 z m -0.4417508,-0.26014 c 0.064214,0.20159 0.1253459,0.39179 0.1896946,0.59385 a 5.2916671,5.2916671 0 0 0 0.02031,-0.008 c -0.071697,-0.19926 -0.1385231,-0.38719 -0.2100099,-0.58592 z m -0.1264302,0.6675 c 0.00131,0.006 0.00272,0.0111 0.00426,0.0162 a 5.2916671,5.2916671 0 0 0 4.994e-4,1.3e-4 c -0.0016,-0.006 -0.00301,-0.0112 -0.00475,-0.0163 z m -0.7501283,-0.45298 c 0.023601,0.20588 0.046003,0.40027 0.069643,0.60663 a 5.2916671,5.2916671 0 0 0 0.021797,-0.003 c -0.031256,-0.20522 -0.060229,-0.39863 -0.091385,-0.60335 z m -0.9376896,0.0334 c -0.017354,0.20472 -0.033475,0.398 -0.050887,0.60321 a 5.2916671,5.2916671 0 0 0 0.02176,6.5e-4 c 0.00978,-0.20558 0.019439,-0.39919 0.029218,-0.6042 z m -0.5653771,-0.14218 c -0.048229,0.22349 -0.093421,0.4349 -0.1418278,0.65909 a 5.2916671,5.2916671 0 0 0 0.022594,0.006 c 0.040204,-0.22612 0.079129,-0.43921 0.1192341,-0.66462 z m -0.6052544,-0.13112 c -0.072714,0.20446 -0.1410152,0.39781 -0.2139637,0.60286 a 5.2916671,5.2916671 0 0 0 0.021703,0.007 c 0.065287,-0.20745 0.1271344,-0.40283 0.1922671,-0.60974 z M 5.8314632,226.2065 c -0.083101,0.16143 -0.1612685,0.31364 -0.2445351,0.47536 a 5.2916671,5.2916671 0 0 0 0.017692,0.008 c 0.077066,-0.1645 0.1499078,-0.31906 0.2268687,-0.4833 z m -0.8689906,-0.43676 c -0.094108,0.11758 -0.1825424,0.22819 -0.2767022,0.34583 a 5.2916671,5.2916671 0 0 0 0.012922,0.01 c 0.089495,-0.12098 0.1742215,-0.23425 0.2636993,-0.35521 z m -0.3964401,-0.90443 c -0.2138165,0.18056 -0.4169583,0.35294 -0.6322413,0.53464 a 5.2916671,5.2916671 0 0 0 0.019208,0.0202 c 0.2083295,-0.18899 0.4060011,-0.36706 0.6130252,-0.55477 z m -0.8089862,0.27382 c -0.00609,0.005 -0.011843,0.008 -0.017903,0.0129 a 5.2916671,5.2916671 0 0 0 8.629e-4,7.5e-4 c 0.00581,-0.005 0.011222,-0.009 0.017034,-0.0137 z M 3.5735,224.85777 c -0.011252,0.007 -0.021734,0.0139 -0.032937,0.0211 a 5.2916671,5.2916671 0 0 0 0.00124,0.001 c 0.010834,-0.008 0.020866,-0.0149 0.031724,-0.0226 z m -0.3396824,-0.62709 c -0.016705,0.008 -0.032316,0.0154 -0.049017,0.0232 a 5.2916671,5.2916671 0 0 0 9.796e-4,0.002 c 0.016339,-0.009 0.03159,-0.0166 0.047934,-0.0251 z m 0.2677107,-0.48198 c -0.1574207,0.0616 -0.3055932,0.11969 -0.4632157,0.18136 a 5.2916671,5.2916671 0 0 0 0.00673,0.0168 c 0.1552206,-0.0676 0.3014034,-0.13063 0.4564784,-0.19814 z m -0.2486541,-0.22606 c -0.1116482,0.0353 -0.2164244,0.0688 -0.3280425,0.10417 a 5.2916671,5.2916671 0 0 0 0.00432,0.0118 c 0.1101136,-0.0397 0.2136108,-0.0764 0.3237305,-0.11603 z m -0.5450661,-0.90681 c -0.00513,6.9e-4 -0.0099,0.001 -0.01503,0.002 a 5.2916671,5.2916671 0 0 0 -1.32e-4,4.9e-4 c 0.00512,-7e-4 0.00992,-0.001 0.01503,-0.002 z m 0.2282108,-0.35454 c -0.093132,0.004 -0.1804964,0.009 -0.2736075,0.0128 a 5.2916671,5.2916671 0 0 0 6.65e-4,0.01 c 0.092873,-0.008 0.1801067,-0.0147 0.2730198,-0.0226 z m 0.014949,-0.30736 c -0.103289,-0.002 -0.2002683,-0.003 -0.3035162,-0.005 a 5.2916671,5.2916671 0 0 0 -3.29e-4,0.0112 c 0.1033501,-0.002 0.2004313,-0.004 0.3038157,-0.006 z m 0.056544,-0.99171 c -0.088029,-0.0194 -0.1709444,-0.0365 -0.2589066,-0.056 a 5.2916671,5.2916671 0 0 0 -0.00209,0.01 c 0.088836,0.0155 0.17212,0.0307 0.2609439,0.0464 z m 0.015975,-0.33116 c -0.06772,-0.0192 -0.1312187,-0.0372 -0.1986271,-0.0574 a 5.2916671,5.2916671 0 0 0 -0.00157,0.008 c 0.067999,0.0172 0.1321473,0.0323 0.2001986,0.0495 z m 0.1630942,-0.29121 c -0.087285,-0.0317 -0.1693785,-0.0608 -0.256681,-0.0923 a 5.2916671,5.2916671 0 0 0 -0.00316,0.01 c 0.088461,0.0278 0.1714532,0.0542 0.2598459,0.0825 z m 0.4255097,-0.91316 c -0.082445,-0.0497 -0.1598286,-0.0965 -0.2422127,-0.14628 a 5.2916671,5.2916671 0 0 0 -0.00516,0.009 c 0.084227,0.0465 0.1631323,0.0904 0.2474002,0.1369 z m 0.5967129,-0.33017 c -0.1594495,-0.12659 -0.3105444,-0.24571 -0.4704418,-0.37269 a 5.2916671,5.2916671 0 0 0 -0.012056,0.0171 c 0.1642793,0.12083 0.3186743,0.23506 0.4825133,0.35559 z m 0.3279995,-1.04042 c -0.027819,-0.0329 -0.053791,-0.0639 -0.081618,-0.0967 a 5.2916671,5.2916671 0 0 0 -0.00379,0.004 c 0.029025,0.0316 0.056284,0.0612 0.085304,0.0929 z m 0.3542901,-0.0923 c -0.055686,-0.0754 -0.1080854,-0.1461 -0.1637427,-0.2215 a 5.2916671,5.2916671 0 0 0 -0.00806,0.006 c 0.058549,0.0731 0.1133188,0.14195 0.1718728,0.21512 z m 0.296234,-0.14319 c -0.060929,-0.0957 -0.118357,-0.18553 -0.1792838,-0.2813 a 5.2916671,5.2916671 0 0 0 -0.010318,0.007 c 0.064605,0.0933 0.1250696,0.1811 0.1896799,0.27444 z m 0.1558026,-0.31991 c -0.023856,-0.0432 -0.046477,-0.0837 -0.070317,-0.12691 a 5.2916671,5.2916671 0 0 0 -0.00453,0.003 c 0.025491,0.0421 0.049383,0.0817 0.074883,0.12385 z m 0.6326799,-0.23279 c -0.027606,-0.0699 -0.053827,-0.13541 -0.081409,-0.20531 a 5.2916671,5.2916671 0 0 0 -0.00779,0.003 c 0.030372,0.0689 0.058697,0.13363 0.089101,0.20256 z m 0.4196758,0.18679 c -0.05567,-0.17638 -0.1084519,-0.34232 -0.1642908,-0.51878 a 5.2916671,5.2916671 0 0 0 -0.018424,0.007 c 0.062301,0.17409 0.1206287,0.33799 0.1828029,0.51175 z m 0.9060858,-0.18896 c -0.022243,-0.19162 -0.043692,-0.37238 -0.065967,-0.56444 a 5.2916671,5.2916671 0 0 0 -0.02004,0.003 c 0.029384,0.19095 0.056781,0.37078 0.086077,0.56126 z m 0.935926,0.0491 c 0.01856,-0.21997 0.035879,-0.42804 0.054534,-0.64877 a 5.2916671,5.2916671 0 0 0 -0.023257,-0.001 c -0.010491,0.22108 -0.020753,0.42936 -0.031236,0.64967 z m 0.6030415,0.0535 c 0.046301,-0.20846 0.089347,-0.40559 0.1358171,-0.61469 a 5.2916671,5.2916671 0 0 0 -0.021596,-0.005 c -0.038801,0.2109 -0.075512,0.40969 -0.1142213,0.61995 z m -4.2867526,8.41919 c -0.037207,0.0408 -0.072011,0.0793 -0.1091949,0.12001 a 5.2916671,5.2916671 0 0 0 0.00422,0.004 c 0.035633,-0.0423 0.069342,-0.082 0.1050063,-0.12434 z"
         style="opacity:1;fill:#666666;fill-opacity:0.24338624;fill-rule:nonzero;stroke:none;stroke-width:0.45342985;stroke-linecap:butt;stroke-linejoin:miter;stroke-miterlimit:4;stroke-dasharray:none;stroke-dashoffset:0;stroke-opacity:1;paint-order:markers stroke fill" />
      <g
         transform="matrix(1.0427388,0,0,1.0427388,-0.33865578,-9.4683458)"
         id="g3112-1-7-5-6">
        <path
           sodipodi:type="star"
           style="opacity:1;fill:#ececec;fill-opacity:1;fill-rule:nonzero;stroke:none;stroke-width:0.05291667;stroke-linecap:butt;stroke-linejoin:miter;stroke-miterlimit:4;stroke-dasharray:none;stroke-dashoffset:0;stroke-opacity:1;paint-order:markers stroke fill"
           id="path1073-8-9-1-1"
           sodipodi:sides="7"
           sodipodi:cx="107.01472"
           sodipodi:cy="162.7171"
           sodipodi:r1="5.5033412"
           sodipodi:r2="6.1148238"
           sodipodi:arg1="1.0471976"
           sodipodi:arg2="1.4959965"
           inkscape:flatsided="false"
           inkscape:rounded="0.52"
           inkscape:randomized="0"
           d="m 109.76639,167.48314 c -1.19479,0.68981 -0.91894,1.22859 -2.29471,1.33169 -1.37577,0.1031 -1.1833,-0.47078 -2.46756,-0.97481 -1.28426,-0.50404 -1.5335,0.0476 -2.47189,-0.96378 -0.93838,-1.01134 -0.3697,-1.21867 -0.77636,-2.537 -0.40665,-1.31833 -0.9933,-1.16929 -0.78768,-2.53351 0.20562,-1.36421 0.72228,-1.04887 1.49945,-2.18877 0.77717,-1.1399 0.29487,-1.50564 1.48967,-2.19545 1.19479,-0.68981 1.27037,-0.0893 2.64614,-0.19236 1.37577,-0.1031 1.361,-0.70821 2.64526,-0.20418 1.28426,0.50404 0.86186,0.93757 1.80024,1.94891 0.93839,1.01134 1.40227,0.62251 1.80893,1.94085 0.40665,1.31833 -0.19567,1.25838 -0.40129,2.6226 -0.20562,1.36422 0.3876,1.48447 -0.38957,2.62437 -0.77717,1.13991 -1.10584,0.63162 -2.30063,1.32144 z"
           inkscape:transform-center-x="-0.046253209"
           inkscape:transform-center-y="0.030604454"
           transform="matrix(-0.55508186,0.59594563,-0.59594563,-0.55508186,164.31008,248.47409)" />
        <path
           sodipodi:type="star"
           style="opacity:1;fill:#1a1a1a;fill-opacity:0.71428576;fill-rule:nonzero;stroke:none;stroke-width:0.05291667;stroke-linecap:butt;stroke-linejoin:miter;stroke-miterlimit:4;stroke-dasharray:none;stroke-dashoffset:0;stroke-opacity:1;paint-order:markers stroke fill"
           id="path1073-6-3-5-0-4"
           sodipodi:sides="7"
           sodipodi:cx="107.01472"
           sodipodi:cy="162.7171"
           sodipodi:r1="5.5033412"
           sodipodi:r2="6.1148238"
           sodipodi:arg1="1.0471976"
           sodipodi:arg2="1.4959965"
           inkscape:flatsided="false"
           inkscape:rounded="0.52"
           inkscape:randomized="0"
           d="m 109.76639,167.48314 c -1.19479,0.68981 -0.91894,1.22859 -2.29471,1.33169 -1.37577,0.1031 -1.1833,-0.47078 -2.46756,-0.97481 -1.28426,-0.50404 -1.5335,0.0476 -2.47189,-0.96378 -0.93838,-1.01134 -0.3697,-1.21867 -0.77636,-2.537 -0.40665,-1.31833 -0.9933,-1.16929 -0.78768,-2.53351 0.20562,-1.36421 0.72228,-1.04887 1.49945,-2.18877 0.77717,-1.1399 0.29487,-1.50564 1.48967,-2.19545 1.19479,-0.68981 1.27037,-0.0893 2.64614,-0.19236 1.37577,-0.1031 1.361,-0.70821 2.64526,-0.20418 1.28426,0.50404 0.86186,0.93757 1.80024,1.94891 0.93839,1.01134 1.40227,0.62251 1.80893,1.94085 0.40665,1.31833 -0.19567,1.25838 -0.40129,2.6226 -0.20562,1.36422 0.3876,1.48447 -0.38957,2.62437 -0.77717,1.13991 -1.10584,0.63162 -2.30063,1.32144 z"
           inkscape:transform-center-x="-0.045886877"
           inkscape:transform-center-y="0.030369258"
           transform="matrix(-0.55078086,0.59132801,-0.59132801,-0.55078086,163.09806,248.26709)" />
        <path
           sodipodi:type="star"
           style="opacity:1;fill:#1a1a1a;fill-opacity:0.71428576;fill-rule:nonzero;stroke:none;stroke-width:0.05291667;stroke-linecap:butt;stroke-linejoin:miter;stroke-miterlimit:4;stroke-dasharray:none;stroke-dashoffset:0;stroke-opacity:1;paint-order:markers stroke fill"
           id="path1073-6-8-31-6-0-0"
           sodipodi:sides="7"
           sodipodi:cx="107.01472"
           sodipodi:cy="162.7171"
           sodipodi:r1="5.5033412"
           sodipodi:r2="6.1148238"
           sodipodi:arg1="1.0471976"
           sodipodi:arg2="1.4959965"
           inkscape:flatsided="false"
           inkscape:rounded="0.52"
           inkscape:randomized="0"
           d="m 109.76639,167.48314 c -1.19479,0.68981 -0.91894,1.22859 -2.29471,1.33169 -1.37577,0.1031 -1.1833,-0.47078 -2.46756,-0.97481 -1.28426,-0.50404 -1.5335,0.0476 -2.47189,-0.96378 -0.93838,-1.01134 -0.3697,-1.21867 -0.77636,-2.537 -0.40665,-1.31833 -0.9933,-1.16929 -0.78768,-2.53351 0.20562,-1.36421 0.72228,-1.04887 1.49945,-2.18877 0.77717,-1.1399 0.29487,-1.50564 1.48967,-2.19545 1.19479,-0.68981 1.27037,-0.0893 2.64614,-0.19236 1.37577,-0.1031 1.361,-0.70821 2.64526,-0.20418 1.28426,0.50404 0.86186,0.93757 1.80024,1.94891 0.93839,1.01134 1.40227,0.62251 1.80893,1.94085 0.40665,1.31833 -0.19567,1.25838 -0.40129,2.6226 -0.20562,1.36422 0.3876,1.48447 -0.38957,2.62437 -0.77717,1.13991 -1.10584,0.63162 -2.30063,1.32144 z"
           inkscape:transform-center-x="-0.043270106"
           inkscape:transform-center-y="0.02863948"
           transform="matrix(-0.51942241,0.55766104,-0.55766104,-0.51942241,154.2613,246.75785)" />
        <circle
           style="opacity:1;fill:#ffffff;fill-opacity:0.71428576;fill-rule:nonzero;stroke:none;stroke-width:0.02002666;stroke-linecap:butt;stroke-linejoin:miter;stroke-miterlimit:4;stroke-dasharray:none;stroke-dashoffset:0;stroke-opacity:1;paint-order:markers stroke fill"
           id="path1119-0-5-8-4"
           cx="7.936501"
           cy="217.79205"
           r="0.47563294" />
      </g>
    </g>
  </g>
</svg>
