<?xml version="1.0" encoding="UTF-8" standalone="no"?>
<!-- Created with Inkscape (http://www.inkscape.org/) -->

<svg
   xmlns:dc="http://purl.org/dc/elements/1.1/"
   xmlns:cc="http://creativecommons.org/ns#"
   xmlns:rdf="http://www.w3.org/1999/02/22-rdf-syntax-ns#"
   xmlns:svg="http://www.w3.org/2000/svg"
   xmlns="http://www.w3.org/2000/svg"
   xmlns:sodipodi="http://sodipodi.sourceforge.net/DTD/sodipodi-0.dtd"
   xmlns:inkscape="http://www.inkscape.org/namespaces/inkscape"
   width="40"
   height="40"
   viewBox="0 0 10.583333 10.583333"
   version="1.1"
   id="svg1538"
   inkscape:version="0.92.2 (5c3e80d, 2017-08-06)"
   sodipodi:docname="BarkKnob_40.svg">
  <defs
     id="defs1532" />
  <sodipodi:namedview
     id="base"
     pagecolor="#ffffff"
     bordercolor="#666666"
     borderopacity="1.0"
     inkscape:pageopacity="0.0"
     inkscape:pageshadow="2"
     inkscape:zoom="63.356767"
     inkscape:cx="18.156318"
     inkscape:cy="39.637402"
     inkscape:document-units="px"
     inkscape:current-layer="layer1"
     showgrid="false"
     inkscape:snap-global="false"
     units="px" />
  <metadata
     id="metadata1535">
    <rdf:RDF>
      <cc:Work
         rdf:about="">
        <dc:format>image/svg+xml</dc:format>
        <dc:type
           rdf:resource="http://purl.org/dc/dcmitype/StillImage" />
        <dc:title />
      </cc:Work>
    </rdf:RDF>
  </metadata>
  <g
     inkscape:label="Layer 1"
     inkscape:groupmode="layer"
     id="layer1"
     transform="translate(-89.95813,-165.46442)">
    <circle
       style="opacity:1;fill:#808080;fill-opacity:1;fill-rule:nonzero;stroke:none;stroke-width:0.04867348;stroke-linecap:butt;stroke-linejoin:miter;stroke-miterlimit:4;stroke-dasharray:none;stroke-dashoffset:0;stroke-opacity:1;paint-order:markers stroke fill"
       id="path1075-1"
       cx="95.249794"
       cy="170.75609"
       r="5.2916665" />
    <path
       style="opacity:1;fill:#666666;fill-opacity:0.24338624;fill-rule:nonzero;stroke:none;stroke-width:0.45342985;stroke-linecap:butt;stroke-linejoin:miter;stroke-miterlimit:4;stroke-dasharray:none;stroke-dashoffset:0;stroke-opacity:1;paint-order:markers stroke fill"
       d="m 96.619749,165.64336 a 5.2916669,5.2916669 0 0 0 -0.01611,-0.004 c -0.358278,1.21494 -0.716599,2.42974 -0.980726,3.36661 0.155688,-0.79265 0.341169,-1.79315 0.530992,-2.82426 -0.233544,1.05147 -0.460541,2.07926 -0.627558,2.87917 0.119051,-0.97053 0.26037,-2.26322 0.40127,-3.54809 a 5.2916669,5.2916669 0 0 0 -0.0066,-6.7e-4 c -0.190402,1.24248 -0.380104,2.48252 -0.515152,3.44002 0.04727,-0.79544 0.09599,-1.79304 0.14502,-2.82336 -0.08859,1.04986 -0.173902,2.07238 -0.23163,2.87504 -0.01073,-0.97394 -0.04098,-2.25828 -0.07109,-3.53824 a 5.2916669,5.2916669 0 0 0 -0.007,2e-4 c -0.02412,1.24222 -0.04773,2.47792 -0.05525,3.44072 -0.06931,-0.95882 -0.172464,-2.18862 -0.276313,-3.42526 a 5.2916669,5.2916669 0 0 0 -0.0078,6.7e-4 c 0.05307,1.29714 0.106532,2.60449 0.159294,3.57845 -0.115392,-0.82203 -0.278917,-1.89128 -0.446383,-2.98022 0.121206,1.04423 0.239948,2.05572 0.343296,2.86379 -0.198347,-0.94383 -0.468042,-2.15691 -0.739076,-3.37536 a 5.2916669,5.2916669 0 0 0 -0.01127,0.002 c 0.223758,1.26534 0.447492,2.53521 0.629747,3.49587 -0.260616,-0.94138 -0.619296,-2.17747 -0.977039,-3.40971 a 5.2916669,5.2916669 0 0 0 -0.0093,0.003 c 0.299036,1.22512 0.598119,2.44754 0.83952,3.38784 -0.269756,-0.783 -0.620335,-1.76642 -0.982157,-2.77764 0.337467,1.06628 0.66963,2.1119 0.935457,2.916 -0.364502,-0.8559 -0.858274,-1.9765 -1.355125,-3.10282 0.429962,1.0897 0.852926,2.15968 1.197091,3.00376 -0.435222,-0.86598 -1.003248,-1.96452 -1.574661,-3.07016 a 5.2916669,5.2916669 0 0 0 -0.0033,0.002 c 0.54858,1.1812 1.100285,2.37092 1.526372,3.25837 -0.479928,-0.81645 -1.12875,-1.88779 -1.778316,-2.96101 0.575324,1.0429 1.142902,2.06982 1.599132,2.87502 -0.489999,-0.72543 -1.11434,-1.62958 -1.754934,-2.55512 0.622962,0.97916 1.23766,1.94366 1.720462,2.68176 -0.551076,-0.70664 -1.279268,-1.61722 -2.016696,-2.53856 0.703648,0.95326 1.399092,1.89372 1.944604,2.61394 -0.62961,-0.70324 -1.46226,-1.61006 -2.298894,-2.52164 0.797848,0.9432 1.592221,1.88146 2.208832,2.59222 -0.696034,-0.68022 -1.622498,-1.56384 -2.547246,-2.44534 a 5.2916669,5.2916669 0 0 0 -0.0063,0.006 c 0.866234,0.90008 1.728398,1.79652 2.406194,2.48458 -0.729694,-0.63122 -1.678504,-1.43384 -2.63231,-2.23968 a 5.2916669,5.2916669 0 0 0 -0.0038,0.004 c 0.953607,0.8777 1.91266,1.76102 2.64029,2.41356 -0.657932,-0.49712 -1.516284,-1.12966 -2.393561,-1.77502 0.811325,0.64418 1.597427,1.26648 2.232135,1.7585 -0.80296,-0.52542 -1.845238,-1.1908 -2.893176,-1.8591 1.045332,0.72902 2.090816,1.45822 2.898457,2.00712 -0.785373,-0.44564 -1.801994,-1.0071 -2.834129,-1.57634 1.020214,0.61592 2.028981,1.22394 2.810035,1.68224 -0.884171,-0.42516 -2.058106,-0.9711 -3.22663,-1.51514 a 5.2916669,5.2916669 0 0 0 -0.0028,0.006 c 1.119733,0.5814 2.237285,1.16214 3.10686,1.60072 -0.900365,-0.36668 -2.070161,-0.82734 -3.243346,-1.28902 a 5.2916669,5.2916669 0 0 0 -5.17e-4,0.002 c 1.186945,0.52528 2.380771,1.05472 3.283542,1.4405 -0.864702,-0.28687 -2.003665,-0.64946 -3.152698,-1.01436 1.113619,0.40222 2.2122,0.79878 3.066718,1.09565 -0.894705,-0.23145 -2.056559,-0.51669 -3.229809,-0.80445 1.160689,0.3344 2.310422,0.66536 3.201468,0.91022 -0.89217,-0.16845 -2.046965,-0.37288 -3.217433,-0.5791 1.165268,0.2526 2.316436,0.50122 3.207288,0.68284 -0.970214,-0.11644 -2.24548,-0.25374 -3.518312,-0.39062 a 5.2916669,5.2916669 0 0 0 -8e-4,0.003 c 1.24434,0.18687 2.485096,0.37291 3.447304,0.50588 -0.970654,-0.0559 -2.22451,-0.11385 -3.481257,-0.17151 a 5.2916669,5.2916669 0 0 0 -2.78e-4,0.003 c 1.291325,0.11376 2.590991,0.22868 3.570815,0.30248 -0.904119,0.007 -2.086799,0.032 -3.281408,0.057 1.157928,0.021 2.29389,0.0401 3.188046,0.0459 -0.898437,0.0659 -2.040318,0.16254 -3.202994,0.26151 1.16692,-0.0534 2.315662,-0.1065 3.20903,-0.15825 -0.954414,0.13386 -2.194725,0.3231 -3.437241,0.51278 1.270619,-0.14054 2.54542,-0.28114 3.508672,-0.40001 -0.953767,0.19923 -2.212421,0.47892 -3.466426,0.75748 a 5.2916669,5.2916669 0 0 0 7.33e-4,0.003 c 1.214554,-0.21694 2.419624,-0.4322 3.363194,-0.6118 -0.925694,0.25296 -2.100604,0.58798 -3.284746,0.926 1.25261,-0.30214 2.51115,-0.6054 3.457647,-0.8465 -0.840475,0.29036 -1.930269,0.68162 -3.034104,1.07876 1.098714,-0.34774 2.176371,-0.68994 3.018193,-0.96746 -0.779736,0.32854 -1.762197,0.75492 -2.769539,1.19352 1.034823,-0.40492 2.047806,-0.80252 2.831863,-1.12064 -0.857958,0.43376 -1.97912,1.0184 -3.099574,1.60262 1.127719,-0.53024 2.250624,-1.05898 3.11364,-1.47742 -0.839464,0.49416 -1.922455,1.14936 -3.006712,1.80512 a 5.2916669,5.2916669 0 0 0 0.0045,0.007 c 1.141937,-0.62502 2.292731,-1.25426 3.147836,-1.7368 -0.803382,0.54716 -1.86413,1.29004 -2.919601,2.02908 1.052112,-0.6738 2.099594,-1.3441 2.9052,-1.8735 -0.76322,0.59394 -1.740573,1.37262 -2.721653,2.15488 1.01537,-0.74372 2.027912,-1.48558 2.800505,-2.06582 -0.567255,0.5024 -1.266688,1.13476 -1.991519,1.792 0.752502,-0.63548 1.47788,-1.2504 2.052318,-1.74736 -0.682833,0.69558 -1.564158,1.6159 -2.444758,2.5351 a 5.2916669,5.2916669 0 0 0 0.01041,0.0111 c 0.928047,-0.88582 1.860537,-1.77522 2.556376,-2.4565 -0.608097,0.70426 -1.394482,1.63883 -2.18513,2.57844 0.810145,-0.88818 1.60909,-1.76474 2.228128,-2.45939 -0.518988,0.68488 -1.16189,1.55242 -1.820967,2.4433 0.720209,-0.8998 1.429823,-1.78781 1.963741,-2.47299 -0.536148,0.82267 -1.238732,1.93269 -1.935684,3.03316 a 5.2916669,5.2916669 0 0 0 0.0082,0.005 c 0.716911,-1.02928 1.432466,-2.05638 1.975453,-2.85613 -0.476173,0.84009 -1.080648,1.93609 -1.686396,3.03522 a 5.2916669,5.2916669 0 0 0 0.0022,0.002 c 0.669328,-1.10256 1.341773,-2.20937 1.840141,-3.05395 -0.367527,0.75958 -0.82849,1.74083 -1.298678,2.74429 0.488773,-0.94944 0.961877,-1.87173 1.331274,-2.61037 -0.361643,0.89582 -0.814213,2.05606 -1.268323,3.22 a 5.2916669,5.2916669 0 0 0 0.0029,6.6e-4 c 0.525169,-1.19412 1.054742,-2.3976 1.440889,-3.30698 -0.2571,0.78196 -0.576469,1.79326 -0.90222,2.82806 0.35127,-0.9877 0.690879,-1.94598 0.95251,-2.71026 -0.240553,0.94616 -0.538851,2.18258 -0.83745,3.41892 a 5.2916669,5.2916669 0 0 0 0.01621,0.005 5.2916669,5.2916669 0 0 0 0.005,6.7e-4 c 0.361381,-1.2427 0.724646,-2.49032 0.987968,-3.43958 -0.151725,0.79598 -0.333317,1.8118 -0.518978,2.85532 0.217531,-1.00806 0.426489,-1.98288 0.586046,-2.76618 -0.117873,0.9681 -0.255713,2.22046 -0.39366,3.47576 a 5.2916669,5.2916669 0 0 0 0.0051,6.7e-4 c 0.190358,-1.24233 0.380571,-2.48222 0.51565,-3.43987 -0.04811,0.80788 -0.09787,1.82428 -0.147839,2.87182 0.09158,-1.08038 0.180173,-2.1353 0.239684,-2.95902 0.01065,0.98389 0.04127,2.28393 0.07145,3.57685 a 5.2916669,5.2916669 0 0 0 0.0053,3.8e-4 c 0.02433,-1.24708 0.04855,-2.48891 0.05643,-3.45914 0.06875,0.96641 0.170752,2.20275 0.273462,3.44588 a 5.2916669,5.2916669 0 0 0 0.006,-4.6e-4 c -0.05218,-1.31082 -0.104618,-2.63453 -0.15675,-3.6179 0.11406,0.82156 0.27635,1.89098 0.442124,2.98014 -0.121481,-1.0596 -0.240866,-2.09002 -0.344016,-2.90303 0.20191,0.95909 0.480316,2.20783 0.758553,3.45441 a 5.2916669,5.2916669 0 0 0 0.0063,-6.7e-4 c -0.222602,-1.24665 -0.444796,-2.49417 -0.627792,-3.4539 0.258142,0.93584 0.607253,2.14555 0.957232,3.35785 -0.299561,-1.22553 -0.599069,-2.44945 -0.840058,-3.38584 0.264977,0.76544 0.610174,1.72779 0.966484,2.71833 -0.329064,-1.03299 -0.651964,-2.0423 -0.911933,-2.82408 0.364847,0.85228 0.857607,1.9651 1.353687,3.08422 -0.43574,-1.0992 -0.865953,-2.18144 -1.212747,-3.0272 0.440109,0.86849 1.02026,1.98082 1.60156,3.09554 a 5.2916669,5.2916669 0 0 0 0.004,-0.002 c -0.54014,-1.15413 -1.080849,-2.31029 -1.506308,-3.19147 0.475567,0.8092 1.104728,1.8504 1.738608,2.89954 -0.60262,-1.09465 -1.204627,-2.188 -1.669605,-3.00732 0.554485,0.80999 1.308985,1.88109 2.057618,2.94491 a 5.2916669,5.2916669 0 0 0 0.01607,-0.0101 c -0.670693,-1.05151 -1.33832,-2.09692 -1.868955,-2.90826 0.487322,0.63017 1.097422,1.40343 1.731255,2.20422 -0.634493,-0.86474 -1.25336,-1.70694 -1.745913,-2.36116 0.6306,0.70808 1.466673,1.62454 2.306293,2.54395 -0.795307,-0.94491 -1.586787,-1.88476 -2.202836,-2.59862 0.701096,0.68922 1.633383,1.58346 2.562423,2.47456 a 5.2916669,5.2916669 0 0 0 0.0033,-0.003 c -0.875387,-0.91416 -1.749767,-1.82736 -2.43384,-2.52516 0.633613,0.5503 1.43924,1.23438 2.26774,1.9371 -0.826147,-0.75592 -1.637947,-1.49748 -2.270288,-2.06136 0.745728,0.5604 1.738101,1.28692 2.734108,2.01552 -0.930513,-0.74006 -1.84958,-1.47012 -2.574373,-2.03264 0.810133,0.53012 1.865713,1.20334 2.92394,1.87806 a 5.2916669,5.2916669 0 0 0 0.004,-0.006 c -1.04872,-0.734 -2.098327,-1.46856 -2.91172,-2.02352 0.807653,0.46052 1.853546,1.04106 2.91136,1.62754 -1.0574,-0.64286 -2.110354,-1.2827 -2.916794,-1.75898 0.89256,0.43108 2.0883,0.98908 3.274667,1.5435 a 5.2916669,5.2916669 0 0 0 0.002,-0.005 c -1.123895,-0.58436 -2.245588,-1.16724 -3.120128,-1.60911 0.729086,0.29816 1.637733,0.65885 2.579926,1.03156 -0.967433,-0.4238 -1.911273,-0.83623 -2.65016,-1.14881 0.86746,0.28409 2.01078,0.64266 3.163534,1.00389 -1.10592,-0.39479 -2.194847,-0.78253 -3.0485,-1.07579 0.951406,0.24303 2.193026,0.54455 3.434298,0.84589 a 5.2916669,5.2916669 0 0 0 0.001,-0.004 5.2916669,5.2916669 0 0 0 0.004,-0.0166 c -1.245832,-0.36353 -2.498138,-0.7291 -3.449245,-0.99379 0.889353,0.17008 2.0473,0.37707 3.219315,0.58603 -1.157868,-0.25362 -2.300782,-0.50325 -3.186175,-0.68575 0.965113,0.11774 2.2324,0.2563 3.498425,0.39492 -1.225925,-0.18582 -2.443918,-0.37037 -3.397565,-0.50378 0.797813,0.0479 1.787567,0.0977 2.813033,0.1476 -1.080066,-0.092 -2.136326,-0.18101 -2.955133,-0.24025 0.992953,-0.0114 2.3185,-0.0445 3.632215,-0.0764 a 5.2916669,5.2916669 0 0 0 4.4e-4,-0.0117 c -1.272575,-0.0251 -2.544668,-0.0506 -3.526535,-0.0584 0.828047,-0.0599 1.868553,-0.14621 2.93946,-0.23635 -1.066593,0.05 -2.103487,0.10001 -2.92444,0.14836 0.96314,-0.13581 2.212607,-0.32734 3.462405,-0.51887 a 5.2916669,5.2916669 0 0 0 -0.002,-0.0112 c -1.247758,0.13519 -2.493185,0.26991 -3.456152,0.38573 0.743414,-0.15074 1.662,-0.34597 2.616074,-0.55091 -1.02334,0.18212 -2.021987,0.36101 -2.79362,0.50869 0.953033,-0.2679 2.23096,-0.64587 3.495398,-1.01935 a 5.2916669,5.2916669 0 0 0 -4.5e-4,-0.002 c -1.230362,0.30814 -2.459228,0.61624 -3.404802,0.86494 0.923774,-0.32411 2.114867,-0.7583 3.306892,-1.19237 a 5.2916669,5.2916669 0 0 0 -0.004,-0.0103 c -1.209558,0.38128 -2.418345,0.7631 -3.347418,1.0681 0.663373,-0.27842 1.4765,-0.62862 2.32384,-0.99568 -0.86732,0.34118 -1.70078,0.67042 -2.368954,0.9424 0.871494,-0.44064 2.005327,-1.03168 3.13788,-1.6218 a 5.2916669,5.2916669 0 0 0 -0.0047,-0.0105 c -1.17054,0.54614 -2.34646,1.09414 -3.229294,1.51972 0.844814,-0.49766 1.955234,-1.17077 3.06008,-1.84058 a 5.2916669,5.2916669 0 0 0 -0.0047,-0.008 c -1.11658,0.61267 -2.234107,1.2259 -3.08262,1.70507 0.784413,-0.53189 1.795006,-1.23527 2.810073,-1.94181 -1.0479,0.66734 -2.090927,1.33213 -2.88806,1.8535 0.766887,-0.59589 1.758733,-1.38628 2.751107,-2.17696 -1.021494,0.74743 -2.042234,1.49469 -2.816598,2.07595 0.581924,-0.516 1.305898,-1.17194 2.053304,-1.85086 -0.767206,0.64834 -1.508026,1.27644 -2.093536,1.78338 0.68001,-0.69352 1.556483,-1.60969 2.433196,-2.52589 a 5.2916669,5.2916669 0 0 0 -0.0053,-0.006 c -0.91856,0.88087 -1.837933,1.76348 -2.531365,2.44502 0.634638,-0.73513 1.453772,-1.7082 2.272332,-2.68027 -0.8486,0.92696 -1.6947,1.85075 -2.342642,2.57529 0.517888,-0.68154 1.160015,-1.54677 1.818688,-2.43481 -0.7169,0.89314 -1.42268,1.77398 -1.954526,2.45459 0.53482,-0.81878 1.235026,-1.92252 1.929773,-3.01708 a 5.2916669,5.2916669 0 0 0 -5e-4,-1.4e-4 c -0.719113,1.03453 -1.436853,2.06746 -1.983394,2.87378 0.479774,-0.84661 1.086694,-1.94729 1.694667,-3.05012 a 5.2916669,5.2916669 0 0 0 -0.0085,-0.004 c -0.666034,1.09244 -1.334556,2.18814 -1.83192,3.02725 0.347178,-0.71463 0.777713,-1.62652 1.21984,-2.56585 -0.468254,0.90806 -0.920377,1.78716 -1.273379,2.49212 0.362606,-0.8991 0.820565,-2.07434 1.278879,-3.25141 a 5.2916669,5.2916669 0 0 0 -0.007,-0.004 c -0.522367,1.18802 -1.048255,2.3831 -1.431509,3.28596 0.257192,-0.78203 0.576695,-1.79445 0.902755,-2.83004 -0.342176,0.96196 -0.670693,1.89003 -0.929462,2.64419 0.239477,-0.93079 0.531216,-2.12066 0.825114,-3.31896 a 5.2916669,5.2916669 0 0 0 -0.0053,-0.002 z m 0.109708,0.67674 c 0.06941,-0.19516 0.13432,-0.37982 0.203973,-0.57557 a 5.2916669,5.2916669 0 0 0 -0.0202,-0.006 c -0.06233,0.19811 -0.12158,0.38451 -0.18378,0.58206 z m 0.53034,0.30688 c 0.108613,-0.21064 0.211106,-0.4105 0.320206,-0.622 a 5.2916669,5.2916669 0 0 0 -0.0224,-0.0102 c -0.101146,0.215 -0.19692,0.4177 -0.29768,0.63178 z m 0.934506,0.28198 c 0.09515,-0.11855 0.184434,-0.23018 0.27964,-0.34879 a 5.2916669,5.2916669 0 0 0 -0.01293,-0.01 c -0.09048,0.12198 -0.176173,0.23619 -0.266633,0.35816 z m 0.448747,0.84301 c 0.1961,-0.16572 0.38194,-0.32349 0.579093,-0.49003 a 5.2916669,5.2916669 0 0 0 -0.018,-0.0187 c -0.190673,0.17328 -0.371346,0.3364 -0.561106,0.50877 z m 0.763293,-0.22507 c 0.006,-0.005 0.01227,-0.009 0.01853,-0.0133 a 5.2916669,5.2916669 0 0 0 -6.67e-4,-0.001 c -0.006,0.005 -0.01167,0.01 -0.0178,0.0145 z m 0.136954,0.32345 c 0.03013,-0.0192 0.05833,-0.0374 0.08845,-0.0565 a 5.2916669,5.2916669 0 0 0 -0.002,-0.004 c -0.02947,0.0206 -0.05727,0.0396 -0.08675,0.0602 z m -0.317567,1.25507 c 0.308287,-0.12127 0.604167,-0.23836 0.91575,-0.36078 a 5.2916669,5.2916669 0 0 0 -0.0115,-0.0309 c -0.30753,0.13336 -0.59975,0.25976 -0.90423,0.39168 z m 0.42402,0.77754 c 0.267453,-0.0476 0.52165,-0.0935 0.79059,-0.14126 a 5.2916669,5.2916669 0 0 0 -0.005,-0.0274 c -0.26744,0.0575 -0.520343,0.11156 -0.786163,0.16867 z m 0.303933,0.54688 c 0.193577,-0.009 0.376097,-0.0179 0.570047,-0.027 a 5.2916669,5.2916669 0 0 0 -6.7e-4,-0.0205 c -0.1936,0.0164 -0.37584,0.0313 -0.569143,0.0476 z m -0.09045,0.62311 c 0.224437,0.0191 0.436687,0.0367 0.661797,0.0559 a 5.2916669,5.2916669 0 0 0 6.7e-4,-0.0233 c -0.22542,-0.0109 -0.43797,-0.0217 -0.662687,-0.0326 z m 0.584537,0.35617 c 0.016,0.002 0.0307,0.005 0.0467,0.007 a 5.2916669,5.2916669 0 0 0 2e-5,-0.002 c -0.0158,-0.002 -0.0309,-0.003 -0.0467,-0.005 z m -0.31225,0.29084 c 0.1051,0.023 0.20383,0.0443 0.30886,0.0672 a 5.2916669,5.2916669 0 0 0 0.002,-0.0118 c -0.10572,-0.019 -0.2051,-0.0366 -0.31094,-0.0555 z m -0.160867,0.65827 c 0.09512,0.0338 0.184357,0.0656 0.279357,0.0995 a 5.2916669,5.2916669 0 0 0 0.003,-0.0104 c -0.0963,-0.0299 -0.18631,-0.0592 -0.282674,-0.0891 z m -0.513367,0.14492 c 0.2253,0.0987 0.439087,0.19147 0.665234,0.2906 a 5.2916669,5.2916669 0 0 0 0.0104,-0.0229 c -0.229854,-0.0909 -0.44666,-0.17714 -0.675654,-0.26769 z m 0.180627,0.79739 c 0.06087,0.037 0.11824,0.0714 0.17906,0.10844 a 5.2916669,5.2916669 0 0 0 0.004,-0.007 c -0.06227,-0.0345 -0.12076,-0.0669 -0.183073,-0.10143 z m -0.35358,0.55688 c 0.05267,0.0419 0.10226,0.0809 0.154887,0.12277 a 5.2916669,5.2916669 0 0 0 0.004,-0.006 c -0.0542,-0.0396 -0.105054,-0.0768 -0.159254,-0.11648 z m -0.46382,0.0459 c 0.130933,0.11977 0.25432,0.23261 0.385413,0.35258 a 5.2916669,5.2916669 0 0 0 0.0124,-0.0143 c -0.135466,-0.11488 -0.2625,-0.22348 -0.397813,-0.33826 z m -0.196473,0.71507 c 0.0346,0.0411 0.06686,0.0797 0.101393,0.12076 a 5.2916669,5.2916669 0 0 0 0.0047,-0.005 c -0.03613,-0.0396 -0.07019,-0.0767 -0.10636,-0.11618 z m -0.56039,-0.18279 c 0.130453,0.17779 0.254267,0.3454 0.385047,0.52368 a 5.2916669,5.2916669 0 0 0 0.01767,-0.014 c -0.13716,-0.17324 -0.265993,-0.33695 -0.402706,-0.50968 z m -0.2664,0.77658 c 0.0252,0.0458 0.049,0.0886 0.0742,0.13437 a 5.2916669,5.2916669 0 0 0 0.0053,-0.003 c -0.027,-0.0447 -0.05227,-0.0867 -0.07927,-0.13146 z m -0.625413,0.22564 c 0.02813,0.071 0.05467,0.13747 0.08273,0.20835 a 5.2916669,5.2916669 0 0 0 0.0078,-0.003 c -0.03093,-0.0697 -0.0596,-0.13532 -0.09057,-0.2051 z m -0.441747,-0.26014 c 0.0642,0.20159 0.12534,0.39179 0.189693,0.59385 a 5.2916669,5.2916669 0 0 0 0.02033,-0.008 c -0.07169,-0.19926 -0.13852,-0.38719 -0.210007,-0.58592 z m -0.126433,0.6675 c 0.0013,0.006 0.0027,0.0111 0.0043,0.0162 a 5.2916669,5.2916669 0 0 0 5e-4,1.3e-4 c -0.0016,-0.006 -0.003,-0.0112 -0.0047,-0.0163 z m -0.750129,-0.45298 c 0.0236,0.20588 0.04601,0.40027 0.06964,0.60663 a 5.2916669,5.2916669 0 0 0 0.0218,-0.003 c -0.03125,-0.20522 -0.06023,-0.39864 -0.09138,-0.60336 z m -0.937689,0.0334 c -0.01735,0.20472 -0.03347,0.398 -0.05089,0.60321 a 5.2916669,5.2916669 0 0 0 0.02176,6.5e-4 c 0.0098,-0.20558 0.01944,-0.39919 0.02922,-0.6042 z m -0.565378,-0.14218 c -0.04823,0.22349 -0.09342,0.4349 -0.141827,0.65909 a 5.2916669,5.2916669 0 0 0 0.02259,0.006 c 0.04021,-0.22612 0.07913,-0.43921 0.119234,-0.66462 z m -0.605254,-0.13112 c -0.07271,0.20446 -0.141015,0.39781 -0.213964,0.60286 a 5.2916669,5.2916669 0 0 0 0.0217,0.007 c 0.06529,-0.20745 0.127134,-0.40283 0.192267,-0.60974 z m -0.60447,-0.13205 c -0.0831,0.16143 -0.161269,0.31364 -0.244536,0.47536 a 5.2916669,5.2916669 0 0 0 0.01769,0.008 c 0.07707,-0.1645 0.149908,-0.31906 0.226868,-0.4833 z m -0.868991,-0.43676 c -0.09411,0.11758 -0.182543,0.22819 -0.276702,0.34583 a 5.2916669,5.2916669 0 0 0 0.01292,0.01 c 0.08949,-0.12098 0.174221,-0.23425 0.263699,-0.35521 z m -0.39644,-0.90443 c -0.213817,0.18056 -0.416959,0.35294 -0.632241,0.53464 a 5.2916669,5.2916669 0 0 0 0.01921,0.0202 c 0.20833,-0.18899 0.406001,-0.36706 0.613026,-0.55477 z m -0.808987,0.27382 c -0.0061,0.005 -0.01184,0.008 -0.0179,0.0129 a 5.2916669,5.2916669 0 0 0 8.67e-4,6.6e-4 c 0.0058,-0.005 0.01122,-0.009 0.01703,-0.0137 z m -0.183546,-0.28136 c -0.01125,0.007 -0.02173,0.0139 -0.03294,0.0211 a 5.2916669,5.2916669 0 0 0 0.0013,0.001 c 0.01083,-0.008 0.02087,-0.0149 0.03173,-0.0226 z m -0.339682,-0.62709 c -0.01671,0.008 -0.03231,0.0154 -0.04902,0.0232 a 5.2916669,5.2916669 0 0 0 0.001,0.002 c 0.01634,-0.009 0.03159,-0.0166 0.04793,-0.0251 z m 0.26771,-0.48198 c -0.15742,0.0616 -0.305592,0.11969 -0.463215,0.18136 a 5.2916669,5.2916669 0 0 0 0.0067,0.0168 c 0.15522,-0.0676 0.301403,-0.13063 0.456478,-0.19814 z m -0.248654,-0.22606 c -0.111648,0.0353 -0.216424,0.0688 -0.328042,0.10417 a 5.2916669,5.2916669 0 0 0 0.0043,0.0118 c 0.110113,-0.0397 0.21361,-0.0764 0.32373,-0.11603 z m -0.545066,-0.90681 c -0.0051,6.6e-4 -0.0099,6.6e-4 -0.01503,0.002 a 5.2916669,5.2916669 0 0 0 -1.32e-4,4.8e-4 c 0.0051,-6.6e-4 0.0099,-6.6e-4 0.01503,-0.002 z m 0.228211,-0.35454 c -0.09313,0.004 -0.180496,0.009 -0.273607,0.0128 a 5.2916669,5.2916669 0 0 0 6.65e-4,0.01 c 0.09287,-0.008 0.180107,-0.0147 0.273019,-0.0226 z m 0.01495,-0.30736 c -0.10329,-0.002 -0.200269,-0.003 -0.303516,-0.005 a 5.2916669,5.2916669 0 0 0 -3.29e-4,0.0112 c 0.103349,-0.002 0.200431,-0.004 0.303815,-0.006 z m 0.05655,-0.99171 c -0.08803,-0.0194 -0.170944,-0.0365 -0.258906,-0.056 a 5.2916669,5.2916669 0 0 0 -0.0021,0.01 c 0.08884,0.0155 0.17212,0.0307 0.260944,0.0464 z m 0.01597,-0.33116 c -0.06772,-0.0192 -0.131219,-0.0372 -0.198627,-0.0574 a 5.2916669,5.2916669 0 0 0 -0.0016,0.008 c 0.068,0.0172 0.132147,0.0323 0.200199,0.0495 z m 0.163094,-0.29121 c -0.08729,-0.0317 -0.169378,-0.0608 -0.256681,-0.0923 a 5.2916669,5.2916669 0 0 0 -0.0031,0.01 c 0.08846,0.0278 0.171453,0.0542 0.259846,0.0825 z m 0.42551,-0.91316 c -0.08245,-0.0497 -0.159829,-0.0965 -0.242213,-0.14628 a 5.2916669,5.2916669 0 0 0 -0.0051,0.009 c 0.08423,0.0465 0.163132,0.0904 0.2474,0.1369 z m 0.596713,-0.33017 c -0.15945,-0.12659 -0.310545,-0.24571 -0.470442,-0.37269 a 5.2916669,5.2916669 0 0 0 -0.01205,0.0171 c 0.164279,0.12084 0.318674,0.23506 0.482513,0.3556 z m 0.327999,-1.04042 c -0.02782,-0.0329 -0.05379,-0.0639 -0.08162,-0.0967 a 5.2916669,5.2916669 0 0 0 -0.0038,0.004 c 0.02903,0.0316 0.05629,0.0612 0.0853,0.0929 z m 0.35429,-0.0923 c -0.05569,-0.0754 -0.108085,-0.1461 -0.163742,-0.2215 a 5.2916669,5.2916669 0 0 0 -0.0081,0.006 c 0.05855,0.0731 0.113318,0.14195 0.171872,0.21512 z m 0.296234,-0.14319 c -0.06093,-0.0957 -0.118357,-0.18553 -0.179284,-0.2813 a 5.2916669,5.2916669 0 0 0 -0.01032,0.007 c 0.06461,0.0933 0.12507,0.1811 0.18968,0.27444 z m 0.155803,-0.31991 c -0.02385,-0.0432 -0.04648,-0.0837 -0.07032,-0.12691 a 5.2916669,5.2916669 0 0 0 -0.0045,0.003 c 0.02549,0.0421 0.04938,0.0817 0.07488,0.12386 z m 0.63268,-0.23279 c -0.02761,-0.0699 -0.05383,-0.13541 -0.08141,-0.20531 a 5.2916669,5.2916669 0 0 0 -0.0078,0.003 c 0.03037,0.0689 0.0587,0.13362 0.0891,0.20256 z m 0.419675,0.18679 c -0.05567,-0.17638 -0.108451,-0.34232 -0.16429,-0.51878 a 5.2916669,5.2916669 0 0 0 -0.01843,0.007 c 0.0623,0.17409 0.120629,0.33799 0.182803,0.51175 z m 0.906086,-0.18896 c -0.02224,-0.19162 -0.04369,-0.37238 -0.06597,-0.56444 a 5.2916669,5.2916669 0 0 0 -0.02004,0.003 c 0.02939,0.19095 0.05678,0.37078 0.08608,0.56126 z m 0.935926,0.0491 c 0.01856,-0.21998 0.03588,-0.42804 0.05453,-0.64878 a 5.2916669,5.2916669 0 0 0 -0.02326,-6.6e-4 c -0.01049,0.22108 -0.02075,0.42936 -0.03123,0.64967 z m 0.603042,0.0535 c 0.0463,-0.20846 0.08935,-0.40559 0.135817,-0.61469 a 5.2916669,5.2916669 0 0 0 -0.02159,-0.005 c -0.0388,0.21091 -0.07551,0.40969 -0.114222,0.61995 z m -4.286753,8.41919 c -0.03721,0.0408 -0.07201,0.0793 -0.109195,0.12001 a 5.2916669,5.2916669 0 0 0 0.0042,0.004 c 0.03563,-0.0423 0.06934,-0.082 0.105007,-0.12434 z"
       id="path3114-1"
       inkscape:connector-curvature="0" />
    <path
       sodipodi:type="star"
       style="opacity:1;fill:#ff7f2a;fill-opacity:1;fill-rule:nonzero;stroke:none;stroke-width:0.05291667;stroke-linecap:butt;stroke-linejoin:miter;stroke-miterlimit:4;stroke-dasharray:none;stroke-dashoffset:0;stroke-opacity:1;paint-order:markers stroke fill"
       id="path1073-66"
       sodipodi:sides="7"
       sodipodi:cx="107.01472"
       sodipodi:cy="162.7171"
       sodipodi:r1="5.5033412"
       sodipodi:r2="6.1148238"
       sodipodi:arg1="1.0471976"
       sodipodi:arg2="1.4959965"
       inkscape:flatsided="false"
       inkscape:rounded="0.52"
       inkscape:randomized="0"
       d="m 109.76639,167.48314 c -1.19479,0.68981 -0.91894,1.22859 -2.29471,1.33169 -1.37577,0.1031 -1.1833,-0.47078 -2.46756,-0.97481 -1.28426,-0.50404 -1.5335,0.0476 -2.47189,-0.96378 -0.93838,-1.01134 -0.3697,-1.21867 -0.77636,-2.537 -0.40665,-1.31833 -0.9933,-1.16929 -0.78768,-2.53351 0.20562,-1.36421 0.72228,-1.04887 1.49945,-2.18877 0.77717,-1.1399 0.29487,-1.50564 1.48967,-2.19545 1.19479,-0.68981 1.27037,-0.0893 2.64614,-0.19236 1.37577,-0.1031 1.361,-0.70821 2.64526,-0.20418 1.28426,0.50404 0.86186,0.93757 1.80024,1.94891 0.93839,1.01134 1.40227,0.62251 1.80893,1.94085 0.40665,1.31833 -0.19567,1.25838 -0.40129,2.6226 -0.20562,1.36422 0.3876,1.48447 -0.38957,2.62437 -0.77717,1.13991 -1.10584,0.63162 -2.30063,1.32144 z"
       inkscape:transform-center-x="-0.046253209"
       inkscape:transform-center-y="0.030604454"
       transform="matrix(-0.57880538,0.62141562,-0.62141562,-0.57880538,258.30711,198.43901)" />
    <path
       sodipodi:type="star"
       style="opacity:1;fill:#808180;fill-opacity:1;fill-rule:nonzero;stroke:none;stroke-width:0.05291667;stroke-linecap:butt;stroke-linejoin:miter;stroke-miterlimit:4;stroke-dasharray:none;stroke-dashoffset:0;stroke-opacity:1;paint-order:markers stroke fill"
       id="path1073-6-7"
       sodipodi:sides="7"
       sodipodi:cx="107.01472"
       sodipodi:cy="162.7171"
       sodipodi:r1="5.5033412"
       sodipodi:r2="6.1148238"
       sodipodi:arg1="1.0471976"
       sodipodi:arg2="1.4959965"
       inkscape:flatsided="false"
       inkscape:rounded="0.52"
       inkscape:randomized="0"
       d="m 109.76639,167.48314 c -1.19479,0.68981 -0.91894,1.22859 -2.29471,1.33169 -1.37577,0.1031 -1.1833,-0.47078 -2.46756,-0.97481 -1.28426,-0.50404 -1.5335,0.0476 -2.47189,-0.96378 -0.93838,-1.01134 -0.3697,-1.21867 -0.77636,-2.537 -0.40665,-1.31833 -0.9933,-1.16929 -0.78768,-2.53351 0.20562,-1.36421 0.72228,-1.04887 1.49945,-2.18877 0.77717,-1.1399 0.29487,-1.50564 1.48967,-2.19545 1.19479,-0.68981 1.27037,-0.0893 2.64614,-0.19236 1.37577,-0.1031 1.361,-0.70821 2.64526,-0.20418 1.28426,0.50404 0.86186,0.93757 1.80024,1.94891 0.93839,1.01134 1.40227,0.62251 1.80893,1.94085 0.40665,1.31833 -0.19567,1.25838 -0.40129,2.6226 -0.20562,1.36422 0.3876,1.48447 -0.38957,2.62437 -0.77717,1.13991 -1.10584,0.63162 -2.30063,1.32144 z"
       inkscape:transform-center-x="-0.044858979"
       inkscape:transform-center-y="0.029691832"
       transform="matrix(-0.5615035,0.60284002,-0.60284002,-0.5615035,253.43187,197.60657)" />
    <path
       sodipodi:type="star"
       style="opacity:1;fill:#2d2d2d;fill-opacity:1;fill-rule:nonzero;stroke:none;stroke-width:0.05291667;stroke-linecap:butt;stroke-linejoin:miter;stroke-miterlimit:4;stroke-dasharray:none;stroke-dashoffset:0;stroke-opacity:1;paint-order:markers stroke fill"
       id="path1073-6-8-8"
       sodipodi:sides="7"
       sodipodi:cx="107.01472"
       sodipodi:cy="162.7171"
       sodipodi:r1="5.5033412"
       sodipodi:r2="6.1148238"
       sodipodi:arg1="1.0471976"
       sodipodi:arg2="1.4959965"
       inkscape:flatsided="false"
       inkscape:rounded="0.52"
       inkscape:randomized="0"
       d="m 109.76639,167.48314 c -1.19479,0.68981 -0.91894,1.22859 -2.29471,1.33169 -1.37577,0.1031 -1.1833,-0.47078 -2.46756,-0.97481 -1.28426,-0.50404 -1.5335,0.0476 -2.47189,-0.96378 -0.93838,-1.01134 -0.3697,-1.21867 -0.77636,-2.537 -0.40665,-1.31833 -0.9933,-1.16929 -0.78768,-2.53351 0.20562,-1.36421 0.72228,-1.04887 1.49945,-2.18877 0.77717,-1.1399 0.29487,-1.50564 1.48967,-2.19545 1.19479,-0.68981 1.27037,-0.0893 2.64614,-0.19236 1.37577,-0.1031 1.361,-0.70821 2.64526,-0.20418 1.28426,0.50404 0.86186,0.93757 1.80024,1.94891 0.93839,1.01134 1.40227,0.62251 1.80893,1.94085 0.40665,1.31833 -0.19567,1.25838 -0.40129,2.6226 -0.20562,1.36422 0.3876,1.48447 -0.38957,2.62437 -0.77717,1.13991 -1.10584,0.63162 -2.30063,1.32144 z"
       inkscape:transform-center-x="-0.042304517"
       inkscape:transform-center-y="0.027999007"
       transform="matrix(-0.52953456,0.56851763,-0.56851763,-0.52953456,244.42309,196.06795)" />
    <circle
       style="opacity:1;fill:#a1a0a0;fill-opacity:1;fill-rule:nonzero;stroke:none;stroke-width:0.02041654;stroke-linecap:butt;stroke-linejoin:miter;stroke-miterlimit:4;stroke-dasharray:none;stroke-dashoffset:0;stroke-opacity:1;paint-order:markers stroke fill"
       id="path1119-1"
       cx="95.249626"
       cy="166.71643"
       r="0.48489261" />
  </g>
</svg>
