<?xml version="1.0" encoding="UTF-8" standalone="no"?>
<svg
   xmlns:dc="http://purl.org/dc/elements/1.1/"
   xmlns:cc="http://creativecommons.org/ns#"
   xmlns:rdf="http://www.w3.org/1999/02/22-rdf-syntax-ns#"
   xmlns:svg="http://www.w3.org/2000/svg"
   xmlns="http://www.w3.org/2000/svg"
   xmlns:xlink="http://www.w3.org/1999/xlink"
   xmlns:sodipodi="http://sodipodi.sourceforge.net/DTD/sodipodi-0.dtd"
   xmlns:inkscape="http://www.inkscape.org/namespaces/inkscape"
   width="9.6149521"
   height="10.100002"
   viewBox="0 0 2.543956 2.6722924"
   version="1.1"
   id="svg1633"
   inkscape:version="1.0.2-2 (e86c870879, 2021-01-15)"
   sodipodi:docname="BarkButtonIncDec_1.svg">
  <defs
     id="defs1627">
    <linearGradient
       inkscape:collect="always"
       id="linearGradient859">
      <stop
         style="stop-color:#cccccc;stop-opacity:1;"
         offset="0"
         id="stop855" />
      <stop
         style="stop-color:#cccccc;stop-opacity:0;"
         offset="1"
         id="stop857" />
    </linearGradient>
    <linearGradient
       inkscape:collect="always"
       xlink:href="#linearGradient859"
       id="linearGradient861"
       x1="5.6574931"
       y1="275.04642"
       x2="6.6954722"
       y2="274.21255"
       gradientUnits="userSpaceOnUse" />
    <linearGradient
       inkscape:collect="always"
       xlink:href="#linearGradient859"
       id="linearGradient861-6"
       x1="4.9364991"
       y1="274.14032"
       x2="5.3703265"
       y2="273.80994"
       gradientUnits="userSpaceOnUse"
       gradientTransform="matrix(0.98449012,0,0,0.98449012,-77.982278,-386.57239)" />
    <linearGradient
       inkscape:collect="always"
       xlink:href="#linearGradient859"
       id="linearGradient904"
       gradientUnits="userSpaceOnUse"
       x1="5.4199481"
       y1="274.62222"
       x2="5.9149671"
       y2="274.43314" />
    <linearGradient
       inkscape:collect="always"
       xlink:href="#linearGradient859"
       id="linearGradient933"
       gradientUnits="userSpaceOnUse"
       gradientTransform="matrix(0.98449012,0,0,0.98449012,-77.775849,-385.75402)"
       x1="4.9364991"
       y1="274.14032"
       x2="5.3703265"
       y2="273.80994" />
    <linearGradient
       inkscape:collect="always"
       xlink:href="#linearGradient859"
       id="linearGradient933-3"
       gradientUnits="userSpaceOnUse"
       gradientTransform="matrix(0.98449012,0,0,0.98449012,65.775407,-153.80442)"
       x1="4.9364991"
       y1="274.14032"
       x2="5.3703265"
       y2="273.80994" />
    <linearGradient
       inkscape:collect="always"
       xlink:href="#linearGradient859"
       id="linearGradient992"
       gradientUnits="userSpaceOnUse"
       gradientTransform="matrix(0.98449012,0,0,0.98449012,65.775407,-153.80442)"
       x1="4.9364991"
       y1="274.14032"
       x2="5.3703265"
       y2="273.80994" />
  </defs>
  <sodipodi:namedview
     id="base"
     pagecolor="#ffffff"
     bordercolor="#666666"
     borderopacity="1.0"
     inkscape:pageopacity="0.0"
     inkscape:pageshadow="2"
     inkscape:zoom="22.4"
     inkscape:cx="-3.2410211"
     inkscape:cy="9.4549386"
     inkscape:document-units="px"
     inkscape:current-layer="layer1"
     showgrid="false"
     units="px"
     inkscape:document-rotation="0" />
  <metadata
     id="metadata1630">
    <rdf:RDF>
      <cc:Work
         rdf:about="">
        <dc:format>image/svg+xml</dc:format>
        <dc:type
           rdf:resource="http://purl.org/dc/dcmitype/StillImage" />
        <dc:title />
      </cc:Work>
    </rdf:RDF>
  </metadata>
  <g
     inkscape:label="Layer 1"
     inkscape:groupmode="layer"
     id="layer1"
     transform="translate(-72.143287,-114.23528)">
    <g
       id="g998"
       transform="translate(1.1728265,-2.3564031)">
      <path
         inkscape:randomized="0"
         inkscape:rounded="0.794"
         inkscape:flatsided="true"
         sodipodi:arg2="1.5707963"
         sodipodi:arg1="0.52359878"
         sodipodi:r2="0.51926422"
         sodipodi:r1="1.0385283"
         sodipodi:cy="-115.63841"
         sodipodi:cx="-71.786705"
         sodipodi:sides="3"
         id="path1812-9-0-8-8"
         style="display:inline;opacity:0.513889;fill:url(#linearGradient933);fill-opacity:1;stroke:none;stroke-width:0.264583;paint-order:markers stroke fill"
         sodipodi:type="star"
         transform="rotate(-90,116.90879,-70.767737)"
         inkscape:transform-center-x="0.20420295"
         d="m -70.887313,-115.11915 c -0.714117,1.23689 -1.084667,1.23689 -1.798784,0 -0.714117,-1.23689 -0.528842,-1.55779 0.899392,-1.55779 1.428234,0 1.613509,0.3209 0.899392,1.55779 z" />
      <path
         inkscape:randomized="0"
         inkscape:rounded="0.794"
         inkscape:flatsided="true"
         sodipodi:arg2="1.5707963"
         sodipodi:arg1="0.52359878"
         sodipodi:r2="0.51926422"
         sodipodi:r1="1.0385283"
         sodipodi:cy="116.31119"
         sodipodi:cx="71.764549"
         sodipodi:sides="3"
         id="path1812-9-0-8-8-8"
         style="display:inline;opacity:0.513889;fill:url(#linearGradient933-3);fill-opacity:1;stroke:none;stroke-width:0.264583;paint-order:markers stroke fill"
         sodipodi:type="star"
         inkscape:transform-center-x="-0.4084071"
         inkscape:transform-center-y="-0.35368661"
         transform="rotate(30,68.88477,117.62995)"
         d="m 72.663941,116.83045 c -0.714117,1.23689 -1.084666,1.23689 -1.798784,0 -0.714117,-1.23689 -0.528842,-1.55779 0.899392,-1.55779 1.428235,0 1.613509,0.3209 0.899392,1.55779 z" />
      <path
         inkscape:randomized="0"
         inkscape:rounded="0.794"
         inkscape:flatsided="true"
         sodipodi:arg2="1.5707963"
         sodipodi:arg1="0.52359878"
         sodipodi:r2="0.51926422"
         sodipodi:r1="1.0385283"
         sodipodi:cy="116.31119"
         sodipodi:cx="71.764549"
         sodipodi:sides="3"
         id="path1812-9-0-8-8-8-7"
         style="display:inline;opacity:0.513889;fill:url(#linearGradient992);fill-opacity:1;stroke:none;stroke-width:0.264583;paint-order:markers stroke fill"
         sodipodi:type="star"
         inkscape:transform-center-x="0.20421848"
         inkscape:transform-center-y="1.4207172e-05"
         transform="matrix(0,1,1,0,-44.273073,46.163209)"
         d="m 72.663941,116.83045 c -0.714117,1.23689 -1.084666,1.23689 -1.798784,0 -0.714117,-1.23689 -0.528842,-1.55779 0.899392,-1.55779 1.428235,0 1.613509,0.3209 0.899392,1.55779 z" />
    </g>
    <path
       style="display:inline;fill:#000000;fill-opacity:1;stroke:none;stroke-width:0.99999881;paint-order:markers stroke fill"
       d="M 2.0175781 0 C 0.48569782 0.022677165 0 1.5975781 0 5.0507812 C 0 10.575884 1.2405088 11.291829 6.0253906 8.5292969 C 10.810272 5.7667268 10.810272 4.3328448 6.0253906 1.5703125 C 4.2310599 0.53434401 2.9367063 -0.012699212 2.0175781 0 z M 2.1054688 0.2109375 C 2.9862654 0.19878596 4.2297195 0.72404355 5.9492188 1.7167969 C 10.53455 4.3641391 10.53455 5.7374234 5.9492188 8.3847656 C 1.3638875 11.032108 0.17382815 10.345466 0.17382812 5.0507812 C 0.17382811 1.7416035 0.63747427 0.23119007 2.1054688 0.2109375 z "
       transform="matrix(0.26458334,0,0,0.26458334,72.143287,114.23528)"
       id="path1812" />
    <path
       inkscape:transform-center-y="1.5263996e-006"
       d="m 6.9970606,274.89851 c -0.7253676,1.25637 -1.1017548,1.25637 -1.8271223,0 -0.7253676,-1.25638 -0.537174,-1.58234 0.9135611,-1.58234 1.4507352,0 1.6389288,0.32596 0.9135612,1.58234 z"
       inkscape:randomized="0"
       inkscape:rounded="0.794"
       inkscape:flatsided="true"
       sodipodi:arg2="1.5707963"
       sodipodi:arg1="0.52359878"
       sodipodi:r2="0.52744484"
       sodipodi:r1="1.0548896"
       sodipodi:cy="274.37106"
       sodipodi:cx="6.0834994"
       sodipodi:sides="3"
       id="path1812-1-5"
       style="display:inline;fill:#cccccc;fill-opacity:0.51322752;stroke:none;stroke-width:0.31045347;paint-order:markers stroke fill"
       sodipodi:type="star"
       transform="matrix(0,0.8522469,0.8522469,0,-154.1619,110.47846)"
       inkscape:transform-center-x="-0.17677216" />
    <path
       style="display:inline;fill:#000000;fill-opacity:1;stroke:none;stroke-width:0.26458302;paint-order:markers stroke fill"
       d="m 79.139162,114.32701 c -0.40531,0.006 -0.533742,0.42252 -0.533742,1.33618 0,1.46185 0.328456,1.65156 1.594456,0.92064 1.266,-0.73093 1.266,-1.11036 0,-1.84128 -0.47475,-0.2741 -0.817528,-0.4189 -1.060714,-0.41554 z m 0.06093,0.15413 c 0.215113,-0.003 0.518397,0.12518 0.938344,0.36764 1.119858,0.64655 1.119858,0.98175 0,1.6283 -1.119859,0.64655 -1.41012,0.47921 -1.41012,-0.81389 0,-0.80819 0.113253,-1.1771 0.471776,-1.18205 z"
       id="path1812-3"
       inkscape:connector-curvature="0" />
    <path
       d="m 6.9970606,274.89851 c -0.7253676,1.25637 -1.1017548,1.25637 -1.8271223,0 -0.7253676,-1.25638 -0.537174,-1.58234 0.9135611,-1.58234 1.4507352,0 1.6389288,0.32596 0.9135612,1.58234 z"
       inkscape:randomized="0"
       inkscape:rounded="0.794"
       inkscape:flatsided="true"
       sodipodi:arg2="1.5707963"
       sodipodi:arg1="0.52359878"
       sodipodi:r2="0.52744484"
       sodipodi:r1="1.0548896"
       sodipodi:cy="274.37106"
       sodipodi:cx="6.0834994"
       sodipodi:sides="3"
       id="path1812-9-7"
       style="display:inline;fill:#cccccc;fill-opacity:0.58730164;stroke:none;stroke-width:0.34918857;paint-order:markers stroke fill"
       sodipodi:type="star"
       transform="matrix(0,-0.75770815,0.75770815,0,-128.14338,120.27262)"
       inkscape:transform-center-x="0.15716112"
       inkscape:transform-center-y="-2.0190299e-006" />
    <path
       d="m 6.9970606,274.89851 c -0.7253676,1.25637 -1.1017548,1.25637 -1.8271223,0 -0.7253676,-1.25638 -0.537174,-1.58234 0.9135611,-1.58234 1.4507352,0 1.6389288,0.32596 0.9135612,1.58234 z"
       inkscape:randomized="0"
       inkscape:rounded="0.794"
       inkscape:flatsided="true"
       sodipodi:arg2="1.5707963"
       sodipodi:arg1="0.52359878"
       sodipodi:r2="0.52744484"
       sodipodi:r1="1.0548896"
       sodipodi:cy="274.37106"
       sodipodi:cx="6.0834994"
       sodipodi:sides="3"
       id="path1812-9"
       style="display:inline;fill:#cccccc;fill-opacity:0.58730164;stroke:none;stroke-width:0.26875132;paint-order:markers stroke fill"
       sodipodi:type="star"
       transform="matrix(0,-0.98449012,0.98449012,0,-196.90466,121.5605)"
       inkscape:transform-center-x="0.20420231" />
  </g>
</svg>
