<?xml version="1.0" encoding="UTF-8" standalone="no"?>
<!-- Created with Inkscape (http://www.inkscape.org/) -->

<svg
   xmlns:dc="http://purl.org/dc/elements/1.1/"
   xmlns:cc="http://creativecommons.org/ns#"
   xmlns:rdf="http://www.w3.org/1999/02/22-rdf-syntax-ns#"
   xmlns:svg="http://www.w3.org/2000/svg"
   xmlns="http://www.w3.org/2000/svg"
   xmlns:xlink="http://www.w3.org/1999/xlink"
   xmlns:sodipodi="http://sodipodi.sourceforge.net/DTD/sodipodi-0.dtd"
   xmlns:inkscape="http://www.inkscape.org/namespaces/inkscape"
   width="25.998619"
   height="35.50058"
   viewBox="0 0 6.8788013 9.3928614"
   version="1.1"
   id="svg1267"
   inkscape:version="0.92.2 (5c3e80d, 2017-08-06)"
   sodipodi:docname="BarkChMute_2.svg">
  <defs
     id="defs1261">
    <linearGradient
       inkscape:collect="always"
       id="linearGradient1416">
      <stop
         style="stop-color:#2aff41;stop-opacity:0.21276596"
         offset="0"
         id="stop1412" />
      <stop
         style="stop-color:#2aff41;stop-opacity:0;"
         offset="1"
         id="stop1414" />
    </linearGradient>
    <linearGradient
       inkscape:collect="always"
       xlink:href="#linearGradient1416"
       id="linearGradient1418"
       x1="96.118927"
       y1="142.70302"
       x2="95.892982"
       y2="137.78932"
       gradientUnits="userSpaceOnUse" />
  </defs>
  <sodipodi:namedview
     id="base"
     pagecolor="#ffffff"
     bordercolor="#666666"
     borderopacity="1.0"
     inkscape:pageopacity="0.0"
     inkscape:pageshadow="2"
     inkscape:zoom="22.4"
     inkscape:cx="5.8924305"
     inkscape:cy="9.7734663"
     inkscape:document-units="px"
     inkscape:current-layer="layer1"
     showgrid="false"
     units="px" />
  <metadata
     id="metadata1264">
    <rdf:RDF>
      <cc:Work
         rdf:about="">
        <dc:format>image/svg+xml</dc:format>
        <dc:type
           rdf:resource="http://purl.org/dc/dcmitype/StillImage" />
        <dc:title></dc:title>
      </cc:Work>
    </rdf:RDF>
  </metadata>
  <g
     inkscape:label="Layer 1"
     inkscape:groupmode="layer"
     id="layer1"
     transform="translate(-92.566551,-132.04166)">
    <path
       style="opacity:1;fill:url(#linearGradient1418);fill-opacity:1;fill-rule:nonzero;stroke:#4da791;stroke-width:0.01;stroke-linecap:butt;stroke-linejoin:miter;stroke-miterlimit:4;stroke-dasharray:none;stroke-dashoffset:0;stroke-opacity:1;paint-order:markers stroke fill"
       d="m 92.766357,132.06732 c -0.09663,0 -0.174149,0.10966 -0.174149,0.24598 v 8.84907 c 0,0.13633 0.07752,0.2465 0.174149,0.2465 h 6.479189 c 0.0966,0 0.17415,-0.11017 0.17415,-0.2465 v -8.84907 c 0,-0.13632 -0.0775,-0.24598 -0.17415,-0.24598 z m 3.449919,7.15409 c 0.0258,0 0.0493,0.0105 0.0703,0.0315 0.021,0.021 0.0315,0.0496 0.0315,0.0868 0,0.11035 -0.0272,0.26223 -0.0811,0.45475 -0.0264,0.0954 -0.0543,0.21634 -0.0837,0.36328 -0.0294,0.14695 -0.0439,0.23755 -0.0439,0.27234 0,0.007 0.003,0.0109 0.01,0.0109 h 0.004 c 0.22311,-0.41203 0.40736,-0.61805 0.5519,-0.61805 0.0384,0 0.0696,0.0219 0.0935,0.0656 0.024,0.0438 0.0434,0.14091 0.0584,0.29146 0.015,0.16013 0.0485,0.27589 0.10129,0.34726 0.027,0.0366 0.0408,0.0637 0.0408,0.0811 0,0.0156 -0.009,0.0302 -0.0269,0.0434 -0.018,0.0132 -0.0375,0.0196 -0.0579,0.0196 -0.0468,0 -0.088,-0.0258 -0.12402,-0.078 -0.036,-0.0528 -0.059,-0.14556 -0.0692,-0.2775 -0.0102,-0.12475 -0.0212,-0.20605 -0.0326,-0.24443 -0.0114,-0.0384 -0.0305,-0.0579 -0.0568,-0.0579 -0.063,0 -0.18962,0.16476 -0.38034,0.49402 -0.057,0.0984 -0.0991,0.16269 -0.12609,0.19327 -0.027,0.03 -0.0512,0.045 -0.0734,0.045 -0.0264,0 -0.0487,-0.008 -0.0667,-0.0232 -0.018,-0.0156 -0.0269,-0.0346 -0.0269,-0.0574 0,-0.0168 0.004,-0.0492 0.014,-0.0971 0.0738,-0.38085 0.13208,-0.75772 0.17466,-1.13017 0.01,-0.087 0.025,-0.14484 0.046,-0.17363 0.0216,-0.0288 0.0393,-0.0429 0.0537,-0.0429 z m -0.627869,0.108 c 0.07257,0 0.130449,0.0222 0.173629,0.0672 0.0438,0.0444 0.0656,0.0962 0.0656,0.15555 0,0.0552 -0.003,0.099 -0.01,0.13074 -0.006,0.0318 -0.0251,0.0584 -0.0568,0.0806 -0.0318,0.0216 -0.0573,0.0326 -0.07648,0.0326 -0.01379,0 -0.02546,-0.006 -0.03566,-0.0181 -0.01019,-0.012 -0.0155,-0.0282 -0.0155,-0.0486 0,-0.0138 0.0053,-0.0425 0.0155,-0.0863 0.01019,-0.0432 0.01499,-0.0751 0.01499,-0.0961 0,-0.0612 -0.02672,-0.092 -0.0801,-0.092 -0.08277,0 -0.185124,0.0478 -0.307475,0.14314 -0.121751,0.0948 -0.22541,0.2154 -0.310575,0.36174 -0.08517,0.14574 -0.127641,0.28012 -0.127641,0.40307 0,0.0822 0.02428,0.15058 0.07286,0.20516 0.04918,0.054 0.119243,0.0806 0.209806,0.0806 0.05218,0 0.115285,-0.0125 0.189653,-0.0382 0.07497,-0.0264 0.143814,-0.0616 0.206189,-0.10542 0.06237,-0.0438 0.09919,-0.0656 0.110587,-0.0656 0.02339,0 0.03514,0.0141 0.03514,0.0429 0,0.03 -0.03316,0.0729 -0.09974,0.12867 -0.06657,0.0558 -0.143945,0.10034 -0.231509,0.13333 -0.08697,0.033 -0.166691,0.0496 -0.239262,0.0496 -0.106157,0 -0.202857,-0.0353 -0.290422,-0.10542 -0.08696,-0.0702 -0.130224,-0.17175 -0.130224,-0.30489 0,-0.2429 0.103927,-0.4793 0.312642,-0.709 0.209315,-0.23031 0.410893,-0.3452 0.604614,-0.3452 z m 1.671729,1.13326 h 0.0196 c 0.0108,0 0.0238,0.005 0.0388,0.016 0.015,0.0102 0.0227,0.0244 0.0227,0.0424 0,0.036 -0.007,0.0623 -0.0191,0.0791 -0.0126,0.0168 -0.0328,0.0354 -0.061,0.0558 -0.0276,0.0204 -0.0475,0.031 -0.0589,0.031 -0.0252,0 -0.0438,-0.006 -0.0558,-0.017 -0.012,-0.0114 -0.0176,-0.0431 -0.0176,-0.0941 0,-0.0474 0.002,-0.0752 0.008,-0.0842 0.005,-0.009 0.0184,-0.0159 0.0388,-0.0207 0.021,-0.005 0.0494,-0.008 0.0848,-0.008 z"
       id="rect2371-0"
       inkscape:connector-curvature="0" />
  </g>
</svg>
