<?xml version="1.0" encoding="UTF-8" standalone="no"?>
<!-- Created with Inkscape (http://www.inkscape.org/) -->

<svg
   xmlns:dc="http://purl.org/dc/elements/1.1/"
   xmlns:cc="http://creativecommons.org/ns#"
   xmlns:rdf="http://www.w3.org/1999/02/22-rdf-syntax-ns#"
   xmlns:svg="http://www.w3.org/2000/svg"
   xmlns="http://www.w3.org/2000/svg"
   xmlns:sodipodi="http://sodipodi.sourceforge.net/DTD/sodipodi-0.dtd"
   xmlns:inkscape="http://www.inkscape.org/namespaces/inkscape"
   width="20"
   height="20"
   viewBox="0 0 5.2916665 5.2916665"
   version="1.1"
   id="svg1538"
   inkscape:version="0.92.2 (5c3e80d, 2017-08-06)"
   sodipodi:docname="BarkKnob_20.svg">
  <defs
     id="defs1532" />
  <sodipodi:namedview
     id="base"
     pagecolor="#ffffff"
     bordercolor="#666666"
     borderopacity="1.0"
     inkscape:pageopacity="0.0"
     inkscape:pageshadow="2"
     inkscape:zoom="89.599999"
     inkscape:cx="4.4138915"
     inkscape:cy="19.262821"
     inkscape:document-units="px"
     inkscape:current-layer="layer1"
     showgrid="false"
     inkscape:snap-global="false"
     units="px" />
  <metadata
     id="metadata1535">
    <rdf:RDF>
      <cc:Work
         rdf:about="">
        <dc:format>image/svg+xml</dc:format>
        <dc:type
           rdf:resource="http://purl.org/dc/dcmitype/StillImage" />
        <dc:title />
      </cc:Work>
    </rdf:RDF>
  </metadata>
  <g
     inkscape:label="Layer 1"
     inkscape:groupmode="layer"
     id="layer1"
     transform="translate(-89.958129,-170.75609)">
    <circle
       style="opacity:1;fill:#808080;fill-opacity:1;fill-rule:nonzero;stroke:none;stroke-width:0.02433674;stroke-linecap:butt;stroke-linejoin:miter;stroke-miterlimit:4;stroke-dasharray:none;stroke-dashoffset:0;stroke-opacity:1;paint-order:markers stroke fill"
       id="path1075-9"
       cx="92.603966"
       cy="173.40193"
       r="2.6458333" />
    <path
       style="opacity:1;fill:#666666;fill-opacity:0.24338624;fill-rule:nonzero;stroke:none;stroke-width:0.22671492;stroke-linecap:butt;stroke-linejoin:miter;stroke-miterlimit:4;stroke-dasharray:none;stroke-dashoffset:0;stroke-opacity:1;paint-order:markers stroke fill"
       d="m 93.288939,170.84556 a 2.6458334,2.6458334 0 0 0 -0.0081,-0.002 c -0.179139,0.60747 -0.358299,1.21487 -0.490362,1.68331 0.07784,-0.39633 0.170584,-0.89658 0.265496,-1.41213 -0.116772,0.52573 -0.230271,1.03963 -0.31378,1.43958 0.05953,-0.48526 0.130185,-1.13161 0.200635,-1.77404 a 2.6458334,2.6458334 0 0 0 -0.0033,-3.4e-4 c -0.0952,0.62124 -0.190052,1.24126 -0.257575,1.72001 0.02364,-0.39772 0.048,-0.89652 0.07251,-1.41168 -0.0443,0.52493 -0.08695,1.03619 -0.115815,1.43752 -0.0054,-0.48697 -0.02049,-1.12914 -0.03555,-1.76912 a 2.6458334,2.6458334 0 0 0 -0.0035,10e-5 c -0.01206,0.62111 -0.02387,1.23896 -0.02762,1.72036 -0.03465,-0.47941 -0.08623,-1.09431 -0.138157,-1.71263 a 2.6458334,2.6458334 0 0 0 -0.0039,3.4e-4 c 0.02654,0.64857 0.05327,1.30224 0.07965,1.78922 -0.0577,-0.41101 -0.139458,-0.94564 -0.223192,-1.49011 0.0606,0.52212 0.119975,1.02786 0.171649,1.4319 -0.09917,-0.47192 -0.234022,-1.07846 -0.369539,-1.68768 a 2.6458334,2.6458334 0 0 0 -0.0056,0.001 c 0.111878,0.63267 0.223746,1.2676 0.314873,1.74793 -0.130308,-0.47069 -0.309648,-1.08873 -0.48852,-1.70485 a 2.6458334,2.6458334 0 0 0 -0.0046,0.002 c 0.149519,0.61256 0.29906,1.22377 0.419761,1.69392 -0.134878,-0.3915 -0.310168,-0.88321 -0.491079,-1.38882 0.168733,0.53314 0.334815,1.05595 0.467728,1.458 -0.18225,-0.42795 -0.429136,-0.98825 -0.677562,-1.55141 0.214981,0.54485 0.426463,1.07984 0.598546,1.50188 -0.217612,-0.43299 -0.501625,-0.98226 -0.787331,-1.53508 a 2.6458334,2.6458334 0 0 0 -0.0016,0.001 c 0.27429,0.5906 0.550142,1.18546 0.763186,1.62919 -0.239965,-0.40823 -0.564376,-0.9439 -0.889158,-1.48051 0.287662,0.52145 0.57145,1.03491 0.799565,1.43751 -0.244999,-0.36271 -0.557169,-0.81479 -0.877467,-1.27756 0.311481,0.48958 0.618831,0.97183 0.860231,1.34088 -0.275538,-0.35332 -0.639633,-0.80861 -1.008348,-1.26928 0.351824,0.47663 0.699547,0.94686 0.972302,1.30697 -0.314804,-0.35162 -0.73113,-0.80503 -1.149447,-1.26082 0.398925,0.4716 0.796111,0.94073 1.104416,1.29611 -0.348016,-0.34011 -0.811249,-0.78192 -1.273623,-1.22267 a 2.6458334,2.6458334 0 0 0 -0.0032,0.003 c 0.433116,0.45004 0.864198,0.89826 1.203096,1.24229 -0.364846,-0.31561 -0.839252,-0.71692 -1.316155,-1.11984 a 2.6458334,2.6458334 0 0 0 -0.0019,0.002 c 0.476804,0.43885 0.956331,0.88051 1.320146,1.20678 -0.328966,-0.24856 -0.758143,-0.56483 -1.196781,-0.88751 0.405663,0.32209 0.798713,0.63324 1.116068,0.87925 -0.401481,-0.26271 -0.922619,-0.5954 -1.446589,-0.92955 0.522666,0.36451 1.045408,0.72911 1.449229,1.00356 -0.392687,-0.22282 -0.900997,-0.50355 -1.417064,-0.78817 0.510107,0.30796 1.01449,0.61197 1.405017,0.84112 -0.442086,-0.21258 -1.029053,-0.48555 -1.613315,-0.75757 a 2.6458334,2.6458334 0 0 0 -0.0014,0.003 c 0.559866,0.2907 1.118643,0.58107 1.55343,0.80036 -0.450183,-0.18334 -1.03508,-0.41367 -1.621673,-0.64451 a 2.6458334,2.6458334 0 0 0 -2.59e-4,0.001 c 0.593473,0.26264 1.190386,0.52736 1.641771,0.72025 -0.43235,-0.14343 -1.001832,-0.32473 -1.576349,-0.50718 0.55681,0.20111 1.1061,0.39939 1.533359,0.54783 -0.447352,-0.11573 -1.028279,-0.25835 -1.614904,-0.40223 0.580345,0.1672 1.155211,0.33268 1.600734,0.45511 -0.446085,-0.0842 -1.023482,-0.18644 -1.608716,-0.28955 0.582634,0.1263 1.158218,0.25061 1.603644,0.34142 -0.485107,-0.0582 -1.12274,-0.12687 -1.759157,-0.19531 a 2.6458334,2.6458334 0 0 0 -4e-4,0.002 c 0.622171,0.0934 1.242548,0.18646 1.723653,0.25294 -0.485328,-0.028 -1.112255,-0.0569 -1.740629,-0.0857 a 2.6458334,2.6458334 0 0 0 -1.39e-4,0.001 c 0.645662,0.0569 1.295495,0.11434 1.785408,0.15124 -0.45206,0.004 -1.0434,0.016 -1.640704,0.0285 0.578964,0.0105 1.146944,0.0201 1.594022,0.0229 -0.449218,0.0329 -1.020159,0.0813 -1.601497,0.13075 0.58346,-0.0267 1.157831,-0.0532 1.604515,-0.0791 -0.477206,0.0669 -1.097362,0.16155 -1.71862,0.25639 0.63531,-0.0703 1.27271,-0.14057 1.754336,-0.20001 -0.476884,0.0996 -1.10621,0.23946 -1.733213,0.37874 a 2.6458334,2.6458334 0 0 0 3.67e-4,0.002 c 0.607276,-0.10847 1.209811,-0.2161 1.681597,-0.3059 -0.462847,0.12648 -1.050303,0.29399 -1.642373,0.463 0.626304,-0.15107 1.255575,-0.3027 1.728823,-0.42325 -0.420237,0.14518 -0.965134,0.34081 -1.517052,0.53938 0.549357,-0.17387 1.088186,-0.34497 1.509096,-0.48373 -0.389868,0.16427 -0.881098,0.37746 -1.384769,0.59676 0.517411,-0.20246 1.023903,-0.40126 1.415932,-0.56032 -0.428979,0.21688 -0.989561,0.5092 -1.549787,0.80131 0.563859,-0.26512 1.125312,-0.52949 1.556819,-0.73871 -0.419732,0.24708 -0.961227,0.57468 -1.503356,0.90256 a 2.6458334,2.6458334 0 0 0 0.0022,0.004 c 0.570968,-0.31251 1.146365,-0.62713 1.573918,-0.8684 -0.401691,0.27358 -0.932066,0.64502 -1.459801,1.01454 0.526056,-0.3369 1.049797,-0.67205 1.4526,-0.93675 -0.38161,0.29697 -0.870286,0.68631 -1.360827,1.07744 0.507686,-0.37186 1.013957,-0.74279 1.400253,-1.03291 -0.283627,0.2512 -0.633344,0.56738 -0.99576,0.896 0.376252,-0.31774 0.73894,-0.6252 1.026159,-0.87368 -0.341416,0.34779 -0.782079,0.80795 -1.222379,1.26755 a 2.6458334,2.6458334 0 0 0 0.0052,0.006 c 0.464023,-0.44291 0.930268,-0.88761 1.278188,-1.22825 -0.304049,0.35213 -0.697242,0.81941 -1.092565,1.28922 0.405072,-0.44409 0.804544,-0.88237 1.114064,-1.2297 -0.259494,0.34244 -0.580945,0.77621 -0.910484,1.22165 0.360105,-0.4499 0.714911,-0.8939 0.981871,-1.23649 -0.268075,0.41133 -0.619367,0.96634 -0.967843,1.51658 a 2.6458334,2.6458334 0 0 0 0.0041,0.002 c 0.358456,-0.51464 0.716233,-1.02819 0.987726,-1.42806 -0.238086,0.42004 -0.540323,0.96804 -0.843197,1.51761 a 2.6458334,2.6458334 0 0 0 0.0011,0.001 c 0.334664,-0.55128 0.670886,-1.10469 0.92007,-1.52698 -0.183763,0.37979 -0.414245,0.87042 -0.649339,1.37215 0.244387,-0.47472 0.480938,-0.93587 0.665637,-1.30519 -0.180821,0.44791 -0.407106,1.02803 -0.634161,1.61 a 2.6458334,2.6458334 0 0 0 0.0014,3.3e-4 c 0.262585,-0.59706 0.527371,-1.1988 0.720445,-1.65349 -0.12855,0.39098 -0.288235,0.89663 -0.45111,1.41403 0.175634,-0.49385 0.345439,-0.97299 0.476254,-1.35513 -0.120276,0.47308 -0.269425,1.09129 -0.418725,1.70946 a 2.6458334,2.6458334 0 0 0 0.0081,0.003 2.6458334,2.6458334 0 0 0 0.0025,3.3e-4 c 0.180691,-0.62135 0.362323,-1.24516 0.493984,-1.71979 -0.07586,0.39799 -0.166659,0.9059 -0.259489,1.42766 0.108765,-0.50403 0.213245,-0.99144 0.293023,-1.38309 -0.05894,0.48405 -0.127857,1.11023 -0.19683,1.73788 a 2.6458334,2.6458334 0 0 0 0.0026,3.4e-4 c 0.09518,-0.62117 0.190285,-1.24111 0.257825,-1.71994 -0.02405,0.40394 -0.04894,0.91214 -0.07392,1.43591 0.04579,-0.54019 0.09009,-1.06765 0.119842,-1.47951 0.0053,0.49195 0.02063,1.14197 0.03572,1.78843 a 2.6458334,2.6458334 0 0 0 0.0026,1.9e-4 c 0.01216,-0.62354 0.02427,-1.24446 0.02822,-1.72957 0.03438,0.4832 0.08538,1.10137 0.136732,1.72294 a 2.6458334,2.6458334 0 0 0 0.003,-2.3e-4 c -0.02609,-0.65541 -0.05231,-1.31727 -0.07837,-1.80895 0.05703,0.41078 0.138175,0.94549 0.221061,1.49007 -0.06074,-0.5298 -0.120433,-1.04501 -0.172008,-1.45152 0.100956,0.47955 0.240158,1.10392 0.379277,1.72721 a 2.6458334,2.6458334 0 0 0 0.0031,-3.4e-4 c -0.111301,-0.62332 -0.222398,-1.24708 -0.313895,-1.72695 0.12907,0.46792 0.303626,1.07278 0.478616,1.67893 -0.149781,-0.61277 -0.299535,-1.22473 -0.42003,-1.69292 0.132489,0.38272 0.305087,0.86389 0.483243,1.35916 -0.164533,-0.51649 -0.325982,-1.02115 -0.455967,-1.41204 0.182424,0.42614 0.428803,0.98255 0.676843,1.54211 -0.21787,-0.5496 -0.432976,-1.09072 -0.606373,-1.5136 0.220055,0.43425 0.51013,0.99041 0.80078,1.54777 a 2.6458334,2.6458334 0 0 0 0.002,-10e-4 c -0.27007,-0.57706 -0.540425,-1.15514 -0.753154,-1.59573 0.237783,0.4046 0.552364,0.9252 0.869304,1.44977 -0.30131,-0.54733 -0.602313,-1.094 -0.834803,-1.50366 0.277243,0.40499 0.654493,0.94054 1.02881,1.47245 a 2.6458334,2.6458334 0 0 0 0.008,-0.005 c -0.335347,-0.52576 -0.66916,-1.04846 -0.934478,-1.45413 0.243661,0.31508 0.548711,0.70171 0.865628,1.10211 -0.317247,-0.43237 -0.62668,-0.85347 -0.872956,-1.18058 0.315299,0.35404 0.733336,0.81227 1.153146,1.27197 -0.397653,-0.47245 -0.793393,-0.94238 -1.101418,-1.29931 0.350548,0.34461 0.816691,0.79173 1.281211,1.23728 a 2.6458334,2.6458334 0 0 0 0.0017,-0.002 c -0.437693,-0.45708 -0.874883,-0.91368 -1.21692,-1.26258 0.316807,0.27515 0.71962,0.61719 1.13387,0.96855 -0.413073,-0.37796 -0.818973,-0.74874 -1.135144,-1.03068 0.372864,0.2802 0.869051,0.64346 1.367054,1.00776 -0.465257,-0.37003 -0.92479,-0.73506 -1.287187,-1.01632 0.405067,0.26506 0.932857,0.60167 1.46197,0.93903 a 2.6458334,2.6458334 0 0 0 0.002,-0.003 c -0.52436,-0.367 -1.049163,-0.73428 -1.45586,-1.01176 0.403827,0.23026 0.926774,0.52053 1.45568,0.81377 -0.5287,-0.32143 -1.055176,-0.64135 -1.458396,-0.87949 0.44628,0.21554 1.04415,0.49454 1.637333,0.77175 a 2.6458334,2.6458334 0 0 0 0.001,-0.002 c -0.56195,-0.29218 -1.122797,-0.58362 -1.560067,-0.80455 0.364544,0.14908 0.818867,0.32942 1.289964,0.51578 -0.483717,-0.2119 -0.955637,-0.41812 -1.32508,-0.57441 0.43373,0.14205 1.00539,0.32133 1.581766,0.50195 -0.55296,-0.1974 -1.097423,-0.39127 -1.52425,-0.5379 0.475704,0.12152 1.096514,0.27228 1.717154,0.42295 a 2.6458334,2.6458334 0 0 0 6.66e-4,-0.002 2.6458334,2.6458334 0 0 0 0.002,-0.008 c -0.622916,-0.18177 -1.24907,-0.36455 -1.724623,-0.4969 0.444677,0.085 1.02365,0.18854 1.60966,0.29302 -0.578937,-0.12681 -1.150393,-0.25163 -1.59309,-0.34288 0.482557,0.0589 1.1162,0.12815 1.749217,0.19746 -0.612967,-0.0929 -1.221964,-0.18518 -1.698787,-0.25189 0.398907,0.0239 0.893783,0.0489 1.406517,0.0738 -0.540034,-0.046 -1.068164,-0.0905 -1.477567,-0.12012 0.496477,-0.006 1.15925,-0.0223 1.81611,-0.0382 a 2.6458334,2.6458334 0 0 0 2.2e-4,-0.006 c -0.63629,-0.0126 -1.272337,-0.0253 -1.76327,-0.0292 0.414023,-0.03 0.934277,-0.0731 1.46973,-0.11817 -0.533297,0.025 -1.051743,0.05 -1.46222,0.0742 0.48157,-0.0679 1.106303,-0.16367 1.731207,-0.25944 a 2.6458334,2.6458334 0 0 0 -0.001,-0.006 c -0.623884,0.0676 -1.246597,0.13496 -1.72808,0.19287 0.371706,-0.0754 0.831,-0.17299 1.308036,-0.27546 -0.51167,0.0911 -1.010993,0.18051 -1.39681,0.25435 0.476517,-0.13395 1.11548,-0.32294 1.747704,-0.50968 a 2.6458334,2.6458334 0 0 0 -2.27e-4,-0.001 c -0.615183,0.15407 -1.229617,0.30812 -1.702403,0.43247 0.461886,-0.16205 1.057433,-0.37915 1.65345,-0.59618 a 2.6458334,2.6458334 0 0 0 -0.002,-0.005 c -0.604784,0.19064 -1.209177,0.38155 -1.673714,0.53405 0.331687,-0.13921 0.73825,-0.31431 1.16192,-0.49784 -0.43366,0.17059 -0.85039,0.33521 -1.184476,0.4712 0.435746,-0.22032 1.002663,-0.51584 1.56894,-0.8109 a 2.6458334,2.6458334 0 0 0 -0.0023,-0.005 c -0.58527,0.27307 -1.17323,0.54707 -1.614646,0.75986 0.422406,-0.24883 0.977616,-0.58538 1.53004,-0.92029 a 2.6458334,2.6458334 0 0 0 -0.0023,-0.004 c -0.55829,0.30634 -1.117053,0.61295 -1.54131,0.85254 0.392207,-0.26595 0.897504,-0.61764 1.405037,-0.97091 -0.52395,0.33367 -1.045463,0.66607 -1.44403,0.92675 0.383443,-0.29794 0.879367,-0.69314 1.375553,-1.08848 -0.510746,0.37372 -1.021116,0.74735 -1.408298,1.03798 0.290962,-0.258 0.652948,-0.58597 1.026652,-0.92543 -0.383604,0.32417 -0.754014,0.63822 -1.046769,0.89169 0.340005,-0.34676 0.778242,-0.80485 1.216599,-1.26295 a 2.6458334,2.6458334 0 0 0 -0.0027,-0.003 c -0.45928,0.44044 -0.918967,0.88174 -1.265682,1.22251 0.317319,-0.36756 0.726885,-0.8541 1.136165,-1.34013 -0.4243,0.46348 -0.84735,0.92537 -1.171321,1.28764 0.258945,-0.34077 0.580008,-0.77338 0.909345,-1.2174 -0.35845,0.44657 -0.71134,0.88699 -0.977264,1.22729 0.26741,-0.40939 0.617514,-0.96126 0.964887,-1.50854 a 2.6458334,2.6458334 0 0 0 -2.5e-4,-7e-5 c -0.359557,0.51727 -0.718427,1.03373 -0.991697,1.43689 0.239887,-0.4233 0.543347,-0.97364 0.847334,-1.52506 a 2.6458334,2.6458334 0 0 0 -0.0042,-0.002 c -0.333016,0.54622 -0.667278,1.09407 -0.91596,1.51363 0.173589,-0.35732 0.388857,-0.81326 0.60992,-1.28293 -0.234126,0.45403 -0.460188,0.89358 -0.636689,1.24606 0.181303,-0.44955 0.410283,-1.03717 0.639439,-1.6257 a 2.6458334,2.6458334 0 0 0 -0.0035,-0.002 c -0.261183,0.59401 -0.524127,1.19155 -0.715754,1.64298 0.128596,-0.39102 0.288347,-0.89723 0.451378,-1.41502 -0.171088,0.48098 -0.335347,0.94501 -0.464732,1.32209 0.119739,-0.46539 0.265609,-1.06033 0.412558,-1.65948 a 2.6458334,2.6458334 0 0 0 -0.0027,-0.001 z m 0.05485,0.33837 c 0.03471,-0.0976 0.06716,-0.18991 0.101987,-0.28778 a 2.6458334,2.6458334 0 0 0 -0.0101,-0.003 c -0.03117,0.0991 -0.06079,0.19225 -0.09189,0.29103 z m 0.26517,0.15344 c 0.05431,-0.10532 0.105554,-0.20525 0.160104,-0.311 a 2.6458334,2.6458334 0 0 0 -0.0112,-0.005 c -0.05057,0.1075 -0.09846,0.20885 -0.14884,0.31589 z m 0.467254,0.14099 c 0.04758,-0.0593 0.09222,-0.11509 0.13982,-0.17439 a 2.6458334,2.6458334 0 0 0 -0.0065,-0.005 c -0.04524,0.061 -0.08809,0.11809 -0.133317,0.17908 z m 0.224373,0.42151 c 0.09805,-0.0829 0.19097,-0.16175 0.289547,-0.24502 a 2.6458334,2.6458334 0 0 0 -0.009,-0.009 c -0.09534,0.0866 -0.185674,0.1682 -0.280554,0.25438 z m 0.381647,-0.11254 c 0.003,-0.002 0.0061,-0.005 0.0093,-0.007 a 2.6458334,2.6458334 0 0 0 -3.33e-4,-6.7e-4 c -0.003,0.002 -0.0058,0.005 -0.0089,0.007 z m 0.06848,0.16173 c 0.01507,-0.01 0.02917,-0.0187 0.04423,-0.0282 a 2.6458334,2.6458334 0 0 0 -0.001,-0.002 c -0.01473,0.0103 -0.02863,0.0198 -0.04338,0.0301 z m -0.158783,0.62753 c 0.154143,-0.0606 0.302083,-0.11918 0.457873,-0.18039 a 2.6458334,2.6458334 0 0 0 -0.0058,-0.0154 c -0.153767,0.0667 -0.299877,0.12988 -0.452117,0.19584 z m 0.21201,0.38877 c 0.133727,-0.0238 0.260823,-0.0468 0.395297,-0.0706 a 2.6458334,2.6458334 0 0 0 -0.0023,-0.0137 c -0.133716,0.0287 -0.26017,0.0558 -0.39308,0.0843 z m 0.151967,0.27344 c 0.09679,-0.005 0.188046,-0.009 0.285023,-0.0135 a 2.6458334,2.6458334 0 0 0 -3.33e-4,-0.0102 c -0.0968,0.008 -0.187924,0.0156 -0.284574,0.0238 z m -0.04523,0.31156 c 0.11222,0.01 0.218343,0.0183 0.3309,0.0279 a 2.6458334,2.6458334 0 0 0 3.33e-4,-0.0116 c -0.11271,-0.005 -0.218983,-0.0109 -0.331343,-0.0163 z m 0.29227,0.17808 c 0.008,0.001 0.01537,0.002 0.02337,0.004 a 2.6458334,2.6458334 0 0 0 1e-5,-0.001 c -0.0079,-0.001 -0.01547,-0.001 -0.02337,-0.002 z m -0.156127,0.14542 c 0.05255,0.0115 0.101917,0.0222 0.154434,0.0336 a 2.6458334,2.6458334 0 0 0 10e-4,-0.006 c -0.05286,-0.01 -0.10255,-0.0183 -0.155474,-0.0277 z m -0.08043,0.32914 c 0.04756,0.0169 0.09218,0.0328 0.13968,0.0497 a 2.6458334,2.6458334 0 0 0 0.0017,-0.005 c -0.04813,-0.0149 -0.09316,-0.0296 -0.14134,-0.0445 z m -0.256683,0.0725 c 0.11265,0.0494 0.219543,0.0957 0.33262,0.1453 a 2.6458334,2.6458334 0 0 0 0.0052,-0.0115 c -0.11493,-0.0454 -0.223334,-0.0886 -0.33783,-0.13384 z m 0.09031,0.39869 c 0.03043,0.0185 0.05912,0.0357 0.08953,0.0542 a 2.6458334,2.6458334 0 0 0 0.002,-0.004 c -0.03113,-0.0172 -0.06038,-0.0335 -0.09154,-0.0507 z m -0.17679,0.27844 c 0.02633,0.0209 0.05113,0.0405 0.07744,0.0614 a 2.6458334,2.6458334 0 0 0 0.002,-0.003 c -0.0271,-0.0198 -0.05253,-0.0384 -0.07963,-0.0582 z m -0.23191,0.0229 c 0.06547,0.0599 0.12716,0.1163 0.192707,0.17629 a 2.6458334,2.6458334 0 0 0 0.0062,-0.007 c -0.06773,-0.0574 -0.13125,-0.11174 -0.198907,-0.16913 z m -0.09824,0.35753 c 0.0173,0.0206 0.03343,0.0399 0.0507,0.0604 a 2.6458334,2.6458334 0 0 0 0.0023,-0.003 c -0.01807,-0.0198 -0.03509,-0.0384 -0.05318,-0.0581 z m -0.280193,-0.0914 c 0.06523,0.0889 0.127133,0.1727 0.192523,0.26184 a 2.6458334,2.6458334 0 0 0 0.0088,-0.007 c -0.06858,-0.0866 -0.132997,-0.16847 -0.201354,-0.25484 z m -0.1332,0.38829 c 0.0126,0.0229 0.0245,0.0443 0.0371,0.0672 a 2.6458334,2.6458334 0 0 0 0.0027,-0.002 c -0.0135,-0.0223 -0.02613,-0.0434 -0.03963,-0.0657 z m -0.312707,0.11282 c 0.01407,0.0355 0.02733,0.0687 0.04137,0.10418 a 2.6458334,2.6458334 0 0 0 0.0039,-0.002 c -0.01547,-0.0349 -0.0298,-0.0677 -0.04528,-0.10255 z m -0.220873,-0.13007 c 0.0321,0.1008 0.06267,0.1959 0.09485,0.29693 a 2.6458334,2.6458334 0 0 0 0.01017,-0.004 c -0.03585,-0.0996 -0.06926,-0.1936 -0.105003,-0.29296 z m -0.06322,0.33375 c 6.67e-4,0.003 0.0014,0.006 0.0021,0.008 a 2.6458334,2.6458334 0 0 0 2.49e-4,7e-5 c -8e-4,-0.003 -0.0015,-0.006 -0.0024,-0.008 z m -0.375064,-0.22649 c 0.0118,0.10294 0.023,0.20014 0.03482,0.30332 a 2.6458334,2.6458334 0 0 0 0.0109,-0.002 c -0.01563,-0.10261 -0.03011,-0.19932 -0.04569,-0.30168 z m -0.468845,0.0167 c -0.0087,0.10236 -0.01674,0.199 -0.02544,0.30161 a 2.6458334,2.6458334 0 0 0 0.01088,3.2e-4 c 0.0049,-0.10279 0.0097,-0.19959 0.01461,-0.3021 z m -0.282688,-0.0711 c -0.02411,0.11175 -0.04671,0.21745 -0.07091,0.32955 a 2.6458334,2.6458334 0 0 0 0.0113,0.003 c 0.0201,-0.11306 0.03956,-0.21961 0.05962,-0.33231 z m -0.302627,-0.0656 c -0.03636,0.10223 -0.07051,0.19891 -0.106982,0.30143 a 2.6458334,2.6458334 0 0 0 0.01085,0.004 c 0.03264,-0.10372 0.06357,-0.20141 0.09613,-0.30487 z m -0.302236,-0.066 c -0.04155,0.0807 -0.08063,0.15682 -0.122267,0.23768 a 2.6458334,2.6458334 0 0 0 0.0088,0.004 c 0.03853,-0.0822 0.07495,-0.15953 0.113435,-0.24165 z m -0.434495,-0.21838 c -0.04705,0.0588 -0.09127,0.11409 -0.138351,0.17291 a 2.6458334,2.6458334 0 0 0 0.0065,0.005 c 0.04475,-0.0605 0.08711,-0.11712 0.13185,-0.1776 z m -0.19822,-0.45222 c -0.106908,0.0903 -0.208479,0.17647 -0.316121,0.26732 a 2.6458334,2.6458334 0 0 0 0.0096,0.0101 c 0.104164,-0.0945 0.203,-0.18353 0.306512,-0.27738 z m -0.404493,0.13691 c -0.003,0.003 -0.0059,0.004 -0.0089,0.006 a 2.6458334,2.6458334 0 0 0 4.33e-4,3.3e-4 c 0.0029,-0.002 0.0056,-0.004 0.0085,-0.007 z m -0.09177,-0.14068 c -0.0056,0.003 -0.01087,0.007 -0.01647,0.0105 a 2.6458334,2.6458334 0 0 0 6.33e-4,6.7e-4 c 0.0054,-0.004 0.01043,-0.007 0.01586,-0.0113 z m -0.169842,-0.31354 c -0.0084,0.004 -0.01616,0.008 -0.02451,0.0116 a 2.6458334,2.6458334 0 0 0 5e-4,0.001 c 0.0082,-0.004 0.0158,-0.008 0.02397,-0.0126 z m 0.133856,-0.24099 c -0.07871,0.0308 -0.152797,0.0598 -0.231608,0.0907 a 2.6458334,2.6458334 0 0 0 0.0034,0.008 c 0.07761,-0.0338 0.150702,-0.0653 0.228239,-0.0991 z m -0.124327,-0.11303 c -0.05582,0.0177 -0.108212,0.0344 -0.164021,0.0521 a 2.6458334,2.6458334 0 0 0 0.0022,0.006 c 0.05506,-0.0199 0.106806,-0.0382 0.161865,-0.058 z M 89.9896,173.73862 c -0.0026,3.3e-4 -0.0049,3.3e-4 -0.0075,0.001 a 2.6458334,2.6458334 0 0 0 -6.6e-5,2.4e-4 c 0.0026,-3.3e-4 0.005,-3.3e-4 0.0075,-0.001 z m 0.114105,-0.17727 c -0.04657,0.002 -0.09025,0.005 -0.136804,0.006 a 2.6458334,2.6458334 0 0 0 3.33e-4,0.005 c 0.04644,-0.004 0.09005,-0.007 0.13651,-0.0113 z m 0.0075,-0.15368 c -0.05164,-0.001 -0.100134,-0.002 -0.151758,-0.002 a 2.6458334,2.6458334 0 0 0 -1.64e-4,0.006 c 0.05168,-10e-4 0.100215,-0.002 0.151908,-0.003 z m 0.02827,-0.49585 c -0.04401,-0.01 -0.08547,-0.0182 -0.129454,-0.028 a 2.6458334,2.6458334 0 0 0 -10e-4,0.005 c 0.04442,0.008 0.08606,0.0153 0.130472,0.0232 z m 0.008,-0.16558 c -0.03386,-0.01 -0.06561,-0.0186 -0.09931,-0.0287 a 2.6458334,2.6458334 0 0 0 -8e-4,0.004 c 0.034,0.009 0.06607,0.0162 0.100099,0.0248 z m 0.08155,-0.14561 c -0.04364,-0.0159 -0.08469,-0.0304 -0.128341,-0.0462 a 2.6458334,2.6458334 0 0 0 -0.0016,0.005 c 0.04423,0.0139 0.08573,0.0271 0.129923,0.0412 z m 0.212754,-0.45658 c -0.04122,-0.0248 -0.07991,-0.0482 -0.121106,-0.0731 a 2.6458334,2.6458334 0 0 0 -0.0026,0.004 c 0.04211,0.0232 0.08157,0.0452 0.1237,0.0685 z m 0.298357,-0.16508 c -0.07972,-0.0633 -0.155272,-0.12286 -0.235221,-0.18635 a 2.6458334,2.6458334 0 0 0 -0.006,0.009 c 0.08214,0.0604 0.159337,0.11753 0.241257,0.1778 z m 0.164,-0.52021 c -0.01391,-0.0164 -0.0269,-0.0319 -0.04081,-0.0483 a 2.6458334,2.6458334 0 0 0 -0.0019,0.002 c 0.01451,0.0158 0.02814,0.0306 0.04265,0.0464 z m 0.177145,-0.0462 c -0.02784,-0.0377 -0.05404,-0.073 -0.08187,-0.11075 a 2.6458334,2.6458334 0 0 0 -0.004,0.003 c 0.02927,0.0366 0.05666,0.071 0.08594,0.10756 z m 0.148117,-0.0716 c -0.03046,-0.0479 -0.05918,-0.0928 -0.08964,-0.14065 a 2.6458334,2.6458334 0 0 0 -0.0052,0.004 c 0.0323,0.0466 0.06253,0.0905 0.09484,0.13722 z m 0.0779,-0.15995 c -0.01193,-0.0216 -0.02324,-0.0418 -0.03516,-0.0635 a 2.6458334,2.6458334 0 0 0 -0.0023,10e-4 c 0.01275,0.0211 0.02469,0.0409 0.03744,0.0619 z m 0.31634,-0.1164 c -0.0138,-0.0349 -0.02691,-0.0677 -0.04071,-0.10265 a 2.6458334,2.6458334 0 0 0 -0.0039,0.001 c 0.01519,0.0344 0.02935,0.0668 0.04455,0.10128 z m 0.209838,0.0934 c -0.02784,-0.0882 -0.05423,-0.17116 -0.08215,-0.25939 a 2.6458334,2.6458334 0 0 0 -0.0092,0.004 c 0.03115,0.087 0.06031,0.16899 0.0914,0.25587 z m 0.453043,-0.0945 c -0.01112,-0.0958 -0.02185,-0.18619 -0.03298,-0.28222 a 2.6458334,2.6458334 0 0 0 -0.01002,0.002 c 0.01469,0.0955 0.02839,0.18539 0.04304,0.28063 z m 0.467963,0.0245 c 0.0093,-0.10999 0.01794,-0.21402 0.02727,-0.32439 a 2.6458334,2.6458334 0 0 0 -0.01163,-3.3e-4 c -0.0052,0.11054 -0.01038,0.21468 -0.01562,0.32484 z m 0.30152,0.0268 c 0.02315,-0.10423 0.04467,-0.2028 0.06791,-0.30735 a 2.6458334,2.6458334 0 0 0 -0.0108,-0.002 c -0.0194,0.10545 -0.03776,0.20484 -0.05711,0.30997 z m -2.143376,4.20959 c -0.0186,0.0204 -0.03601,0.0396 -0.0546,0.06 a 2.6458334,2.6458334 0 0 0 0.0021,0.002 c 0.01782,-0.0211 0.03467,-0.041 0.0525,-0.0622 z"
       id="path3114-0"
       inkscape:connector-curvature="0" />
    <path
       sodipodi:type="star"
       style="opacity:1;fill:#ff7f2a;fill-opacity:1;fill-rule:nonzero;stroke:none;stroke-width:0.05291667;stroke-linecap:butt;stroke-linejoin:miter;stroke-miterlimit:4;stroke-dasharray:none;stroke-dashoffset:0;stroke-opacity:1;paint-order:markers stroke fill"
       id="path1073-0"
       sodipodi:sides="7"
       sodipodi:cx="107.01472"
       sodipodi:cy="162.7171"
       sodipodi:r1="5.5033412"
       sodipodi:r2="6.1148238"
       sodipodi:arg1="1.0471976"
       sodipodi:arg2="1.4959965"
       inkscape:flatsided="false"
       inkscape:rounded="0.52"
       inkscape:randomized="0"
       d="m 109.76639,167.48314 c -1.19479,0.68981 -0.91894,1.22859 -2.29471,1.33169 -1.37577,0.1031 -1.1833,-0.47078 -2.46756,-0.97481 -1.28426,-0.50404 -1.5335,0.0476 -2.47189,-0.96378 -0.93838,-1.01134 -0.3697,-1.21867 -0.77636,-2.537 -0.40665,-1.31833 -0.9933,-1.16929 -0.78768,-2.53351 0.20562,-1.36421 0.72228,-1.04887 1.49945,-2.18877 0.77717,-1.1399 0.29487,-1.50564 1.48967,-2.19545 1.19479,-0.68981 1.27037,-0.0893 2.64614,-0.19236 1.37577,-0.1031 1.361,-0.70821 2.64526,-0.20418 1.28426,0.50404 0.86186,0.93757 1.80024,1.94891 0.93839,1.01134 1.40227,0.62251 1.80893,1.94085 0.40665,1.31833 -0.19567,1.25838 -0.40129,2.6226 -0.20562,1.36422 0.3876,1.48447 -0.38957,2.62437 -0.77717,1.13991 -1.10584,0.63162 -2.30063,1.32144 z"
       inkscape:transform-center-x="-0.046253209"
       inkscape:transform-center-y="0.030604454"
       transform="matrix(-0.28940269,0.3107078,-0.3107078,-0.28940269,174.13262,187.24339)" />
    <path
       sodipodi:type="star"
       style="opacity:1;fill:#808180;fill-opacity:1;fill-rule:nonzero;stroke:none;stroke-width:0.05291667;stroke-linecap:butt;stroke-linejoin:miter;stroke-miterlimit:4;stroke-dasharray:none;stroke-dashoffset:0;stroke-opacity:1;paint-order:markers stroke fill"
       id="path1073-6-7"
       sodipodi:sides="7"
       sodipodi:cx="107.01472"
       sodipodi:cy="162.7171"
       sodipodi:r1="5.5033412"
       sodipodi:r2="6.1148238"
       sodipodi:arg1="1.0471976"
       sodipodi:arg2="1.4959965"
       inkscape:flatsided="false"
       inkscape:rounded="0.52"
       inkscape:randomized="0"
       d="m 109.76639,167.48314 c -1.19479,0.68981 -0.91894,1.22859 -2.29471,1.33169 -1.37577,0.1031 -1.1833,-0.47078 -2.46756,-0.97481 -1.28426,-0.50404 -1.5335,0.0476 -2.47189,-0.96378 -0.93838,-1.01134 -0.3697,-1.21867 -0.77636,-2.537 -0.40665,-1.31833 -0.9933,-1.16929 -0.78768,-2.53351 0.20562,-1.36421 0.72228,-1.04887 1.49945,-2.18877 0.77717,-1.1399 0.29487,-1.50564 1.48967,-2.19545 1.19479,-0.68981 1.27037,-0.0893 2.64614,-0.19236 1.37577,-0.1031 1.361,-0.70821 2.64526,-0.20418 1.28426,0.50404 0.86186,0.93757 1.80024,1.94891 0.93839,1.01134 1.40227,0.62251 1.80893,1.94085 0.40665,1.31833 -0.19567,1.25838 -0.40129,2.6226 -0.20562,1.36422 0.3876,1.48447 -0.38957,2.62437 -0.77717,1.13991 -1.10584,0.63162 -2.30063,1.32144 z"
       inkscape:transform-center-x="-0.044858979"
       inkscape:transform-center-y="0.029691832"
       transform="matrix(-0.28075175,0.30142001,-0.30142001,-0.28075175,171.695,186.82717)" />
    <path
       sodipodi:type="star"
       style="opacity:1;fill:#2d2d2d;fill-opacity:1;fill-rule:nonzero;stroke:none;stroke-width:0.05291667;stroke-linecap:butt;stroke-linejoin:miter;stroke-miterlimit:4;stroke-dasharray:none;stroke-dashoffset:0;stroke-opacity:1;paint-order:markers stroke fill"
       id="path1073-6-8-2"
       sodipodi:sides="7"
       sodipodi:cx="107.01472"
       sodipodi:cy="162.7171"
       sodipodi:r1="5.5033412"
       sodipodi:r2="6.1148238"
       sodipodi:arg1="1.0471976"
       sodipodi:arg2="1.4959965"
       inkscape:flatsided="false"
       inkscape:rounded="0.52"
       inkscape:randomized="0"
       d="m 109.76639,167.48314 c -1.19479,0.68981 -0.91894,1.22859 -2.29471,1.33169 -1.37577,0.1031 -1.1833,-0.47078 -2.46756,-0.97481 -1.28426,-0.50404 -1.5335,0.0476 -2.47189,-0.96378 -0.93838,-1.01134 -0.3697,-1.21867 -0.77636,-2.537 -0.40665,-1.31833 -0.9933,-1.16929 -0.78768,-2.53351 0.20562,-1.36421 0.72228,-1.04887 1.49945,-2.18877 0.77717,-1.1399 0.29487,-1.50564 1.48967,-2.19545 1.19479,-0.68981 1.27037,-0.0893 2.64614,-0.19236 1.37577,-0.1031 1.361,-0.70821 2.64526,-0.20418 1.28426,0.50404 0.86186,0.93757 1.80024,1.94891 0.93839,1.01134 1.40227,0.62251 1.80893,1.94085 0.40665,1.31833 -0.19567,1.25838 -0.40129,2.6226 -0.20562,1.36422 0.3876,1.48447 -0.38957,2.62437 -0.77717,1.13991 -1.10584,0.63162 -2.30063,1.32144 z"
       inkscape:transform-center-x="-0.042304517"
       inkscape:transform-center-y="0.027999007"
       transform="matrix(-0.26476728,0.28425881,-0.28425881,-0.26476728,167.19061,186.05786)" />
    <circle
       style="opacity:1;fill:#a1a0a0;fill-opacity:1;fill-rule:nonzero;stroke:none;stroke-width:0.01020827;stroke-linecap:butt;stroke-linejoin:miter;stroke-miterlimit:4;stroke-dasharray:none;stroke-dashoffset:0;stroke-opacity:1;paint-order:markers stroke fill"
       id="path1119-1"
       cx="92.603874"
       cy="171.3821"
       r="0.24244629" />
  </g>
</svg>
