<?xml version="1.0" encoding="UTF-8" standalone="no"?>
<!-- Created with Inkscape (http://www.inkscape.org/) -->

<svg
   xmlns:dc="http://purl.org/dc/elements/1.1/"
   xmlns:cc="http://creativecommons.org/ns#"
   xmlns:rdf="http://www.w3.org/1999/02/22-rdf-syntax-ns#"
   xmlns:svg="http://www.w3.org/2000/svg"
   xmlns="http://www.w3.org/2000/svg"
   xmlns:sodipodi="http://sodipodi.sourceforge.net/DTD/sodipodi-0.dtd"
   xmlns:inkscape="http://www.inkscape.org/namespaces/inkscape"
   width="13.728"
   height="13.728"
   viewBox="0 0 3.6321998 3.6322"
   version="1.1"
   id="svg2435"
   inkscape:version="0.92.2 (5c3e80d, 2017-08-06)"
   sodipodi:docname="BarkBTNMuteUp.svg">
  <defs
     id="defs2429">
    <clipPath
       clipPathUnits="userSpaceOnUse"
       id="clipPath2301-9">
      <rect
         style="display:inline;opacity:1;fill:#d4aa00;fill-opacity:1;fill-rule:nonzero;stroke:none;stroke-width:0.04721729;stroke-linecap:butt;stroke-linejoin:miter;stroke-miterlimit:4;stroke-dasharray:none;stroke-dashoffset:0;stroke-opacity:1;paint-order:markers stroke fill"
         id="rect2303-0"
         width="3.0048897"
         height="3.0048897"
         x="-13.6154"
         y="68.612144" />
    </clipPath>
    <clipPath
       clipPathUnits="userSpaceOnUse"
       id="clipPath2301">
      <rect
         style="display:inline;opacity:1;fill:#d4aa00;fill-opacity:1;fill-rule:nonzero;stroke:none;stroke-width:0.04721729;stroke-linecap:butt;stroke-linejoin:miter;stroke-miterlimit:4;stroke-dasharray:none;stroke-dashoffset:0;stroke-opacity:1;paint-order:markers stroke fill"
         id="rect2303"
         width="3.0048897"
         height="3.0048897"
         x="-13.6154"
         y="68.612144" />
    </clipPath>
  </defs>
  <sodipodi:namedview
     id="base"
     pagecolor="#ffffff"
     bordercolor="#666666"
     borderopacity="1.0"
     inkscape:pageopacity="0.0"
     inkscape:pageshadow="2"
     inkscape:zoom="44.8"
     inkscape:cx="6.857738"
     inkscape:cy="6.8707802"
     inkscape:document-units="px"
     inkscape:current-layer="layer1"
     showgrid="false"
     inkscape:snap-global="false"
     units="px" />
  <metadata
     id="metadata2432">
    <rdf:RDF>
      <cc:Work
         rdf:about="">
        <dc:format>image/svg+xml</dc:format>
        <dc:type
           rdf:resource="http://purl.org/dc/dcmitype/StillImage" />
        <dc:title />
      </cc:Work>
    </rdf:RDF>
  </metadata>
  <g
     inkscape:label="Layer 1"
     inkscape:groupmode="layer"
     id="layer1"
     transform="translate(-104.99406,-154.08775)">
    <rect
       style="display:inline;opacity:0.76200005;fill:#b3c5a3;fill-opacity:1;fill-rule:nonzero;stroke:none;stroke-width:0.05721195;stroke-linecap:butt;stroke-linejoin:miter;stroke-miterlimit:4;stroke-dasharray:none;stroke-dashoffset:0;stroke-opacity:1;paint-order:markers stroke fill"
       id="rect2007-1"
       width="3.6322"
       height="3.6322"
       x="104.99406"
       y="154.08775" />
    <rect
       style="display:inline;opacity:1;fill:#d4aa00;fill-opacity:1;fill-rule:nonzero;stroke:none;stroke-width:0.05384469;stroke-linecap:butt;stroke-linejoin:miter;stroke-miterlimit:4;stroke-dasharray:none;stroke-dashoffset:0;stroke-opacity:1;paint-order:markers stroke fill"
       id="rect6780-05-6"
       width="3.4266543"
       height="3.4266543"
       x="105.09683"
       y="154.19052" />
    <g
       aria-label="M"
       style="font-style:normal;font-variant:normal;font-weight:normal;font-stretch:normal;font-size:1.84245253px;line-height:125%;font-family:'Segoe Print';-inkscape-font-specification:'Segoe Print, Normal';font-variant-ligatures:normal;font-variant-caps:normal;font-variant-numeric:normal;font-feature-settings:normal;text-align:start;letter-spacing:0px;word-spacing:0px;writing-mode:lr-tb;text-anchor:start;display:inline;fill:#ffffff;fill-opacity:1;stroke:none;stroke-width:0.15353802px;stroke-linecap:butt;stroke-linejoin:miter;stroke-opacity:1"
       id="text11809-9-6-3-0-61-5-2-0-2-2-2-6-6-18-6-6"
       transform="translate(-0.03806232,-0.0500251)">
      <path
         inkscape:connector-curvature="0"
         d="m 107.41314,155.50194 q -0.0891,0.099 -0.27529,0.35355 -0.18623,0.2537 -0.2618,0.32657 -0.0756,0.0729 -0.12415,0.0729 -0.0369,0 -0.072,-0.0549 -0.0351,-0.0558 -0.0909,-0.22401 -0.11515,-0.34276 -0.14484,-0.39493 -0.0108,0.0306 -0.0243,0.0999 -0.0288,0.14575 -0.0765,0.35536 -0.0927,0.40214 -0.10526,0.53258 -0.002,0.0162 -0.0297,0.0351 -0.027,0.0189 -0.0441,0.0189 -0.0324,0 -0.0603,-0.0324 -0.027,-0.0324 -0.027,-0.063 0,-0.0792 0.0522,-0.27619 l 0.0783,-0.29508 q 0.072,-0.27888 0.0891,-0.41023 0.0171,-0.13135 0.0171,-0.20692 0,-0.0783 0.12325,-0.0783 0.0261,0 0.0549,0.0459 0.0288,0.045 0.0378,0.0792 0.0117,0.0342 0.0279,0.0765 l 0.12055,0.33737 q 0.0711,0.20691 0.0873,0.2339 0.0171,0.0261 0.0279,0.0261 0.0459,-0.01 0.32477,-0.39494 0.31037,-0.42733 0.35445,-0.42733 0.036,0 0.0792,0.0288 0.0441,0.0279 0.0441,0.0486 0,0.009 -0.0522,0.39494 -0.0189,0.14304 -0.0351,0.34366 -0.0162,0.19972 -0.0162,0.22491 0,0.0459 0.0162,0.10256 0.0144,0.0504 0.0144,0.081 0,0.0243 -0.009,0.0711 -0.009,0.0459 -0.0396,0.054 -0.0297,0.008 -0.0477,0.008 -0.0945,0 -0.0945,-0.15743 0,-0.14394 0.0621,-0.70442 0.005,-0.045 0.005,-0.0558 0,-0.007 0.0108,-0.0603 0.008,-0.045 0.008,-0.0756 0,-0.0297 -0.004,-0.0396 z"
         style="stroke-width:0.15353802px"
         id="path3058" />
    </g>
  </g>
</svg>
