<?xml version="1.0" encoding="UTF-8" standalone="no"?>
<svg
   xmlns:dc="http://purl.org/dc/elements/1.1/"
   xmlns:cc="http://creativecommons.org/ns#"
   xmlns:rdf="http://www.w3.org/1999/02/22-rdf-syntax-ns#"
   xmlns:svg="http://www.w3.org/2000/svg"
   xmlns="http://www.w3.org/2000/svg"
   xmlns:xlink="http://www.w3.org/1999/xlink"
   xmlns:sodipodi="http://sodipodi.sourceforge.net/DTD/sodipodi-0.dtd"
   xmlns:inkscape="http://www.inkscape.org/namespaces/inkscape"
   inkscape:version="1.0beta2 (847b694, 2019-12-17)"
   sodipodi:docname="BarkButtonRound1_3sh.svg"
   id="svg1690"
   version="1.1"
   viewBox="0 0 7.8274336 2.7781253"
   height="10.500001"
   width="29.584002">
  <defs
     id="defs1684">
    <filter
       inkscape:collect="always"
       style="color-interpolation-filters:sRGB"
       id="filter5049-9-4-68-1"
       x="-0.6493355"
       width="2.298671"
       y="-0.91497272"
       height="2.8299453">
      <feGaussianBlur
         inkscape:collect="always"
         stdDeviation="0.049036235"
         id="feGaussianBlur5051-33-7-1-6" />
    </filter>
    <linearGradient
       inkscape:collect="always"
       id="linearGradient10373">
      <stop
         style="stop-color:#ffffff;stop-opacity:1;"
         offset="0"
         id="stop10369" />
      <stop
         style="stop-color:#ffffff;stop-opacity:0;"
         offset="1"
         id="stop10371" />
    </linearGradient>
    <linearGradient
       inkscape:collect="always"
       xlink:href="#linearGradient10373"
       id="linearGradient1652"
       x1="5.9255004"
       y1="196.41614"
       x2="6.0473661"
       y2="193.49724"
       gradientUnits="userSpaceOnUse"
       gradientTransform="translate(-1.5943055e-6,-192.65182)" />
  </defs>
  <sodipodi:namedview
     units="px"
     showgrid="false"
     inkscape:document-rotation="0"
     inkscape:current-layer="layer1"
     inkscape:document-units="px"
     inkscape:cy="2.8839838"
     inkscape:cx="23.640559"
     inkscape:zoom="11.2"
     inkscape:pageshadow="2"
     inkscape:pageopacity="0.0"
     borderopacity="1.0"
     bordercolor="#666666"
     pagecolor="#ffffff"
     id="base" />
  <metadata
     id="metadata1687">
    <rdf:RDF>
      <cc:Work
         rdf:about="">
        <dc:format>image/svg+xml</dc:format>
        <dc:type
           rdf:resource="http://purl.org/dc/dcmitype/StillImage" />
        <dc:title></dc:title>
      </cc:Work>
    </rdf:RDF>
  </metadata>
  <g
     transform="translate(-69.413664,-144.78232)"
     id="layer1"
     inkscape:groupmode="layer"
     inkscape:label="Layer 1">
    <g
       id="g1541"
       transform="translate(74.151343,137.77409)">
      <circle
         r="1.3890626"
         cy="8.3972988"
         cx="-3.3486161"
         id="path4804-7-9-0-0"
         style="opacity:1;fill:#cce0d5;fill-opacity:1;fill-rule:nonzero;stroke:none;stroke-width:0.0463021;stroke-linecap:butt;stroke-linejoin:miter;stroke-miterlimit:4;stroke-dasharray:none;stroke-dashoffset:0;stroke-opacity:1;paint-order:markers stroke fill" />
      <circle
         r="1.1906251"
         cy="8.3972988"
         cx="-3.3486161"
         id="path4832-2-4-2-6"
         style="opacity:0.822;fill:#003700;fill-opacity:1;fill-rule:nonzero;stroke:none;stroke-width:0.0560294;stroke-linecap:butt;stroke-linejoin:miter;stroke-miterlimit:4;stroke-dasharray:none;stroke-dashoffset:0;stroke-opacity:1;paint-order:markers stroke fill" />
      <circle
         r="1.0583334"
         cy="8.3972988"
         cx="-3.3486161"
         id="path4832-8-2-1-1-2"
         style="opacity:1;fill:#666666;fill-opacity:1;fill-rule:nonzero;stroke:none;stroke-width:0.0498039;stroke-linecap:butt;stroke-linejoin:miter;stroke-miterlimit:4;stroke-dasharray:none;stroke-dashoffset:0;stroke-opacity:1;paint-order:markers stroke fill" />
      <circle
         r="1.0583334"
         cy="8.3972988"
         cx="-3.3486161"
         id="path4832-8-4-2-1-41-5"
         style="opacity:0.692;fill:#00bd00;fill-opacity:1;fill-rule:nonzero;stroke:none;stroke-width:0.0498039;stroke-linecap:butt;stroke-linejoin:miter;stroke-miterlimit:4;stroke-dasharray:none;stroke-dashoffset:0;stroke-opacity:1;paint-order:markers stroke fill" />
      <circle
         r="0.72242069"
         cy="8.3972988"
         cx="-3.3486161"
         id="path5330-4-1"
         style="opacity:0.787;fill:#000000;fill-opacity:1;fill-rule:nonzero;stroke:none;stroke-width:0.0598773;stroke-linecap:butt;stroke-linejoin:miter;stroke-miterlimit:4;stroke-dasharray:none;stroke-dashoffset:0;stroke-opacity:1;paint-order:markers stroke fill" />
      <ellipse
         transform="matrix(0.97511845,-0.2612822,0.2612822,0.97511845,-127.46203,-103.62533)"
         ry="0.064311735"
         rx="0.090621077"
         cy="139.29811"
         cx="90.184738"
         id="path4879-0-5-5-8"
         style="opacity:0.692;fill:#ffffff;fill-opacity:1;fill-rule:nonzero;stroke:none;stroke-width:0.0529167;stroke-linecap:butt;stroke-linejoin:miter;stroke-miterlimit:4;stroke-dasharray:none;stroke-dashoffset:0;stroke-opacity:1;paint-order:markers stroke fill;filter:url(#filter5049-9-4-68-1)" />
      <g
         transform="matrix(0.90783859,0,0,0.90783859,-83.965061,-117.79766)"
         id="g837">
        <circle
           style="opacity:0.392;fill:#000000;fill-opacity:1;fill-rule:nonzero;stroke:none;stroke-width:0.0404657;stroke-linecap:butt;stroke-linejoin:miter;stroke-miterlimit:4;stroke-dasharray:none;stroke-dashoffset:0;stroke-opacity:1;paint-order:markers stroke fill"
           id="path4832-8-4-2-1-41-0"
           cx="88.800415"
           cy="139.00595"
           r="0.85989588" />
        <circle
           style="opacity:0.213;fill:#000000;fill-opacity:1;fill-rule:nonzero;stroke:none;stroke-width:0.0363951;stroke-linecap:butt;stroke-linejoin:miter;stroke-miterlimit:4;stroke-dasharray:none;stroke-dashoffset:0;stroke-opacity:1;paint-order:markers stroke fill"
           id="path4832-8-4-5-9-4-3-0"
           cx="88.804893"
           cy="139.00264"
           r="0.77339655" />
      </g>
    </g>
    <g
       aria-label="T&amp;H"
       transform="scale(0.98062443,1.0197584)"
       id="text13021-45-0-7-3-0-9-24"
       style="font-style:normal;font-variant:normal;font-weight:bold;font-stretch:normal;font-size:1.73895px;line-height:125%;font-family:'Segoe Print';-inkscape-font-specification:'Segoe Print Bold';font-variant-ligatures:normal;font-variant-caps:normal;font-variant-numeric:normal;font-variant-east-asian:normal;text-align:start;letter-spacing:0px;word-spacing:0px;writing-mode:lr-tb;text-anchor:start;display:inline;fill:#1fa21f;fill-opacity:1;stroke:none;stroke-width:0.264583px;stroke-linecap:butt;stroke-linejoin:miter;stroke-opacity:1">
      <path
         inkscape:connector-curvature="0"
         d="m 75.512671,142.9495 q -0.0076,0.007 -0.01359,0.0382 -0.0059,0.0314 -0.03481,0.29209 -0.02802,0.26067 -0.02802,0.4169 0,0.0645 0.01528,0.14435 0.0042,0.0119 0.0042,0.0272 0,0.0459 -0.02717,0.0824 -0.02632,0.0365 -0.06793,0.0365 -0.02802,0 -0.07132,-0.028 -0.04246,-0.0272 -0.05095,-0.0934 -0.0085,-0.0662 -0.0085,-0.17236 0,-0.1452 0.03396,-0.43219 0.03396,-0.287 0.04076,-0.29294 -0.02377,0 -0.190197,0.0127 -0.167272,0.0127 -0.194443,0.0127 -0.08746,0 -0.121421,-0.0221 -0.03396,-0.0229 -0.03396,-0.0713 0,-0.0433 0.03566,-0.0662 0.03651,-0.0229 0.183405,-0.0229 0.24454,0 0.479739,-0.0323 0.264919,-0.0408 0.401623,-0.0408 0.152838,0 0.185952,0.0365 0.03311,0.0357 0.03311,0.0713 0,0.0824 -0.07302,0.0824 -0.02377,0 -0.07642,-0.005 -0.05349,-0.004 -0.124817,-0.004 -0.214822,0 -0.297184,0.0306 z"
         id="path3124" />
      <path
         inkscape:connector-curvature="0"
         d="m 76.955286,143.74256 q 0.08916,0.0628 0.181707,0.0628 0.03311,0 0.08066,-0.0178 0.0076,-0.003 0.01783,-0.003 0.05095,0 0.05095,0.0679 0,0.0382 -0.05095,0.0909 -0.0501,0.0518 -0.125666,0.0518 -0.163027,0 -0.314166,-0.11378 -0.188499,0.135 -0.400774,0.135 -0.151988,0 -0.246238,-0.0874 -0.0934,-0.0883 -0.0934,-0.23011 0,-0.22586 0.277654,-0.40162 0.01953,-0.0119 0.01953,-0.0297 0,-0.011 -0.0076,-0.0323 -0.04161,-0.11293 -0.04161,-0.21312 0,-0.14774 0.08746,-0.24454 0.08831,-0.0968 0.223312,-0.0968 0.110383,0 0.174914,0.0815 0.06538,0.0815 0.06538,0.1868 0,0.17661 -0.223313,0.34813 -0.02717,0.0204 -0.02717,0.0416 0,0.0442 0.09,0.16048 0.09001,0.11633 0.135856,0.15029 0.101892,-0.10868 0.129912,-0.21142 l -0.03142,-0.003 q -0.07727,-0.006 -0.104439,-0.0331 -0.02632,-0.028 -0.02632,-0.0747 0,-0.0323 0.02717,-0.0577 0.02717,-0.0263 0.05349,-0.0263 0.02123,0 0.08151,0.0178 0.06029,0.0187 0.13161,0.0187 0.06623,0 0.135855,-0.008 0.06878,-0.008 0.09255,-0.008 0.06623,0 0.06623,0.0535 0,0.0993 -0.135006,0.10953 -0.04925,0.004 -0.06708,0.0127 -0.01783,0.008 -0.02972,0.0306 -0.09085,0.17321 -0.198689,0.27341 z m -0.424548,-0.55871 q 0.138403,-0.11038 0.138403,-0.22926 0,-0.0442 -0.02208,-0.0764 -0.02123,-0.0331 -0.05179,-0.0331 -0.03906,0 -0.06963,0.0467 -0.02972,0.0467 -0.02972,0.11038 0,0.096 0.03481,0.18171 z m 0.138403,0.58163 q -0.135007,-0.13755 -0.239446,-0.3269 -0.160479,0.11038 -0.160479,0.25303 0,0.0696 0.04925,0.10868 0.04925,0.0391 0.135006,0.0391 0.108684,0 0.215671,-0.0739 z"
         id="path3126" />
      <path
         inkscape:connector-curvature="0"
         d="m 77.827309,143.47934 q -0.02208,0.0459 -0.03227,0.25303 -0.0042,0.12142 -0.03396,0.20293 -0.02887,0.0815 -0.07642,0.0815 -0.05349,0 -0.09,-0.034 -0.03566,-0.0331 -0.03566,-0.0968 0,-0.056 0.02462,-0.15453 0.05519,-0.22247 0.12227,-0.93146 0.0042,-0.0289 0.03396,-0.0552 0.03057,-0.0272 0.06368,-0.0272 0.112081,0 0.112081,0.13925 0,0.0628 -0.02547,0.19954 -0.02972,0.15708 -0.02972,0.22925 0.0068,0.008 0.06114,0.008 0.118874,0 0.337092,-0.0187 0.218218,-0.0187 0.23435,-0.0484 0.01698,-0.0297 0.03481,-0.17151 0.01868,-0.14265 0.01868,-0.30313 0,-0.0238 0.03566,-0.0569 0.03566,-0.034 0.07642,-0.034 0.0467,0 0.07727,0.0297 0.03142,0.0297 0.03142,0.0739 0,0.0637 -0.03142,0.23095 -0.03566,0.18765 -0.06029,0.48144 -0.02378,0.29378 -0.02378,0.39058 0,0.0459 -0.04415,0.0909 -0.04415,0.045 -0.07897,0.045 -0.03736,0 -0.07217,-0.028 -0.03481,-0.028 -0.03481,-0.0722 0,-0.0289 0.02293,-0.19784 0.02293,-0.16812 0.02293,-0.23095 0,-0.0408 -0.01613,-0.0408 -0.03991,0 -0.157932,0.009 -0.118874,0.0102 -0.162178,0.0102 -0.03142,0 -0.164725,0.009 -0.132459,0.009 -0.139251,0.0161 z"
         id="path3128" />
    </g>
  </g>
</svg>
