<?xml version="1.0" encoding="UTF-8" standalone="no"?>
<!-- Created with Inkscape (http://www.inkscape.org/) -->

<svg
   xmlns:dc="http://purl.org/dc/elements/1.1/"
   xmlns:cc="http://creativecommons.org/ns#"
   xmlns:rdf="http://www.w3.org/1999/02/22-rdf-syntax-ns#"
   xmlns:svg="http://www.w3.org/2000/svg"
   xmlns="http://www.w3.org/2000/svg"
   xmlns:sodipodi="http://sodipodi.sourceforge.net/DTD/sodipodi-0.dtd"
   xmlns:inkscape="http://www.inkscape.org/namespaces/inkscape"
   width="9.6149521"
   height="10.100002"
   viewBox="0 0 2.543956 2.6722924"
   version="1.1"
   id="svg1633"
   inkscape:version="0.92.2 (5c3e80d, 2017-08-06)"
   sodipodi:docname="BarkButtonIncDec_1.svg">
  <defs
     id="defs1627" />
  <sodipodi:namedview
     id="base"
     pagecolor="#ffffff"
     bordercolor="#666666"
     borderopacity="1.0"
     inkscape:pageopacity="0.0"
     inkscape:pageshadow="2"
     inkscape:zoom="89.600001"
     inkscape:cx="2.458025"
     inkscape:cy="9.0650941"
     inkscape:document-units="px"
     inkscape:current-layer="layer1"
     showgrid="false"
     units="px" />
  <metadata
     id="metadata1630">
    <rdf:RDF>
      <cc:Work
         rdf:about="">
        <dc:format>image/svg+xml</dc:format>
        <dc:type
           rdf:resource="http://purl.org/dc/dcmitype/StillImage" />
        <dc:title />
      </cc:Work>
    </rdf:RDF>
  </metadata>
  <g
     inkscape:label="Layer 1"
     inkscape:groupmode="layer"
     id="layer1"
     transform="translate(-72.143287,-114.23528)">
    <path
       style="display:inline;fill:#000000;fill-opacity:1;stroke:none;stroke-width:0.99999881;paint-order:markers stroke fill"
       d="M 2.0175781 0 C 0.48569782 0.022677165 0 1.5975781 0 5.0507812 C 0 10.575884 1.2405088 11.291829 6.0253906 8.5292969 C 10.810272 5.7667268 10.810272 4.3328448 6.0253906 1.5703125 C 4.2310599 0.53434401 2.9367063 -0.012699212 2.0175781 0 z M 2.1054688 0.2109375 C 2.9862654 0.19878596 4.2297195 0.72404355 5.9492188 1.7167969 C 10.53455 4.3641391 10.53455 5.7374234 5.9492188 8.3847656 C 1.3638875 11.032108 0.17382815 10.345466 0.17382812 5.0507812 C 0.17382811 1.7416035 0.63747427 0.23119007 2.1054688 0.2109375 z "
       transform="matrix(0.26458334,0,0,0.26458334,72.143287,114.23528)"
       id="path1812" />
    <path
       d="m 6.9970606,274.89851 c -0.7253676,1.25637 -1.1017548,1.25637 -1.8271223,0 -0.7253676,-1.25638 -0.537174,-1.58234 0.9135611,-1.58234 1.4507352,0 1.6389288,0.32596 0.9135612,1.58234 z"
       inkscape:randomized="0"
       inkscape:rounded="0.794"
       inkscape:flatsided="true"
       sodipodi:arg2="1.5707963"
       sodipodi:arg1="0.52359878"
       sodipodi:r2="0.52744484"
       sodipodi:r1="1.0548896"
       sodipodi:cy="274.37106"
       sodipodi:cx="6.0834994"
       sodipodi:sides="3"
       id="path1812-9"
       style="display:inline;fill:#cccccc;fill-opacity:0.58730164;stroke:none;stroke-width:0.26875132;paint-order:markers stroke fill"
       sodipodi:type="star"
       transform="matrix(0,-0.98449012,0.98449012,0,-196.90466,121.5605)"
       inkscape:transform-center-x="0.20420231" />
    <path
       inkscape:transform-center-y="1.5263996e-006"
       d="m 6.9970606,274.89851 c -0.7253676,1.25637 -1.1017548,1.25637 -1.8271223,0 -0.7253676,-1.25638 -0.537174,-1.58234 0.9135611,-1.58234 1.4507352,0 1.6389288,0.32596 0.9135612,1.58234 z"
       inkscape:randomized="0"
       inkscape:rounded="0.794"
       inkscape:flatsided="true"
       sodipodi:arg2="1.5707963"
       sodipodi:arg1="0.52359878"
       sodipodi:r2="0.52744484"
       sodipodi:r1="1.0548896"
       sodipodi:cy="274.37106"
       sodipodi:cx="6.0834994"
       sodipodi:sides="3"
       id="path1812-1-5"
       style="display:inline;fill:#cccccc;fill-opacity:0.51322752;stroke:none;stroke-width:0.31045347;paint-order:markers stroke fill"
       sodipodi:type="star"
       transform="matrix(0,0.8522469,0.8522469,0,-154.1619,110.47846)"
       inkscape:transform-center-x="-0.17677216" />
    <path
       style="display:inline;fill:#000000;fill-opacity:1;stroke:none;stroke-width:0.26458302;paint-order:markers stroke fill"
       d="m 79.139162,114.32701 c -0.40531,0.006 -0.533742,0.42252 -0.533742,1.33618 0,1.46185 0.328456,1.65156 1.594456,0.92064 1.266,-0.73093 1.266,-1.11036 0,-1.84128 -0.47475,-0.2741 -0.817528,-0.4189 -1.060714,-0.41554 z m 0.06093,0.15413 c 0.215113,-0.003 0.518397,0.12518 0.938344,0.36764 1.119858,0.64655 1.119858,0.98175 0,1.6283 -1.119859,0.64655 -1.41012,0.47921 -1.41012,-0.81389 0,-0.80819 0.113253,-1.1771 0.471776,-1.18205 z"
       id="path1812-3"
       inkscape:connector-curvature="0" />
    <path
       d="m 6.9970606,274.89851 c -0.7253676,1.25637 -1.1017548,1.25637 -1.8271223,0 -0.7253676,-1.25638 -0.537174,-1.58234 0.9135611,-1.58234 1.4507352,0 1.6389288,0.32596 0.9135612,1.58234 z"
       inkscape:randomized="0"
       inkscape:rounded="0.794"
       inkscape:flatsided="true"
       sodipodi:arg2="1.5707963"
       sodipodi:arg1="0.52359878"
       sodipodi:r2="0.52744484"
       sodipodi:r1="1.0548896"
       sodipodi:cy="274.37106"
       sodipodi:cx="6.0834994"
       sodipodi:sides="3"
       id="path1812-9-7"
       style="display:inline;fill:#cccccc;fill-opacity:0.58730164;stroke:none;stroke-width:0.34918857;paint-order:markers stroke fill"
       sodipodi:type="star"
       transform="matrix(0,-0.75770815,0.75770815,0,-128.14338,120.27262)"
       inkscape:transform-center-x="0.15716112"
       inkscape:transform-center-y="-2.0190299e-006" />
  </g>
</svg>
