<?xml version="1.0" encoding="UTF-8" standalone="no"?>
<!-- Created with Inkscape (http://www.inkscape.org/) -->

<svg
   xmlns:dc="http://purl.org/dc/elements/1.1/"
   xmlns:cc="http://creativecommons.org/ns#"
   xmlns:rdf="http://www.w3.org/1999/02/22-rdf-syntax-ns#"
   xmlns:svg="http://www.w3.org/2000/svg"
   xmlns="http://www.w3.org/2000/svg"
   xmlns:sodipodi="http://sodipodi.sourceforge.net/DTD/sodipodi-0.dtd"
   xmlns:inkscape="http://www.inkscape.org/namespaces/inkscape"
   width="13.728"
   height="13.728"
   viewBox="0 0 3.6321998 3.6322"
   version="1.1"
   id="svg2435"
   inkscape:version="0.92.2 (5c3e80d, 2017-08-06)"
   sodipodi:docname="BarkBTNSoloDown.svg">
  <defs
     id="defs2429">
    <clipPath
       clipPathUnits="userSpaceOnUse"
       id="clipPath2301-9">
      <rect
         style="display:inline;opacity:1;fill:#d4aa00;fill-opacity:1;fill-rule:nonzero;stroke:none;stroke-width:0.04721729;stroke-linecap:butt;stroke-linejoin:miter;stroke-miterlimit:4;stroke-dasharray:none;stroke-dashoffset:0;stroke-opacity:1;paint-order:markers stroke fill"
         id="rect2303-0"
         width="3.0048897"
         height="3.0048897"
         x="-13.6154"
         y="68.612144" />
    </clipPath>
    <clipPath
       clipPathUnits="userSpaceOnUse"
       id="clipPath2301">
      <rect
         style="display:inline;opacity:1;fill:#d4aa00;fill-opacity:1;fill-rule:nonzero;stroke:none;stroke-width:0.04721729;stroke-linecap:butt;stroke-linejoin:miter;stroke-miterlimit:4;stroke-dasharray:none;stroke-dashoffset:0;stroke-opacity:1;paint-order:markers stroke fill"
         id="rect2303"
         width="3.0048897"
         height="3.0048897"
         x="-13.6154"
         y="68.612144" />
    </clipPath>
  </defs>
  <sodipodi:namedview
     id="base"
     pagecolor="#ffffff"
     bordercolor="#666666"
     borderopacity="1.0"
     inkscape:pageopacity="0.0"
     inkscape:pageshadow="2"
     inkscape:zoom="15.839192"
     inkscape:cx="-5.5854486"
     inkscape:cy="9.8354472"
     inkscape:document-units="px"
     inkscape:current-layer="layer1"
     showgrid="false"
     inkscape:snap-global="false"
     units="px" />
  <metadata
     id="metadata2432">
    <rdf:RDF>
      <cc:Work
         rdf:about="">
        <dc:format>image/svg+xml</dc:format>
        <dc:type
           rdf:resource="http://purl.org/dc/dcmitype/StillImage" />
        <dc:title />
      </cc:Work>
    </rdf:RDF>
  </metadata>
  <g
     inkscape:label="Layer 1"
     inkscape:groupmode="layer"
     id="layer1"
     transform="translate(-99.983513,-158.08957)">
    <rect
       style="display:inline;opacity:0.76200005;fill:#b3c5a3;fill-opacity:1;fill-rule:nonzero;stroke:none;stroke-width:0.05721195;stroke-linecap:butt;stroke-linejoin:miter;stroke-miterlimit:4;stroke-dasharray:none;stroke-dashoffset:0;stroke-opacity:1;paint-order:markers stroke fill"
       id="rect2007-1-1"
       width="3.6322"
       height="3.6322"
       x="99.983513"
       y="158.08957" />
    <rect
       style="display:inline;opacity:1;fill:#338000;fill-opacity:1;fill-rule:nonzero;stroke:none;stroke-width:0.05580231;stroke-linecap:butt;stroke-linejoin:miter;stroke-miterlimit:4;stroke-dasharray:none;stroke-dashoffset:0;stroke-opacity:1;paint-order:markers stroke fill"
       id="rect6780-5-1"
       width="3.5512376"
       height="3.5512376"
       x="100.02399"
       y="158.13005" />
    <rect
       style="display:inline;opacity:1;fill:#00f000;fill-opacity:0.6719577;fill-rule:nonzero;stroke:none;stroke-width:0.05345521;stroke-linecap:butt;stroke-linejoin:miter;stroke-miterlimit:4;stroke-dasharray:none;stroke-dashoffset:0;stroke-opacity:1;paint-order:markers stroke fill"
       id="rect6780-05-8"
       width="3.4018691"
       height="3.4018691"
       x="100.08686"
       y="158.18112" />
    <g
       aria-label="S"
       style="font-style:normal;font-variant:normal;font-weight:normal;font-stretch:normal;font-size:1.84245253px;line-height:125%;font-family:'Segoe Print';-inkscape-font-specification:'Segoe Print, Normal';font-variant-ligatures:normal;font-variant-caps:normal;font-variant-numeric:normal;font-feature-settings:normal;text-align:start;letter-spacing:0px;word-spacing:0px;writing-mode:lr-tb;text-anchor:start;display:inline;fill:#ffffff;fill-opacity:0.87301588;stroke:none;stroke-width:0.15353802px;stroke-linecap:butt;stroke-linejoin:miter;stroke-opacity:1"
       id="text11809-9-6-3-0-61-5-2-0-2-2-2-6-6-1-7">
      <path
         inkscape:connector-curvature="0"
         d="m 102.20489,159.52288 q 0,-0.11965 -0.0621,-0.14574 -0.0621,-0.027 -0.15473,-0.027 -0.19073,0 -0.34636,0.0756 -0.15474,0.0747 -0.15474,0.17992 0,0.0756 0.0684,0.13225 0.0693,0.0558 0.30048,0.12325 0.22401,0.0648 0.31847,0.13405 0.0954,0.0684 0.0954,0.16553 0,0.0981 -0.13224,0.21231 -0.13225,0.11336 -0.31937,0.17273 -0.18623,0.0594 -0.31668,0.0594 -0.10885,0 -0.16553,-0.0261 -0.0558,-0.0252 -0.0558,-0.0639 0,-0.027 0.0162,-0.0657 0.0171,-0.0396 0.0342,-0.0396 0.018,0 0.0369,0.006 0.0963,0.036 0.19072,0.036 0.17003,0 0.36075,-0.099 0.19073,-0.0999 0.19073,-0.18622 0,-0.0369 -0.0585,-0.0702 -0.0576,-0.0342 -0.29328,-0.10886 -0.29238,-0.0927 -0.35985,-0.17993 -0.0666,-0.0882 -0.0666,-0.18532 0,-0.18713 0.21502,-0.30138 0.21501,-0.11515 0.44981,-0.11515 0.15564,0 0.23931,0.0531 0.0837,0.0522 0.0837,0.11606 0,0.0306 -0.0189,0.0891 -0.0189,0.0585 -0.0954,0.0585 z"
         style="stroke-width:0.15353802px;fill:#ffffff;fill-opacity:0.87301588"
         id="path3052" />
    </g>
  </g>
</svg>
