<?xml version="1.0" encoding="UTF-8" standalone="no"?>
<!-- Created with Inkscape (http://www.inkscape.org/) -->

<svg
   xmlns:dc="http://purl.org/dc/elements/1.1/"
   xmlns:cc="http://creativecommons.org/ns#"
   xmlns:rdf="http://www.w3.org/1999/02/22-rdf-syntax-ns#"
   xmlns:svg="http://www.w3.org/2000/svg"
   xmlns="http://www.w3.org/2000/svg"
   xmlns:sodipodi="http://sodipodi.sourceforge.net/DTD/sodipodi-0.dtd"
   xmlns:inkscape="http://www.inkscape.org/namespaces/inkscape"
   width="26"
   height="26"
   viewBox="0 0 6.8791664 6.8791664"
   version="1.1"
   id="svg1538"
   inkscape:version="0.92.2 (5c3e80d, 2017-08-06)"
   sodipodi:docname="BarkKnob_26.svg">
  <defs
     id="defs1532" />
  <sodipodi:namedview
     id="base"
     pagecolor="#ffffff"
     bordercolor="#666666"
     borderopacity="1.0"
     inkscape:pageopacity="0.0"
     inkscape:pageshadow="2"
     inkscape:zoom="44.8"
     inkscape:cx="6.8998681"
     inkscape:cy="25.025686"
     inkscape:document-units="px"
     inkscape:current-layer="layer1"
     showgrid="false"
     inkscape:snap-global="false"
     units="px" />
  <metadata
     id="metadata1535">
    <rdf:RDF>
      <cc:Work
         rdf:about="">
        <dc:format>image/svg+xml</dc:format>
        <dc:type
           rdf:resource="http://purl.org/dc/dcmitype/StillImage" />
        <dc:title />
      </cc:Work>
    </rdf:RDF>
  </metadata>
  <g
     inkscape:label="Layer 1"
     inkscape:groupmode="layer"
     id="layer1"
     transform="translate(-91.365359,-167.72785)">
    <circle
       style="opacity:1;fill:#808080;fill-opacity:1;fill-rule:nonzero;stroke:none;stroke-width:0.03163776;stroke-linecap:butt;stroke-linejoin:miter;stroke-miterlimit:4;stroke-dasharray:none;stroke-dashoffset:0;stroke-opacity:1;paint-order:markers stroke fill"
       id="path1075"
       cx="94.804939"
       cy="171.16743"
       r="3.4395833" />
    <path
       style="opacity:1;fill:#666666;fill-opacity:0.24338624;fill-rule:nonzero;stroke:none;stroke-width:0.29472941;stroke-linecap:butt;stroke-linejoin:miter;stroke-miterlimit:4;stroke-dasharray:none;stroke-dashoffset:0;stroke-opacity:1;paint-order:markers stroke fill"
       d="m 95.695412,167.84416 a 3.4395835,3.4395835 0 0 0 -0.01047,-0.003 c -0.23288,0.78971 -0.465789,1.57933 -0.637471,2.1883 0.101197,-0.51522 0.221759,-1.16555 0.345145,-1.83577 -0.151804,0.68346 -0.299352,1.35152 -0.407914,1.87146 0.07738,-0.63085 0.169241,-1.4711 0.260826,-2.30626 a 3.4395835,3.4395835 0 0 0 -0.0043,-4.3e-4 c -0.123761,0.80761 -0.247068,1.61364 -0.334848,2.23601 0.03073,-0.51704 0.06239,-1.16548 0.09426,-1.83519 -0.05759,0.68241 -0.113036,1.34705 -0.150559,1.86878 -0.007,-0.63306 -0.02664,-1.46788 -0.04621,-2.29985 a 3.4395835,3.4395835 0 0 0 -0.0046,1.2e-4 c -0.01568,0.80745 -0.03103,1.61065 -0.03591,2.23647 -0.04505,-0.62323 -0.112102,-1.4226 -0.179604,-2.22641 a 3.4395835,3.4395835 0 0 0 -0.005,4.3e-4 c 0.0345,0.84314 0.06925,1.69292 0.103541,2.32599 -0.075,-0.53432 -0.181295,-1.22933 -0.290149,-1.93714 0.07878,0.67875 0.155967,1.33622 0.223143,1.86146 -0.128926,-0.61349 -0.304228,-1.40199 -0.4804,-2.19398 a 3.4395835,3.4395835 0 0 0 -0.0073,0.001 c 0.145442,0.82247 0.290869,1.64789 0.409335,2.27232 -0.169401,-0.6119 -0.402543,-1.41536 -0.635076,-2.21632 a 3.4395835,3.4395835 0 0 0 -0.006,0.002 c 0.194374,0.79633 0.388778,1.5909 0.545689,2.20209 -0.175342,-0.50895 -0.403218,-1.14817 -0.638403,-1.80547 0.219354,0.69309 0.43526,1.37274 0.608047,1.8954 -0.236926,-0.55633 -0.557877,-1.28472 -0.880831,-2.01682 0.279476,0.7083 0.554402,1.40378 0.77811,1.95244 -0.282895,-0.56289 -0.652112,-1.27694 -1.02353,-1.9956 a 3.4395835,3.4395835 0 0 0 -0.0021,0.001 c 0.356577,0.76778 0.715185,1.54109 0.992142,2.11793 -0.311953,-0.53069 -0.733688,-1.22706 -1.155905,-1.92465 0.37396,0.67788 0.742886,1.34538 1.039435,1.86876 -0.318499,-0.47153 -0.72432,-1.05923 -1.140707,-1.66083 0.404925,0.63645 0.80448,1.26338 1.1183,1.74315 -0.358199,-0.45932 -0.831523,-1.05119 -1.310852,-1.65007 0.457371,0.61962 0.90941,1.23092 1.263993,1.69907 -0.409246,-0.45711 -0.950469,-1.04655 -1.494281,-1.63907 0.518601,0.61308 1.034943,1.22294 1.43574,1.68494 -0.452421,-0.44214 -1.054623,-1.0165 -1.65571,-1.58947 a 3.4395835,3.4395835 0 0 0 -0.0041,0.004 c 0.563051,0.58505 1.123458,1.16774 1.564025,1.61497 -0.4743,-0.41028 -1.091027,-0.93199 -1.711001,-1.45579 a 3.4395835,3.4395835 0 0 0 -0.0025,0.003 c 0.619845,0.57051 1.243229,1.14467 1.716189,1.56882 -0.427656,-0.32313 -0.985585,-0.73428 -1.555815,-1.15376 0.527361,0.41871 1.038327,0.82321 1.450888,1.14302 -0.521924,-0.34152 -1.199405,-0.77402 -1.880565,-1.20842 0.679466,0.47387 1.359031,0.94785 1.883997,1.30463 -0.510492,-0.28966 -1.171296,-0.65461 -1.842183,-1.02462 0.663139,0.40035 1.318837,0.79556 1.826522,1.09346 -0.574711,-0.27636 -1.337769,-0.63122 -2.097309,-0.98484 a 3.4395835,3.4395835 0 0 0 -0.0018,0.004 c 0.727826,0.37791 1.454235,0.75539 2.019459,1.04047 -0.585238,-0.23834 -1.345605,-0.53777 -2.108175,-0.83787 a 3.4395835,3.4395835 0 0 0 -3.36e-4,0.001 c 0.771514,0.34144 1.547501,0.68557 2.134302,0.93633 -0.562056,-0.18647 -1.302382,-0.42215 -2.049254,-0.65934 0.723853,0.26145 1.43793,0.51921 1.993367,0.71218 -0.581558,-0.15045 -1.336763,-0.33585 -2.099376,-0.5229 0.754448,0.21737 1.501775,0.43249 2.080954,0.59164 -0.57991,-0.10949 -1.330527,-0.24237 -2.091331,-0.37641 0.757424,0.16419 1.505684,0.32579 2.084737,0.44385 -0.630639,-0.0757 -1.459562,-0.16494 -2.286903,-0.2539 a 3.4395835,3.4395835 0 0 0 -5.2e-4,0.002 c 0.808822,0.12147 1.615313,0.2424 2.240748,0.32883 -0.630925,-0.0364 -1.445931,-0.074 -2.262817,-0.11148 a 3.4395835,3.4395835 0 0 0 -1.81e-4,0.002 c 0.839361,0.0739 1.684144,0.14865 2.32103,0.19662 -0.587677,0.005 -1.356419,0.0208 -2.132915,0.0371 0.752653,0.0136 1.491028,0.0261 2.072229,0.0298 -0.583983,0.0428 -1.326206,0.10565 -2.081946,0.16998 0.758498,-0.0347 1.505181,-0.0692 2.08587,-0.10286 -0.620369,0.087 -1.426571,0.21001 -2.234206,0.3333 0.825902,-0.0914 1.654522,-0.18274 2.280636,-0.26 -0.619948,0.1295 -1.438073,0.3113 -2.253177,0.49236 a 3.4395835,3.4395835 0 0 0 4.77e-4,0.002 c 0.78946,-0.14101 1.572755,-0.28093 2.186076,-0.39767 -0.601701,0.16443 -1.365393,0.38219 -2.135085,0.6019 0.814196,-0.19639 1.632248,-0.39351 2.247471,-0.55022 -0.546309,0.18873 -1.254675,0.44305 -1.972168,0.70119 0.714164,-0.22603 1.414641,-0.44846 1.961825,-0.62885 -0.506828,0.21355 -1.145428,0.4907 -1.8002,0.77579 0.672635,-0.2632 1.331074,-0.52164 1.840711,-0.72842 -0.557672,0.28195 -1.286428,0.66196 -2.014723,1.0417 0.733017,-0.34465 1.462906,-0.68833 2.023866,-0.96031 -0.545652,0.3212 -1.249596,0.74708 -1.954363,1.17332 a 3.4395835,3.4395835 0 0 0 0.0029,0.005 c 0.742259,-0.40626 1.490275,-0.81527 2.046094,-1.12892 -0.522199,0.35566 -1.211685,0.83853 -1.897741,1.31891 0.683873,-0.43798 1.364736,-0.87367 1.88838,-1.21778 -0.496093,0.38606 -1.131372,0.8922 -1.769075,1.40067 0.659991,-0.48342 1.318143,-0.96563 1.820329,-1.34278 -0.368716,0.32656 -0.823348,0.73759 -1.294488,1.1648 0.489127,-0.41306 0.960622,-0.81276 1.334007,-1.13578 -0.443842,0.45212 -1.016703,1.05033 -1.589093,1.64781 a 3.4395835,3.4395835 0 0 0 0.0068,0.007 c 0.603231,-0.57578 1.209349,-1.15389 1.661645,-1.59672 -0.395264,0.45777 -0.906414,1.06524 -1.420335,1.67598 0.526594,-0.57731 1.045908,-1.14708 1.448283,-1.5986 -0.337342,0.44518 -0.755228,1.00908 -1.183628,1.58815 0.468136,-0.58487 0.929384,-1.16208 1.276432,-1.60745 -0.348497,0.53474 -0.805177,1.25625 -1.258195,1.97156 a 3.4395835,3.4395835 0 0 0 0.0053,0.003 c 0.465993,-0.66903 0.931103,-1.33665 1.284044,-1.85648 -0.309512,0.54605 -0.70242,1.25845 -1.096157,1.97289 a 3.4395835,3.4395835 0 0 0 0.0014,10e-4 c 0.435064,-0.71666 0.872153,-1.43609 1.196092,-1.98507 -0.238892,0.49373 -0.538519,1.13154 -0.844141,1.78379 0.317703,-0.61713 0.62522,-1.21662 0.865328,-1.69674 -0.235067,0.58228 -0.529238,1.33644 -0.824409,2.093 a 3.4395835,3.4395835 0 0 0 0.0019,4.3e-4 c 0.34136,-0.77618 0.685582,-1.55844 0.936578,-2.14953 -0.167115,0.50827 -0.374705,1.16561 -0.586443,1.83823 0.228325,-0.642 0.449071,-1.26489 0.619131,-1.76166 -0.156359,0.615 -0.350253,1.41867 -0.544343,2.22229 a 3.4395835,3.4395835 0 0 0 0.01054,0.003 3.4395835,3.4395835 0 0 0 0.0032,4.3e-4 c 0.234898,-0.80776 0.47102,-1.6187 0.642179,-2.23572 -0.09862,0.51738 -0.216656,1.17767 -0.337335,1.85595 0.141395,-0.65523 0.277218,-1.28887 0.38093,-1.79802 -0.07662,0.62927 -0.166214,1.4433 -0.255879,2.25925 a 3.4395835,3.4395835 0 0 0 0.0033,4.3e-4 c 0.123732,-0.80751 0.247371,-1.61344 0.335173,-2.23591 -0.03127,0.52512 -0.06362,1.18578 -0.0961,1.86668 0.05953,-0.70225 0.117112,-1.38794 0.155795,-1.92336 0.0069,0.63953 0.02682,1.48455 0.04644,2.32495 a 3.4395835,3.4395835 0 0 0 0.0034,2.5e-4 c 0.01581,-0.8106 0.03155,-1.61779 0.03668,-2.24844 0.04469,0.62816 0.11099,1.43178 0.177751,2.23982 a 3.4395835,3.4395835 0 0 0 0.0039,-3e-4 c -0.03392,-0.85203 -0.068,-1.71245 -0.101887,-2.35163 0.07414,0.53401 0.179627,1.22913 0.28738,1.93709 -0.07896,-0.68874 -0.156563,-1.35852 -0.223611,-1.88697 0.131242,0.62341 0.312206,1.43509 0.49306,2.24536 a 3.4395835,3.4395835 0 0 0 0.0041,-4.3e-4 c -0.144691,-0.81032 -0.289117,-1.62121 -0.408064,-2.24503 0.167792,0.60829 0.394714,1.3946 0.622201,2.1826 -0.194715,-0.7966 -0.389395,-1.59214 -0.546038,-2.2008 0.172235,0.49754 0.396613,1.12307 0.628215,1.76692 -0.213892,-0.67145 -0.423777,-1.3275 -0.592757,-1.83566 0.237151,0.55399 0.557444,1.27732 0.879896,2.00475 -0.283231,-0.71448 -0.562869,-1.41794 -0.788285,-1.96768 0.286071,0.56451 0.663169,1.28753 1.041014,2.0121 a 3.4395835,3.4395835 0 0 0 0.0026,-0.001 c -0.351091,-0.75019 -0.702552,-1.50169 -0.9791,-2.07446 0.309118,0.52598 0.718073,1.20276 1.130095,1.8847 -0.391703,-0.71152 -0.783007,-1.4222 -1.085243,-1.95476 0.360415,0.5265 0.85084,1.22271 1.337452,1.9142 a 3.4395835,3.4395835 0 0 0 0.01044,-0.007 c -0.435951,-0.68348 -0.869908,-1.363 -1.214821,-1.89037 0.316759,0.40961 0.713324,0.91223 1.125316,1.43274 -0.412421,-0.56208 -0.814684,-1.10951 -1.134843,-1.53475 0.409889,0.46025 0.953337,1.05595 1.49909,1.65357 -0.516949,-0.61419 -1.031411,-1.2251 -1.431843,-1.68911 0.455712,0.448 1.061698,1.02925 1.665574,1.60847 a 3.4395835,3.4395835 0 0 0 0.0022,-0.002 c -0.569001,-0.59421 -1.137348,-1.18779 -1.581996,-1.64135 0.411849,0.35769 0.935506,0.80234 1.474031,1.25911 -0.536995,-0.49135 -1.064665,-0.97336 -1.475687,-1.33989 0.484723,0.36426 1.129766,0.8365 1.77717,1.31009 -0.604834,-0.48104 -1.202227,-0.95557 -1.673343,-1.32121 0.526587,0.34458 1.212714,0.78217 1.900561,1.22074 a 3.4395835,3.4395835 0 0 0 0.0026,-0.004 c -0.681668,-0.4771 -1.363912,-0.95457 -1.892618,-1.31529 0.524975,0.29934 1.204806,0.67669 1.892384,1.0579 -0.68731,-0.41786 -1.371729,-0.83376 -1.895915,-1.14334 0.580164,0.28021 1.357395,0.6429 2.128533,1.00328 a 3.4395835,3.4395835 0 0 0 0.0013,-0.003 c -0.730535,-0.37984 -1.459636,-0.75871 -2.028087,-1.04592 0.473907,0.1938 1.064527,0.42825 1.676953,0.67051 -0.628832,-0.27547 -1.242328,-0.54355 -1.722604,-0.74673 0.563849,0.18466 1.307007,0.41773 2.056296,0.65253 -0.718848,-0.25661 -1.42665,-0.50864 -1.981525,-0.69926 0.618415,0.15797 1.425468,0.35396 2.2323,0.54983 a 3.4395835,3.4395835 0 0 0 8.66e-4,-0.003 3.4395835,3.4395835 0 0 0 0.0026,-0.0108 c -0.809791,-0.2363 -1.623791,-0.47392 -2.24201,-0.64597 0.57808,0.11055 1.330745,0.2451 2.092558,0.38092 -0.752618,-0.16485 -1.495511,-0.32711 -2.071017,-0.44574 0.627324,0.0765 1.45106,0.1666 2.273982,0.2567 -0.796857,-0.12078 -1.588553,-0.24074 -2.208423,-0.32745 0.518579,0.0311 1.161918,0.0635 1.828472,0.0959 -0.702044,-0.0598 -1.388613,-0.11766 -1.920837,-0.15617 0.64542,-0.007 1.507025,-0.0289 2.360943,-0.0497 a 3.4395835,3.4395835 0 0 0 2.86e-4,-0.008 c -0.827177,-0.0163 -1.654038,-0.0329 -2.292251,-0.038 0.53823,-0.039 1.21456,-0.095 1.910649,-0.15363 -0.693286,0.0325 -1.367266,0.065 -1.900886,0.0964 0.626041,-0.0883 1.438194,-0.21278 2.250569,-0.33727 a 3.4395835,3.4395835 0 0 0 -0.0013,-0.007 c -0.811049,0.0879 -1.620576,0.17544 -2.246504,0.25072 0.483218,-0.098 1.0803,-0.22487 1.700447,-0.35808 -0.665171,0.11837 -1.314291,0.23465 -1.815853,0.33064 0.619472,-0.17413 1.450124,-0.41981 2.272015,-0.66257 a 3.4395835,3.4395835 0 0 0 -2.95e-4,-0.001 c -0.799738,0.20029 -1.598502,0.40055 -2.213124,0.56221 0.600452,-0.21068 1.374663,-0.4929 2.149485,-0.77505 a 3.4395835,3.4395835 0 0 0 -0.0026,-0.007 c -0.786219,0.24783 -1.57193,0.49601 -2.175828,0.69426 0.431193,-0.18097 0.959725,-0.4086 1.510496,-0.64719 -0.563758,0.22177 -1.105507,0.43578 -1.539819,0.61256 0.56647,-0.28641 1.303462,-0.67059 2.039622,-1.05417 a 3.4395835,3.4395835 0 0 0 -0.003,-0.007 c -0.760851,0.35499 -1.525199,0.71119 -2.09904,0.98782 0.549128,-0.32348 1.270901,-0.761 1.989052,-1.19638 a 3.4395835,3.4395835 0 0 0 -0.003,-0.005 c -0.725777,0.39824 -1.452169,0.79684 -2.003703,1.1083 0.509869,-0.34573 1.166755,-0.80293 1.826548,-1.26218 -0.681135,0.43377 -1.359102,0.86589 -1.877239,1.20478 0.498476,-0.38733 1.143177,-0.90109 1.788219,-1.41503 -0.66397,0.48583 -1.327451,0.97155 -1.830788,1.34937 0.378251,-0.3354 0.848833,-0.76176 1.334648,-1.20306 -0.498685,0.42142 -0.980218,0.82969 -1.360799,1.1592 0.442006,-0.45079 1.011714,-1.0463 1.581578,-1.64183 a 3.4395835,3.4395835 0 0 0 -0.0035,-0.004 c -0.597064,0.57257 -1.194657,1.14626 -1.645387,1.58926 0.412515,-0.47783 0.944951,-1.11033 1.477015,-1.74217 -0.55159,0.60252 -1.101555,1.20298 -1.522717,1.67394 0.336628,-0.44301 0.75401,-1.0054 1.182148,-1.58263 -0.465985,0.58054 -0.924742,1.15309 -1.270443,1.59548 0.347633,-0.5322 0.802768,-1.24964 1.254353,-1.9611 a 3.4395835,3.4395835 0 0 0 -3.25e-4,-9e-5 c -0.467424,0.67245 -0.933955,1.34385 -1.289206,1.86796 0.311853,-0.5503 0.706351,-1.26574 1.101534,-1.98258 a 3.4395835,3.4395835 0 0 0 -0.0055,-0.003 c -0.432921,0.71008 -0.867461,1.42229 -1.190748,1.96771 0.225666,-0.46451 0.505514,-1.05724 0.792896,-1.6678 -0.304364,0.59024 -0.598244,1.16165 -0.827696,1.61988 0.235694,-0.58442 0.533368,-1.34832 0.831271,-2.11342 a 3.4395835,3.4395835 0 0 0 -0.0045,-0.003 c -0.339538,0.77221 -0.681365,1.54902 -0.93048,2.13588 0.167175,-0.50833 0.374851,-1.1664 0.586791,-1.83953 -0.222415,0.62527 -0.435951,1.22852 -0.604151,1.71872 0.15566,-0.60501 0.345291,-1.37843 0.536324,-2.15732 a 3.4395835,3.4395835 0 0 0 -0.0035,-0.001 z m 0.07131,0.43988 c 0.04512,-0.12685 0.08731,-0.24688 0.132583,-0.37412 a 3.4395835,3.4395835 0 0 0 -0.01313,-0.004 c -0.04052,0.12878 -0.07903,0.24994 -0.119457,0.37834 z m 0.344721,0.19948 c 0.0706,-0.13692 0.13722,-0.26683 0.208135,-0.4043 a 3.4395835,3.4395835 0 0 0 -0.01456,-0.007 c -0.06575,0.13975 -0.127998,0.2715 -0.193492,0.41065 z m 0.60743,0.18328 c 0.06185,-0.0771 0.119881,-0.14961 0.181766,-0.22671 a 3.4395835,3.4395835 0 0 0 -0.0084,-0.006 c -0.05881,0.0793 -0.114513,0.15352 -0.173312,0.2328 z m 0.291685,0.54796 c 0.127465,-0.10772 0.248261,-0.21027 0.376411,-0.31852 a 3.4395835,3.4395835 0 0 0 -0.0117,-0.0122 c -0.123938,0.11264 -0.241376,0.21866 -0.36472,0.3307 z m 0.496141,-0.1463 c 0.0039,-0.003 0.008,-0.006 0.01205,-0.009 a 3.4395835,3.4395835 0 0 0 -4.33e-4,-8.7e-4 c -0.0039,0.003 -0.0076,0.007 -0.01157,0.009 z m 0.08902,0.21024 c 0.01959,-0.0125 0.03792,-0.0243 0.0575,-0.0367 a 3.4395835,3.4395835 0 0 0 -0.0013,-0.003 c -0.01915,0.0134 -0.03722,0.0257 -0.05639,0.0391 z m -0.206418,0.8158 c 0.200386,-0.0788 0.392708,-0.15493 0.595235,-0.2345 a 3.4395835,3.4395835 0 0 0 -0.0075,-0.0201 c -0.199897,0.0867 -0.38984,0.16885 -0.587752,0.25459 z m 0.275613,0.5054 c 0.173845,-0.0309 0.33907,-0.0608 0.513886,-0.0918 a 3.4395835,3.4395835 0 0 0 -0.003,-0.0178 c -0.173831,0.0374 -0.338221,0.0725 -0.511004,0.10964 z m 0.197557,0.35548 c 0.125822,-0.006 0.24446,-0.0116 0.37053,-0.0175 a 3.4395835,3.4395835 0 0 0 -4.33e-4,-0.0133 c -0.125845,0.0107 -0.244301,0.0203 -0.369946,0.0309 z m -0.0588,0.40501 c 0.145886,0.0124 0.283846,0.0238 0.43017,0.0363 a 3.4395835,3.4395835 0 0 0 4.33e-4,-0.0151 c -0.146523,-0.007 -0.284678,-0.0141 -0.430746,-0.0212 z m 0.379951,0.23152 c 0.0104,10e-4 0.01998,0.003 0.03038,0.005 a 3.4395835,3.4395835 0 0 0 1.3e-5,-0.001 c -0.01027,-0.001 -0.02011,-0.002 -0.03038,-0.003 z m -0.202965,0.18904 c 0.06831,0.0149 0.132492,0.0288 0.200764,0.0437 a 3.4395835,3.4395835 0 0 0 0.0013,-0.008 c -0.06872,-0.0123 -0.133315,-0.0238 -0.202116,-0.036 z m -0.104563,0.42788 c 0.06183,0.022 0.119834,0.0426 0.181584,0.0647 a 3.4395835,3.4395835 0 0 0 0.0022,-0.007 c -0.06257,-0.0194 -0.121104,-0.0385 -0.183742,-0.0579 z m -0.333688,0.0942 c 0.146445,0.0642 0.285406,0.12446 0.432406,0.18889 a 3.4395835,3.4395835 0 0 0 0.0068,-0.0149 c -0.149409,-0.0591 -0.290334,-0.11514 -0.439179,-0.174 z m 0.117407,0.51831 c 0.03956,0.0241 0.07686,0.0464 0.116389,0.0705 a 3.4395835,3.4395835 0 0 0 0.0026,-0.005 c -0.04047,-0.0224 -0.07849,-0.0435 -0.118998,-0.0659 z m -0.229827,0.36197 c 0.03423,0.0272 0.06647,0.0526 0.100676,0.0798 a 3.4395835,3.4395835 0 0 0 0.0026,-0.004 c -0.03523,-0.0257 -0.06828,-0.0499 -0.103514,-0.0757 z m -0.301483,0.0298 c 0.08511,0.0778 0.165308,0.15119 0.250519,0.22917 a 3.4395835,3.4395835 0 0 0 0.0081,-0.009 c -0.08805,-0.0747 -0.170625,-0.14527 -0.258579,-0.21987 z m -0.127708,0.46479 c 0.02249,0.0267 0.04346,0.0518 0.06591,0.0785 a 3.4395835,3.4395835 0 0 0 0.003,-0.003 c -0.02349,-0.0257 -0.04562,-0.0499 -0.06913,-0.0755 z m -0.364251,-0.11879 c 0.0848,0.11556 0.165273,0.22451 0.25028,0.34039 a 3.4395835,3.4395835 0 0 0 0.01148,-0.009 c -0.08915,-0.11261 -0.172896,-0.21902 -0.26176,-0.33129 z m -0.17316,0.50477 c 0.01638,0.0298 0.03185,0.0576 0.04823,0.0873 a 3.4395835,3.4395835 0 0 0 0.0035,-0.002 c -0.01755,-0.029 -0.03397,-0.0564 -0.05152,-0.0855 z m -0.406519,0.14667 c 0.01829,0.0462 0.03553,0.0894 0.05378,0.13543 a 3.4395835,3.4395835 0 0 0 0.0051,-0.002 c -0.02011,-0.0453 -0.03874,-0.088 -0.05887,-0.13331 z m -0.287135,-0.16909 c 0.04173,0.13103 0.08147,0.25466 0.123301,0.386 a 3.4395835,3.4395835 0 0 0 0.01322,-0.005 c -0.0466,-0.12952 -0.09004,-0.25167 -0.136504,-0.38085 z m -0.08218,0.43387 c 8.67e-4,0.004 0.0018,0.007 0.0028,0.0105 a 3.4395835,3.4395835 0 0 0 3.24e-4,9e-5 c -0.001,-0.004 -0.0019,-0.007 -0.0031,-0.0106 z m -0.487583,-0.29444 c 0.01534,0.13383 0.0299,0.26018 0.04527,0.39432 a 3.4395835,3.4395835 0 0 0 0.01417,-0.002 c -0.02031,-0.13339 -0.03915,-0.25911 -0.0594,-0.39218 z m -0.609498,0.0217 c -0.01128,0.13307 -0.02176,0.2587 -0.03308,0.39209 a 3.4395835,3.4395835 0 0 0 0.01414,4.2e-4 c 0.0064,-0.13362 0.01264,-0.25947 0.01899,-0.39273 z m -0.367496,-0.0924 c -0.03135,0.14527 -0.06072,0.28268 -0.09219,0.42841 a 3.4395835,3.4395835 0 0 0 0.01469,0.004 c 0.02613,-0.14698 0.05143,-0.28549 0.0775,-0.432 z m -0.393415,-0.0852 c -0.04726,0.1329 -0.09166,0.25858 -0.139076,0.39186 a 3.4395835,3.4395835 0 0 0 0.01411,0.005 c 0.04244,-0.13484 0.08264,-0.26184 0.124973,-0.39633 z m -0.392906,-0.0858 c -0.05402,0.10493 -0.104824,0.20387 -0.158948,0.30898 a 3.4395835,3.4395835 0 0 0 0.0115,0.005 c 0.05009,-0.10692 0.09744,-0.20739 0.147465,-0.31414 z m -0.564844,-0.28389 c -0.06117,0.0764 -0.118652,0.14832 -0.179856,0.22479 a 3.4395835,3.4395835 0 0 0 0.0084,0.006 c 0.05817,-0.0786 0.113244,-0.15227 0.171405,-0.23089 z m -0.257686,-0.58788 c -0.13898,0.11736 -0.271023,0.22941 -0.410956,0.34751 a 3.4395835,3.4395835 0 0 0 0.01248,0.0131 c 0.135414,-0.12284 0.2639,-0.23859 0.398466,-0.3606 z m -0.525841,0.17798 c -0.0039,0.003 -0.0077,0.005 -0.01164,0.008 a 3.4395835,3.4395835 0 0 0 5.64e-4,4.3e-4 c 0.0038,-0.003 0.0073,-0.006 0.01107,-0.009 z m -0.119305,-0.18289 c -0.0073,0.005 -0.01413,0.009 -0.02141,0.0137 a 3.4395835,3.4395835 0 0 0 8.24e-4,8.6e-4 c 0.007,-0.005 0.01356,-0.01 0.02062,-0.0147 z m -0.220793,-0.4076 c -0.01086,0.005 -0.021,0.01 -0.03186,0.0151 a 3.4395835,3.4395835 0 0 0 6.5e-4,0.001 c 0.01062,-0.006 0.02053,-0.0108 0.03116,-0.0163 z m 0.174011,-0.31329 c -0.102323,0.04 -0.198635,0.0778 -0.301089,0.11788 a 3.4395835,3.4395835 0 0 0 0.0044,0.0109 c 0.100893,-0.0439 0.195912,-0.0849 0.296711,-0.12879 z m -0.161625,-0.14694 c -0.07257,0.023 -0.140675,0.0447 -0.213227,0.0677 a 3.4395835,3.4395835 0 0 0 0.0028,0.008 c 0.07157,-0.0258 0.138847,-0.0497 0.210424,-0.0754 z m -0.354293,-0.58943 c -0.0033,4.4e-4 -0.0064,4.4e-4 -0.0098,10e-4 a 3.4395835,3.4395835 0 0 0 -8.6e-5,3.2e-4 c 0.0033,-4.3e-4 0.0064,-4.3e-4 0.0098,-0.001 z m 0.148337,-0.23044 c -0.06054,0.003 -0.117322,0.006 -0.177844,0.008 a 3.4395835,3.4395835 0 0 0 4.32e-4,0.006 c 0.06037,-0.005 0.117069,-0.01 0.177463,-0.0147 z m 0.0097,-0.19979 c -0.06714,-10e-4 -0.130175,-0.002 -0.197286,-0.003 a 3.4395835,3.4395835 0 0 0 -2.14e-4,0.007 c 0.06718,-0.001 0.130281,-0.003 0.197481,-0.004 z m 0.03675,-0.64461 c -0.05722,-0.0126 -0.111114,-0.0237 -0.168289,-0.0364 a 3.4395835,3.4395835 0 0 0 -0.0013,0.007 c 0.05774,0.0101 0.111878,0.0199 0.169614,0.0302 z m 0.01038,-0.21526 c -0.04402,-0.0125 -0.08529,-0.0242 -0.129108,-0.0373 a 3.4395835,3.4395835 0 0 0 -0.001,0.005 c 0.0442,0.0112 0.0859,0.021 0.13013,0.0322 z m 0.106011,-0.18928 c -0.05674,-0.0206 -0.110096,-0.0395 -0.166843,-0.06 a 3.4395835,3.4395835 0 0 0 -0.002,0.006 c 0.0575,0.0181 0.111444,0.0352 0.1689,0.0536 z m 0.276581,-0.59356 c -0.05359,-0.0323 -0.103888,-0.0627 -0.157438,-0.0951 a 3.4395835,3.4395835 0 0 0 -0.0033,0.006 c 0.05475,0.0302 0.106037,0.0588 0.16081,0.089 z m 0.387864,-0.21461 c -0.103642,-0.0823 -0.201854,-0.15971 -0.305787,-0.24225 a 3.4395835,3.4395835 0 0 0 -0.0078,0.0111 c 0.106782,0.0785 0.207138,0.15278 0.313634,0.23113 z m 0.2132,-0.67627 c -0.01808,-0.0214 -0.03497,-0.0415 -0.05305,-0.0629 a 3.4395835,3.4395835 0 0 0 -0.0025,0.003 c 0.01887,0.0205 0.03659,0.0398 0.05545,0.0604 z m 0.230288,-0.06 c -0.0362,-0.049 -0.07026,-0.095 -0.106433,-0.14397 a 3.4395835,3.4395835 0 0 0 -0.0052,0.004 c 0.03806,0.0475 0.07366,0.0923 0.111718,0.13983 z m 0.192552,-0.0931 c -0.0396,-0.0622 -0.07693,-0.12059 -0.116534,-0.18285 a 3.4395835,3.4395835 0 0 0 -0.0067,0.005 c 0.04199,0.0606 0.08129,0.11772 0.123292,0.17839 z m 0.101272,-0.20794 c -0.01551,-0.0281 -0.03021,-0.0544 -0.04571,-0.0825 a 3.4395835,3.4395835 0 0 0 -0.0029,0.002 c 0.01657,0.0274 0.0321,0.0531 0.04867,0.0805 z m 0.411242,-0.15132 c -0.01794,-0.0454 -0.03499,-0.088 -0.05292,-0.13345 a 3.4395835,3.4395835 0 0 0 -0.0051,0.002 c 0.01974,0.0448 0.03816,0.0869 0.05792,0.13166 z m 0.272789,0.12142 c -0.03619,-0.11465 -0.07049,-0.22251 -0.106789,-0.33721 a 3.4395835,3.4395835 0 0 0 -0.01198,0.005 c 0.0405,0.11316 0.07841,0.21969 0.118822,0.33264 z m 0.588956,-0.12282 c -0.01446,-0.12456 -0.0284,-0.24205 -0.04288,-0.36689 a 3.4395835,3.4395835 0 0 0 -0.01303,0.002 c 0.0191,0.12411 0.03691,0.241 0.05595,0.36482 z m 0.608352,0.0319 c 0.01206,-0.14298 0.02332,-0.27823 0.03545,-0.4217 a 3.4395835,3.4395835 0 0 0 -0.01512,-4.4e-4 c -0.0068,0.14371 -0.01349,0.27909 -0.0203,0.42229 z m 0.391976,0.0348 c 0.0301,-0.1355 0.05808,-0.26364 0.08828,-0.39955 a 3.4395835,3.4395835 0 0 0 -0.01404,-0.003 c -0.02522,0.13709 -0.04908,0.2663 -0.07424,0.40297 z m -2.786389,5.47247 c -0.02418,0.0265 -0.04681,0.0515 -0.07098,0.078 a 3.4395835,3.4395835 0 0 0 0.0027,0.003 c 0.02316,-0.0275 0.04507,-0.0533 0.06825,-0.0808 z"
       id="path3114"
       inkscape:connector-curvature="0" />
    <path
       sodipodi:type="star"
       style="opacity:1;fill:#ff7f2a;fill-opacity:1;fill-rule:nonzero;stroke:none;stroke-width:0.05291667;stroke-linecap:butt;stroke-linejoin:miter;stroke-miterlimit:4;stroke-dasharray:none;stroke-dashoffset:0;stroke-opacity:1;paint-order:markers stroke fill"
       id="path1073"
       sodipodi:sides="7"
       sodipodi:cx="107.01472"
       sodipodi:cy="162.7171"
       sodipodi:r1="5.5033412"
       sodipodi:r2="6.1148238"
       sodipodi:arg1="1.0471976"
       sodipodi:arg2="1.4959965"
       inkscape:flatsided="false"
       inkscape:rounded="0.52"
       inkscape:randomized="0"
       d="m 109.76639,167.48314 c -1.19479,0.68981 -0.91894,1.22859 -2.29471,1.33169 -1.37577,0.1031 -1.1833,-0.47078 -2.46756,-0.97481 -1.28426,-0.50404 -1.5335,0.0476 -2.47189,-0.96378 -0.93838,-1.01134 -0.3697,-1.21867 -0.77636,-2.537 -0.40665,-1.31833 -0.9933,-1.16929 -0.78768,-2.53351 0.20562,-1.36421 0.72228,-1.04887 1.49945,-2.18877 0.77717,-1.1399 0.29487,-1.50564 1.48967,-2.19545 1.19479,-0.68981 1.27037,-0.0893 2.64614,-0.19236 1.37577,-0.1031 1.361,-0.70821 2.64526,-0.20418 1.28426,0.50404 0.86186,0.93757 1.80024,1.94891 0.93839,1.01134 1.40227,0.62251 1.80893,1.94085 0.40665,1.31833 -0.19567,1.25838 -0.40129,2.6226 -0.20562,1.36422 0.3876,1.48447 -0.38957,2.62437 -0.77717,1.13991 -1.10584,0.63162 -2.30063,1.32144 z"
       inkscape:transform-center-x="-0.046253209"
       inkscape:transform-center-y="0.030604454"
       transform="matrix(-0.37622349,0.40392015,-0.40392015,-0.37622349,200.79219,189.16133)" />
    <path
       sodipodi:type="star"
       style="opacity:1;fill:#808180;fill-opacity:1;fill-rule:nonzero;stroke:none;stroke-width:0.05291667;stroke-linecap:butt;stroke-linejoin:miter;stroke-miterlimit:4;stroke-dasharray:none;stroke-dashoffset:0;stroke-opacity:1;paint-order:markers stroke fill"
       id="path1073-6"
       sodipodi:sides="7"
       sodipodi:cx="107.01472"
       sodipodi:cy="162.7171"
       sodipodi:r1="5.5033412"
       sodipodi:r2="6.1148238"
       sodipodi:arg1="1.0471976"
       sodipodi:arg2="1.4959965"
       inkscape:flatsided="false"
       inkscape:rounded="0.52"
       inkscape:randomized="0"
       d="m 109.76639,167.48314 c -1.19479,0.68981 -0.91894,1.22859 -2.29471,1.33169 -1.37577,0.1031 -1.1833,-0.47078 -2.46756,-0.97481 -1.28426,-0.50404 -1.5335,0.0476 -2.47189,-0.96378 -0.93838,-1.01134 -0.3697,-1.21867 -0.77636,-2.537 -0.40665,-1.31833 -0.9933,-1.16929 -0.78768,-2.53351 0.20562,-1.36421 0.72228,-1.04887 1.49945,-2.18877 0.77717,-1.1399 0.29487,-1.50564 1.48967,-2.19545 1.19479,-0.68981 1.27037,-0.0893 2.64614,-0.19236 1.37577,-0.1031 1.361,-0.70821 2.64526,-0.20418 1.28426,0.50404 0.86186,0.93757 1.80024,1.94891 0.93839,1.01134 1.40227,0.62251 1.80893,1.94085 0.40665,1.31833 -0.19567,1.25838 -0.40129,2.6226 -0.20562,1.36422 0.3876,1.48447 -0.38957,2.62437 -0.77717,1.13991 -1.10584,0.63162 -2.30063,1.32144 z"
       inkscape:transform-center-x="-0.044858979"
       inkscape:transform-center-y="0.029691832"
       transform="matrix(-0.36497727,0.39184601,-0.39184601,-0.36497727,197.62329,188.62025)" />
    <path
       sodipodi:type="star"
       style="opacity:1;fill:#2d2d2d;fill-opacity:1;fill-rule:nonzero;stroke:none;stroke-width:0.05291667;stroke-linecap:butt;stroke-linejoin:miter;stroke-miterlimit:4;stroke-dasharray:none;stroke-dashoffset:0;stroke-opacity:1;paint-order:markers stroke fill"
       id="path1073-6-8"
       sodipodi:sides="7"
       sodipodi:cx="107.01472"
       sodipodi:cy="162.7171"
       sodipodi:r1="5.5033412"
       sodipodi:r2="6.1148238"
       sodipodi:arg1="1.0471976"
       sodipodi:arg2="1.4959965"
       inkscape:flatsided="false"
       inkscape:rounded="0.52"
       inkscape:randomized="0"
       d="m 109.76639,167.48314 c -1.19479,0.68981 -0.91894,1.22859 -2.29471,1.33169 -1.37577,0.1031 -1.1833,-0.47078 -2.46756,-0.97481 -1.28426,-0.50404 -1.5335,0.0476 -2.47189,-0.96378 -0.93838,-1.01134 -0.3697,-1.21867 -0.77636,-2.537 -0.40665,-1.31833 -0.9933,-1.16929 -0.78768,-2.53351 0.20562,-1.36421 0.72228,-1.04887 1.49945,-2.18877 0.77717,-1.1399 0.29487,-1.50564 1.48967,-2.19545 1.19479,-0.68981 1.27037,-0.0893 2.64614,-0.19236 1.37577,-0.1031 1.361,-0.70821 2.64526,-0.20418 1.28426,0.50404 0.86186,0.93757 1.80024,1.94891 0.93839,1.01134 1.40227,0.62251 1.80893,1.94085 0.40665,1.31833 -0.19567,1.25838 -0.40129,2.6226 -0.20562,1.36422 0.3876,1.48447 -0.38957,2.62437 -0.77717,1.13991 -1.10584,0.63162 -2.30063,1.32144 z"
       inkscape:transform-center-x="-0.042304517"
       inkscape:transform-center-y="0.027999007"
       transform="matrix(-0.34419746,0.36953645,-0.36953645,-0.34419746,191.76758,187.62014)" />
    <circle
       style="opacity:1;fill:#a1a0a0;fill-opacity:1;fill-rule:nonzero;stroke:none;stroke-width:0.01327075;stroke-linecap:butt;stroke-linejoin:miter;stroke-miterlimit:4;stroke-dasharray:none;stroke-dashoffset:0;stroke-opacity:1;paint-order:markers stroke fill"
       id="path1119"
       cx="94.804832"
       cy="168.54166"
       r="0.31518018" />
  </g>
</svg>
